Karmilla-Regular.sfdir
StartChar: exclam
Encoding: 33 33 11
Width: 278
Flags: W
LayerCount: 2
Back
Fore
SplineSet
99 627 m 1,0,-1
 182 627 l 1,1,-1
 173 176 l 1,2,-1
 109 176 l 1,3,-1
 99 627 l 1,0,-1
98.5 7.5 m 128,-1,5
 82 24 82 24 82 47.5 c 128,-1,6
 82 71 82 71 98.5 87.5 c 128,-1,7
 115 104 115 104 140.5 104 c 128,-1,8
 166 104 166 104 183.5 87.5 c 128,-1,9
 201 71 201 71 201 47.5 c 128,-1,10
 201 24 201 24 183.5 7.5 c 128,-1,11
 166 -9 166 -9 140.5 -9 c 128,-1,4
 115 -9 115 -9 98.5 7.5 c 128,-1,5
EndSplineSet
Validated: 1
EndChar
StartChar: numbersign
Encoding: 35 35 148
Width: 627
Flags: W
LayerCount: 2
Fore
SplineSet
53 170 m 1,0,-1
 58 224 l 1,1,-1
 158 224 l 1,2,-1
 177 402 l 1,3,-1
 76 402 l 1,4,-1
 82 455 l 1,5,-1
 182 455 l 1,6,-1
 197 593 l 1,7,-1
 271 593 l 1,8,-1
 256 455 l 1,9,-1
 410 455 l 1,10,-1
 425 593 l 1,11,-1
 498 593 l 1,12,-1
 483 455 l 1,13,-1
 586 455 l 1,14,-1
 580 402 l 1,15,-1
 478 402 l 1,16,-1
 459 224 l 1,17,-1
 562 224 l 1,18,-1
 556 170 l 1,19,-1
 453 170 l 1,20,-1
 439 31 l 1,21,-1
 365 31 l 1,22,-1
 380 170 l 1,23,-1
 226 170 l 1,24,-1
 212 31 l 1,25,-1
 138 31 l 1,26,-1
 152 170 l 1,27,-1
 53 170 l 1,0,-1
232 224 m 1,28,-1
 385 224 l 1,29,-1
 404 402 l 1,30,-1
 251 402 l 1,31,-1
 232 224 l 1,28,-1
EndSplineSet
EndChar
StartChar: dollar
Encoding: 36 36 93
Width: 632
Flags: W
LayerCount: 2
Fore
SplineSet
69 189 m 1,0,-1
 146 189 l 1,1,2
 146 76.2381 146 76.2381 285 63 c 1,3,-1
 285 298 l 1,4,-1
 253 310 l 1,5,6
 170 336 170 336 127.5 372 c 128,-1,7
 85 408 85 408 85 475 c 128,-1,8
 85 542 85 542 135.5 586.5 c 128,-1,9
 186 631 186 631 285 638 c 1,10,-1
 285 713 l 1,11,-1
 347 713 l 1,12,-1
 347 637 l 1,13,14
 434 630 434 630 481 587 c 128,-1,15
 528 544 528 544 539 476 c 1,16,-1
 461 476 l 1,17,18
 444.084 556.35 444.084 556.35 347 568 c 1,19,-1
 347 353 l 1,20,-1
 417 330 l 2,21,22
 486 307 486 307 524.5 268.5 c 128,-1,23
 563 230 563 230 563 163.5 c 128,-1,24
 563 97 563 97 506 46.3333 c 128,-1,25
 449 -4.33333 449 -4.33333 347 -10 c 1,26,-1
 347 -91 l 1,27,-1
 285 -91 l 1,28,-1
 285 -9 l 1,29,30
 190.073 -0.562088 190.073 -0.562088 129.537 50.581 c 128,-1,31
 69 101.724 69 101.724 69 189 c 1,0,-1
170 472.5 m 128,-1,40
 170 436 170 436 190 415.5 c 128,-1,41
 210 395 210 395 255 381 c 1,42,-1
 285 370 l 1,43,-1
 285 569 l 1,44,45
 228 563 228 563 199 536 c 128,-1,39
 170 509 170 509 170 472.5 c 128,-1,40
347 62 m 1,32,33
 410 67 410 67 442.5 98 c 128,-1,34
 475 129 475 129 475 167 c 0,35,36
 475 240.727 475 240.727 383 270 c 1,37,-1
 347 282 l 1,38,-1
 347 62 l 1,32,33
EndSplineSet
EndChar
StartChar: percent
Encoding: 37 37 151
Width: 726
Flags: W
LayerCount: 2
Fore
SplineSet
61 496 m 128,-1,1
 61 563 61 563 98 601.5 c 128,-1,2
 135 640 135 640 188 640 c 128,-1,3
 241 640 241 640 279 602 c 128,-1,4
 317 564 317 564 317 496 c 128,-1,5
 317 428 317 428 279.5 390.5 c 128,-1,6
 242 353 242 353 188 353 c 128,-1,7
 134 353 134 353 97.5 391 c 128,-1,0
 61 429 61 429 61 496 c 128,-1,1
112 0 m 1,8,-1
 534 629 l 1,9,-1
 616 629 l 1,10,-1
 193 0 l 1,11,-1
 112 0 l 1,8,-1
123 496 m 128,-1,13
 123 449 123 449 141 428 c 128,-1,14
 159 407 159 407 188 407 c 128,-1,15
 217 407 217 407 235 428 c 128,-1,16
 253 449 253 449 253 496 c 128,-1,17
 253 543 253 543 235 565 c 128,-1,18
 217 587 217 587 188 587 c 128,-1,19
 159 587 159 587 141 565 c 128,-1,12
 123 543 123 543 123 496 c 128,-1,13
411 132.5 m 128,-1,21
 411 200 411 200 447.5 238 c 128,-1,22
 484 276 484 276 538 276 c 128,-1,23
 592 276 592 276 629.5 238.5 c 128,-1,24
 667 201 667 201 667 132.5 c 128,-1,25
 667 64 667 64 629.5 26.5 c 128,-1,26
 592 -11 592 -11 538 -11 c 128,-1,27
 484 -11 484 -11 447.5 27 c 128,-1,20
 411 65 411 65 411 132.5 c 128,-1,21
473 132 m 128,-1,29
 473 85 473 85 491 64 c 128,-1,30
 509 43 509 43 538 43 c 128,-1,31
 567 43 567 43 585 64 c 128,-1,32
 603 85 603 85 603 132 c 128,-1,33
 603 179 603 179 585 201 c 128,-1,34
 567 223 567 223 538 223 c 128,-1,35
 509 223 509 223 491 201 c 128,-1,28
 473 179 473 179 473 132 c 128,-1,29
EndSplineSet
Validated: 1
EndChar
StartChar: ampersand
Encoding: 38 38 127
Width: 916
Flags: W
LayerCount: 2
Fore
SplineSet
725 350 m 1,0,1
 680.152 213.32 680.152 213.32 610 128 c 1,2,-1
 653 91 l 2,3,4
 673 74 673 74 688.5 66 c 128,-1,5
 704 58 704 58 728.5 58 c 128,-1,6
 753 58 753 58 772.5 76.5 c 128,-1,7
 792 95 792 95 795 140 c 1,8,-1
 869 140 l 1,9,10
 865 68 865 68 831.5 28.5 c 128,-1,11
 798 -11 798 -11 734 -11 c 0,12,13
 695 -11 695 -11 662 5 c 128,-1,14
 629 21 629 21 590 56 c 1,15,-1
 564 78 l 1,16,17
 464.405 -11 464.405 -11 336 -11 c 0,18,19
 231.061 -11 231.061 -11 160.031 41.7348 c 128,-1,20
 89 94.4697 89 94.4697 89 168.235 c 128,-1,21
 89 242 89 242 136.5 279.5 c 128,-1,22
 184 317 184 317 276 332 c 1,23,-1
 262 345 l 1,24,25
 185 411.595 185 411.595 185 492 c 0,26,27
 185 555.4 185 555.4 237.25 597.2 c 128,-1,28
 289.5 639 289.5 639 376.096 639 c 128,-1,29
 462.692 639 462.692 639 514.346 597.031 c 128,-1,30
 566 555.062 566 555.062 566 495.531 c 128,-1,31
 566 436 566 436 527 393 c 128,-1,32
 488 350 488 350 400 312 c 1,33,-1
 558 173 l 1,34,35
 626.19 254.828 626.19 254.828 670 380 c 1,36,-1
 725 350 l 1,0,1
211.5 251 m 128,-1,38
 175 224 175 224 175 176 c 128,-1,39
 175 128 175 128 216.5 93.5 c 128,-1,40
 258 59 258 59 344.048 59 c 128,-1,41
 430.097 59 430.097 59 511 125 c 1,42,-1
 325 288 l 1,43,37
 248 278 248 278 211.5 251 c 128,-1,38
480 488 m 0,44,45
 480 524 480 524 452.5 548 c 128,-1,46
 425 572 425 572 375.5 572 c 128,-1,47
 326 572 326 572 298.5 544.5 c 128,-1,48
 271 517 271 517 271 485 c 128,-1,49
 271 453 271 453 284 428 c 128,-1,50
 297 403 297 403 327 377 c 1,51,-1
 354 352 l 1,52,53
 457.538 399.571 457.538 399.571 474.5 452 c 0,54,55
 480 469 480 469 480 488 c 0,44,45
EndSplineSet
Validated: 1
EndChar
StartChar: quotesingle
Encoding: 39 39 64
Width: 136
Flags: W
LayerCount: 2
Back
Fore
SplineSet
109 677 m 1,0,-1
 98 457 l 1,1,-1
 38 457 l 1,2,-1
 27 677 l 1,3,-1
 109 677 l 1,0,-1
EndSplineSet
Validated: 1
EndChar
StartChar: parenleft
Encoding: 40 40 68
Width: 356
Flags: W
LayerCount: 2
Fore
SplineSet
73 307.5 m 128,-1,1
 73 423 73 423 123 530.5 c 128,-1,2
 173 638 173 638 271 728 c 1,3,-1
 328 687 l 1,4,5
 155 512 155 512 155 307 c 128,-1,6
 155 102 155 102 328 -73 c 1,7,-1
 271 -113 l 1,8,9
 173 -24 173 -24 123 84 c 128,-1,0
 73 192 73 192 73 307.5 c 128,-1,1
EndSplineSet
Validated: 1
EndChar
StartChar: parenright
Encoding: 41 41 69
Width: 356
Flags: W
LayerCount: 2
Fore
SplineSet
201 307 m 128,-1,1
 201 511.988 201 511.988 28 687 c 1,2,-1
 85 728 l 1,3,4
 183 638 183 638 233 530.5 c 128,-1,5
 283 423 283 423 283 307.5 c 128,-1,6
 283 192 283 192 233 84 c 128,-1,7
 183 -24 183 -24 85 -113 c 1,8,-1
 28 -73 l 1,9,0
 201 102.012 201 102.012 201 307 c 128,-1,1
EndSplineSet
Validated: 1
EndChar
StartChar: asterisk
Encoding: 42 42 149
Width: 412
Flags: W
LayerCount: 2
Fore
SplineSet
56 556 m 1,0,-1
 80 610 l 1,1,-1
 186 556 l 1,2,-1
 176 684 l 1,3,-1
 238 684 l 1,4,-1
 228 556 l 1,5,-1
 334 610 l 1,6,-1
 358 556 l 1,7,-1
 242 516 l 1,8,-1
 332 427 l 1,9,-1
 288 388 l 1,10,-1
 208 492 l 1,11,-1
 128 388 l 1,12,-1
 83 427 l 1,13,-1
 173 516 l 1,14,-1
 56 556 l 1,0,-1
EndSplineSet
EndChar
StartChar: plus
Encoding: 43 43 70
Width: 527
Flags: W
LayerCount: 2
Fore
SplineSet
303 491 m 1,0,-1
 303 279 l 1,1,-1
 509 279 l 1,2,-1
 509 212 l 1,3,-1
 303 212 l 1,4,-1
 303 0 l 1,5,-1
 224 0 l 1,6,-1
 224 212 l 1,7,-1
 18 212 l 1,8,-1
 18 279 l 1,9,-1
 224 279 l 1,10,-1
 224 491 l 1,11,-1
 303 491 l 1,0,-1
EndSplineSet
EndChar
StartChar: comma
Encoding: 44 44 4
Width: 210
Flags: W
LayerCount: 2
Back
Fore
SplineSet
67 10 m 128,-1,1
 52 23 52 23 52 45 c 128,-1,2
 52 67 52 67 67.5 82 c 128,-1,3
 83 97 83 97 111.5 97 c 128,-1,4
 140 97 140 97 159 74.5 c 128,-1,5
 178 52 178 52 178 18 c 128,-1,6
 178 -16 178 -16 156 -51.5 c 128,-1,7
 134 -87 134 -87 89 -109 c 1,8,-1
 30 -80 l 1,9,10
 92 -50 92 -50 105 -5 c 1,11,0
 82 -3 82 -3 67 10 c 128,-1,1
EndSplineSet
EndChar
StartChar: hyphen
Encoding: 45 45 8
Width: 349
Flags: W
LayerCount: 2
Fore
SplineSet
38 325 m 1,0,-1
 310 325 l 1,1,-1
 310 257 l 1,2,-1
 38 257 l 1,3,-1
 38 325 l 1,0,-1
EndSplineSet
EndChar
StartChar: period
Encoding: 46 46 5
Width: 179
Flags: W
LayerCount: 2
Fore
SplineSet
30 47.5 m 128,-1,1
 30 71 30 71 46.5 87.5 c 128,-1,2
 63 104 63 104 88.5 104 c 128,-1,3
 114 104 114 104 131 87.5 c 128,-1,4
 148 71 148 71 148 47.5 c 128,-1,5
 148 24 148 24 131 7.5 c 128,-1,6
 114 -9 114 -9 88.5 -9 c 128,-1,7
 63 -9 63 -9 46.5 7.5 c 128,-1,0
 30 24 30 24 30 47.5 c 128,-1,1
EndSplineSet
EndChar
StartChar: slash
Encoding: 47 47 150
Width: 432
Flags: W
LayerCount: 2
Back
Fore
SplineSet
308 731 m 1,0,-1
 388 731 l 1,1,-1
 136 -73 l 1,2,-1
 57 -73 l 1,3,-1
 308 731 l 1,0,-1
EndSplineSet
EndChar
StartChar: zero
Encoding: 48 48 73
Width: 594
Flags: W
LayerCount: 2
Fore
SplineSet
51 314.5 m 128,-1,1
 51 474 51 474 117.5 557 c 128,-1,2
 184 640 184 640 298 640 c 128,-1,3
 412 640 412 640 478 556 c 128,-1,4
 544 472 544 472 544 314.5 c 128,-1,5
 544 157 544 157 478 73 c 128,-1,6
 412 -11 412 -11 298 -11 c 128,-1,7
 184 -11 184 -11 117.5 72 c 128,-1,0
 51 155 51 155 51 314.5 c 128,-1,1
133 314.5 m 128,-1,9
 133 192 133 192 175 126.5 c 128,-1,10
 217 61 217 61 297.5 61 c 128,-1,11
 378 61 378 61 420 126.5 c 128,-1,12
 462 192 462 192 462 314.5 c 128,-1,13
 462 437 462 437 420 502.5 c 128,-1,14
 378 568 378 568 297.5 568 c 128,-1,15
 217 568 217 568 175 502.5 c 128,-1,8
 133 437 133 437 133 314.5 c 128,-1,9
EndSplineSet
Validated: 1
Substitution2: "'onum' Oldstyle Figures in Latin lookup 0 subtable" .notdef
EndChar
StartChar: one
Encoding: 49 49 74
Width: 331
Flags: W
LayerCount: 2
Fore
SplineSet
49 502 m 1,0,-1
 49 580 l 1,1,2
 116.329 588.688 116.329 588.688 166 631 c 1,3,-1
 230 631 l 1,4,-1
 230 0 l 1,5,-1
 152 0 l 1,6,-1
 152 537 l 1,7,8
 102 505 102 505 49 502 c 1,0,-1
EndSplineSet
Substitution2: "'onum' Oldstyle Figures in Latin lookup 0 subtable" .notdef
EndChar
StartChar: two
Encoding: 50 50 75
Width: 580
Flags: W
LayerCount: 2
Fore
SplineSet
64 0 m 1,0,-1
 64 93 l 2,1,2
 64 203.887 64 203.887 148.5 256.5 c 0,3,4
 175 273 175 273 208 286 c 2,5,-1
 332 336 l 2,6,7
 428 374 428 374 428 461 c 0,8,9
 428 509 428 509 395 539.5 c 128,-1,10
 362 570 362 570 302.5 570 c 128,-1,11
 243 570 243 570 205.5 545 c 128,-1,12
 168 520 168 520 162 470 c 1,13,-1
 75 470 l 1,14,15
 80 552 80 552 141 596 c 128,-1,16
 202 640 202 640 297.296 640 c 128,-1,17
 392.592 640 392.592 640 452.796 588.246 c 128,-1,18
 513 536.491 513 536.491 513 459.746 c 128,-1,19
 513 383 513 383 473.5 338 c 128,-1,20
 434 293 434 293 365 266 c 2,21,-1
 238 215 l 2,22,23
 190 195 190 195 166.5 169.5 c 128,-1,24
 143 144 143 144 143 103 c 2,25,-1
 143 73 l 1,26,-1
 508 73 l 1,27,-1
 508 0 l 1,28,-1
 64 0 l 1,0,-1
EndSplineSet
Substitution2: "'onum' Oldstyle Figures in Latin lookup 0 subtable" .notdef
EndChar
StartChar: three
Encoding: 51 51 76
Width: 591
Flags: W
LayerCount: 2
Fore
SplineSet
52 193 m 1,0,-1
 134 193 l 1,1,2
 136 129 136 129 181.333 95 c 128,-1,3
 226.667 61 226.667 61 296.833 61 c 128,-1,4
 367 61 367 61 405.5 94.5 c 128,-1,5
 444 128 444 128 444 177.5 c 128,-1,6
 444 227 444 227 407 258.5 c 128,-1,7
 370 290 370 290 287 290 c 2,8,-1
 215 290 l 1,9,-1
 215 353 l 1,10,-1
 264 353 l 2,11,12
 336 353 336 353 378 381.5 c 128,-1,13
 420 410 420 410 420 458 c 128,-1,14
 420 506 420 506 386 537 c 128,-1,15
 352 568 352 568 296 568 c 128,-1,16
 240 568 240 568 202.5 548.5 c 128,-1,17
 165 529 165 529 152 476 c 1,18,-1
 70 476 l 1,19,20
 81.328 559.072 81.328 559.072 138.989 599.536 c 128,-1,21
 196.65 640 196.65 640 288.569 640 c 128,-1,22
 380.489 640 380.489 640 442.744 591.698 c 128,-1,23
 505 543.397 505 543.397 505 468 c 0,24,25
 505 367.704 505 367.704 395 329 c 1,26,27
 455 312 455 312 492 273 c 128,-1,28
 529 234 529 234 529 173 c 0,29,30
 529 89.6 529 89.6 466.125 39.3 c 128,-1,31
 403.25 -11 403.25 -11 300.213 -11 c 128,-1,32
 197.176 -11 197.176 -11 124.588 42.6522 c 128,-1,33
 52 96.3043 52 96.3043 52 193 c 1,0,-1
EndSplineSet
Substitution2: "'onum' Oldstyle Figures in Latin lookup 0 subtable" .notdef
EndChar
StartChar: four
Encoding: 52 52 77
Width: 559
Flags: W
LayerCount: 2
Back
Fore
SplineSet
428 638 m 1,0,-1
 428 220 l 1,1,-1
 537 220 l 1,2,-1
 537 152 l 1,3,-1
 428 152 l 1,4,-1
 428 0 l 1,5,-1
 351 0 l 1,6,-1
 351 152 l 1,7,-1
 26 152 l 1,8,-1
 26 213 l 1,9,-1
 355 638 l 1,10,-1
 428 638 l 1,0,-1
120 213 m 1,11,-1
 353 213 l 1,12,-1
 353 513 l 1,13,-1
 120 213 l 1,11,-1
EndSplineSet
Validated: 1
Substitution2: "'onum' Oldstyle Figures in Latin lookup 0 subtable" .notdef
EndChar
StartChar: five
Encoding: 53 53 78
Width: 565
Flags: W
LayerCount: 2
Fore
SplineSet
65 175 m 1,0,-1
 144 175 l 1,1,2
 144 92 144 92 228 68 c 0,3,4
 251 61 251 61 278 61 c 0,5,6
 281 61 281 61 285 61 c 0,7,8
 349 61 349 61 388 101.5 c 128,-1,9
 427 142 427 142 427 204 c 0,10,11
 427 323 427 323 272 323 c 2,12,-1
 103 323 l 1,13,-1
 130 629 l 1,14,-1
 479 629 l 1,15,-1
 479 557 l 1,16,-1
 206 557 l 1,17,-1
 189 376 l 1,18,19
 241 385 241 385 288 385 c 0,20,21
 391 385 391 385 450 339.5 c 128,-1,22
 509 294 509 294 509 202 c 128,-1,23
 509 110 509 110 447 49.5 c 128,-1,24
 385 -11 385 -11 287 -11 c 128,-1,25
 189 -11 189 -11 127 38.5 c 128,-1,26
 65 88 65 88 65 175 c 1,0,-1
EndSplineSet
Validated: 1
Substitution2: "'onum' Oldstyle Figures in Latin lookup 0 subtable" .notdef
EndChar
StartChar: six
Encoding: 54 54 79
Width: 573
Flags: W
LayerCount: 2
Fore
SplineSet
425 470 m 1,0,1
 407.578 568 407.578 568 317.692 568 c 128,-1,2
 227.806 568 227.806 568 179.403 493.851 c 128,-1,3
 131 419.702 131 419.702 131 292 c 0,4,5
 131 239 131 239 136 204 c 1,6,7
 141.646 296.221 141.646 296.221 192.348 337.611 c 128,-1,8
 243.05 379 243.05 379 322.251 379 c 128,-1,9
 401.453 379 401.453 379 458.226 323.278 c 128,-1,10
 515 267.556 515 267.556 515 181.394 c 128,-1,11
 515 95.2321 515 95.2321 456.127 41.6161 c 128,-1,12
 397.255 -12 397.255 -12 301 -12 c 0,13,14
 188.706 -12 188.706 -12 119.853 78.0385 c 128,-1,15
 51 168.077 51 168.077 51 314.509 c 128,-1,16
 51 460.941 51 460.941 121 550.5 c 128,-1,17
 190.954 640 190.954 640 312 640 c 0,18,19
 395.667 640 395.667 640 448.823 593.097 c 128,-1,20
 501.98 546.195 501.98 546.195 510 470 c 1,21,-1
 425 470 l 1,0,1
207.5 273.5 m 128,-1,23
 170 238.143 170 238.143 170 183.214 c 128,-1,24
 170 128.286 170 128.286 206.797 94.6429 c 128,-1,25
 243.594 61 243.594 61 300.797 61 c 128,-1,26
 358 61 358 61 395.5 94 c 128,-1,27
 433 127 433 127 433 185 c 128,-1,28
 433 243 433 243 395.5 276 c 128,-1,29
 358 309 358 309 301.576 309 c 128,-1,22
 245.152 309 245.152 309 207.5 273.5 c 128,-1,23
EndSplineSet
Substitution2: "'onum' Oldstyle Figures in Latin lookup 0 subtable" .notdef
EndChar
StartChar: seven
Encoding: 55 55 80
Width: 470
Flags: W
LayerCount: 2
Back
Fore
SplineSet
452 629 m 1,0,-1
 452 556 l 1,1,-1
 164 0 l 1,2,-1
 58 0 l 1,3,-1
 360 553 l 1,4,-1
 24 553 l 1,5,-1
 24 629 l 1,6,-1
 452 629 l 1,0,-1
EndSplineSet
Substitution2: "'onum' Oldstyle Figures in Latin lookup 0 subtable" .notdef
EndChar
StartChar: eight
Encoding: 56 56 81
Width: 625
Flags: W
LayerCount: 2
Fore
SplineSet
65 168 m 0,0,1
 65 230 65 230 105.5 269 c 128,-1,2
 146 308 146 308 211 318 c 1,3,4
 86 374.818359375 86 374.818359375 86 473 c 0,5,6
 86 547.880859375 86 547.880859375 147.760742188 593.94140625 c 128,-1,7
 209.5234375 640 209.5234375 640 312.06640625 640 c 128,-1,8
 414.609375 640 414.609375 640 480.803710938 590.88671875 c 128,-1,9
 547 541.774414062 547 541.774414062 547 465 c 0,10,11
 547 413 547 413 512.5 372 c 128,-1,12
 478 331 478 331 411 321 c 1,13,-1
 428 315 l 1,14,15
 497 289 497 289 534 253.5 c 128,-1,16
 571 218 571 218 571 157 c 0,17,18
 571 81.181640625 571 81.181640625 503.400390625 35.0908203125 c 128,-1,19
 435.799804688 -11 435.799804688 -11 321.244140625 -11 c 128,-1,20
 206.688476562 -11 206.688476562 -11 135.84375 39.75390625 c 128,-1,21
 65 90.5078125 65 90.5078125 65 168 c 0,0,1
147 169.196289062 m 128,-1,23
 147 121.390625 147 121.390625 194.897460938 91.1953125 c 128,-1,24
 242.79296875 61 242.79296875 61 320.397460938 61 c 128,-1,25
 398 61 398 61 443.5 87 c 128,-1,26
 489 113 489 113 489 150 c 128,-1,27
 489 187 489 187 465 209.5 c 128,-1,28
 441 232 441 232 399 247 c 2,29,-1
 286 289 l 1,30,31
 223 282 223 282 185 249.5 c 128,-1,22
 147 217 147 217 147 169.196289062 c 128,-1,23
169 463 m 0,32,33
 169 436 169 436 191 416.5 c 128,-1,34
 213 397 213 397 254 381 c 2,35,-1
 327 353 l 1,36,37
 387.283203125 355.079101562 387.283203125 355.079101562 426.140625 384.485351562 c 128,-1,38
 465 413.891601562 465 413.891601562 465 461.446289062 c 128,-1,39
 465 509 465 509 424 538.5 c 128,-1,40
 383 568 383 568 318.111328125 568 c 128,-1,41
 253.221679688 568 253.221679688 568 211.111328125 539.575195312 c 128,-1,42
 169 511.150390625 169 511.150390625 169 463 c 0,32,33
EndSplineSet
Substitution2: "'onum' Oldstyle Figures in Latin lookup 0 subtable" .notdef
EndChar
StartChar: nine
Encoding: 57 57 82
Width: 581
Flags: W
LayerCount: 2
Fore
SplineSet
66 447 m 0,0,1
 66 534.321 66 534.321 125.18 587.161 c 128,-1,2
 184.36 640 184.36 640 282.5 640 c 0,3,4
 333 640 333 640 379 618 c 128,-1,5
 425 596 425 596 458.5 555 c 0,6,7
 530 467.493 530 467.493 530 326 c 0,8,9
 530 81.4839 530 81.4839 393.5 12.5 c 0,10,11
 347 -11 347 -11 292 -11 c 0,12,13
 189.189 -11 189.189 -11 129.094 44.8772 c 128,-1,14
 69 100.754 69 100.754 69 186 c 1,15,-1
 152 186 l 1,16,17
 154 129 154 129 188 95 c 128,-1,18
 222 61 222 61 274 61 c 128,-1,19
 326 61 326 61 357.5 80.5 c 0,20,21
 449 137.143 449 137.143 449 337 c 0,22,23
 449 377.667 449 377.667 444 411 c 1,24,25
 434 330 434 330 385.5 290 c 128,-1,26
 337 250 337 250 258.274 250 c 128,-1,27
 179.547 250 179.547 250 122.774 305.722 c 128,-1,28
 66 361.444 66 361.444 66 447 c 0,0,1
148 443 m 128,-1,30
 148 385 148 385 185.5 352 c 128,-1,31
 223 319 223 319 279.424 319 c 128,-1,32
 335.848 319 335.848 319 373.5 354.5 c 128,-1,33
 411 389.857 411 389.857 411 445.04 c 128,-1,34
 411 500.222 411 500.222 373.438 533.611 c 128,-1,35
 335.875 567 335.875 567 279 567 c 128,-1,36
 222 567 222 567 185 534 c 128,-1,29
 148 501 148 501 148 443 c 128,-1,30
EndSplineSet
Substitution2: "'onum' Oldstyle Figures in Latin lookup 0 subtable" .notdef
EndChar
StartChar: colon
Encoding: 58 58 7
Width: 231
Flags: W
LayerCount: 2
Fore
SplineSet
56 79.5 m 128,-1,1
 56 103 56 103 72.5 119.5 c 128,-1,2
 89 136 89 136 114.5 136 c 128,-1,3
 140 136 140 136 157 119.5 c 128,-1,4
 174 103 174 103 174 79.5 c 128,-1,5
 174 56 174 56 157 39.5 c 128,-1,6
 140 23 140 23 114.5 23 c 128,-1,7
 89 23 89 23 72.5 39.5 c 128,-1,0
 56 56 56 56 56 79.5 c 128,-1,1
56 385.5 m 128,-1,9
 56 409 56 409 72.5 425.5 c 128,-1,10
 89 442 89 442 114.5 442 c 128,-1,11
 140 442 140 442 157 425.5 c 128,-1,12
 174 409 174 409 174 385.5 c 128,-1,13
 174 362 174 362 157 345.5 c 128,-1,14
 140 329 140 329 114.5 329 c 128,-1,15
 89 329 89 329 72.5 345.5 c 128,-1,8
 56 362 56 362 56 385.5 c 128,-1,9
EndSplineSet
Validated: 1
EndChar
StartChar: semicolon
Encoding: 59 59 6
Width: 262
Flags: W
LayerCount: 2
Fore
SplineSet
94 10 m 128,-1,1
 79 23 79 23 79 45 c 128,-1,2
 79 67 79 67 94.5 82 c 128,-1,3
 110 97 110 97 138.5 97 c 128,-1,4
 167 97 167 97 186 74.5 c 128,-1,5
 205 52 205 52 205 18 c 128,-1,6
 205 -16 205 -16 183 -51.5 c 128,-1,7
 161 -87 161 -87 116 -109 c 1,8,-1
 57 -80 l 1,9,10
 119 -50 119 -50 132 -5 c 1,11,0
 109 -3 109 -3 94 10 c 128,-1,1
98.5 345.5 m 128,-1,13
 82 362 82 362 82 385.5 c 128,-1,14
 82 409 82 409 98.5 425.5 c 128,-1,15
 115 442 115 442 140.5 442 c 128,-1,16
 166 442 166 442 183 425.5 c 128,-1,17
 200 409 200 409 200 385.5 c 128,-1,18
 200 362 200 362 183 345.5 c 128,-1,19
 166 329 166 329 140.5 329 c 128,-1,12
 115 329 115 329 98.5 345.5 c 128,-1,13
EndSplineSet
EndChar
StartChar: less
Encoding: 60 60 145
Width: 454
Flags: W
LayerCount: 2
Back
Fore
SplineSet
408 512 m 1,0,-1
 120 305 l 1,1,-1
 408 101 l 1,2,-1
 356 40 l 1,3,-1
 40 271 l 1,4,-1
 40 340 l 1,5,-1
 356 572 l 1,6,-1
 408 512 l 1,0,-1
EndSplineSet
EndChar
StartChar: equal
Encoding: 61 61 72
Width: 488
Flags: W
LayerCount: 2
Fore
SplineSet
409 185 m 1,0,-1
 409 117 l 1,1,-1
 79 117 l 1,2,-1
 79 185 l 1,3,-1
 409 185 l 1,0,-1
409 377 m 1,4,-1
 409 308 l 1,5,-1
 79 308 l 1,6,-1
 79 377 l 1,7,-1
 409 377 l 1,4,-1
EndSplineSet
Validated: 1
EndChar
StartChar: greater
Encoding: 62 62 146
Width: 454
Flags: W
LayerCount: 2
Fore
SplineSet
47 101 m 1,0,-1
 333 305 l 1,1,-1
 47 512 l 1,2,-1
 98 572 l 1,3,-1
 414 340 l 1,4,-1
 414 271 l 1,5,-1
 98 40 l 1,6,-1
 47 101 l 1,0,-1
EndSplineSet
Validated: 1
EndChar
StartChar: question
Encoding: 63 63 94
Width: 499
Flags: W
LayerCount: 2
Fore
SplineSet
30 476 m 1,0,1
 37 550 37 550 91 595 c 128,-1,2
 145 640 145 640 242.689 640 c 128,-1,3
 340.378 640 340.378 640 396.689 592.189 c 128,-1,4
 453 544.377 453 544.377 453 475 c 0,5,6
 453 423 453 423 427 388.5 c 128,-1,7
 401 354 401 354 343 322 c 0,8,9
 318 308 318 308 301 297 c 128,-1,10
 284 286 284 286 274 272.5 c 0,11,12
 255 246.85 255 246.85 255 200 c 2,13,-1
 255 161 l 1,14,-1
 177 161 l 1,15,-1
 177 206 l 2,16,17
 177 269.348 177 269.348 198.183 302.504 c 128,-1,18
 219.367 335.661 219.367 335.661 274.194 365.676 c 128,-1,19
 329.021 395.692 329.021 395.692 348.011 418.298 c 128,-1,20
 367 440.905 367 440.905 367 478.952 c 128,-1,21
 367 517 367 517 335.5 542.5 c 128,-1,22
 304 568 304 568 248 568 c 0,23,24
 130.727 568 130.727 568 114 476 c 1,25,-1
 30 476 l 1,0,1
159 44.5 m 128,-1,27
 159 68 159 68 175 85 c 128,-1,28
 191 102 191 102 217 102 c 128,-1,29
 243 102 243 102 260 85 c 128,-1,30
 277 68 277 68 277 44.5 c 128,-1,31
 277 21 277 21 260 5 c 128,-1,32
 243 -11 243 -11 217 -11 c 128,-1,33
 191 -11 191 -11 175 5 c 128,-1,26
 159 21 159 21 159 44.5 c 128,-1,27
EndSplineSet
EndChar
StartChar: at
Encoding: 64 64 128
Width: 940
Flags: W
LayerCount: 2
Fore
SplineSet
67 226 m 128,-1,12
 67 315 67 315 100 391 c 128,-1,13
 133 467 133 467 192 522.5 c 128,-1,14
 251 578 251 578 332.5 609 c 128,-1,15
 414 640 414 640 505 640 c 128,-1,16
 596 640 596 640 667 613 c 128,-1,17
 738 586 738 586 788 539.5 c 128,-1,18
 838 493 838 493 866 430 c 128,-1,19
 894 367 894 367 894 300.5 c 0,20,21
 894 178.167 894 178.167 829.643 103.083 c 128,-1,22
 765.286 28 765.286 28 679 28 c 0,23,24
 636 28 636 28 610 46 c 128,-1,25
 584 64 584 64 579 98 c 1,26,-1
 576 114 l 1,27,28
 558 76 558 76 528 52 c 128,-1,29
 498 28 498 28 457.5 28 c 0,30,31
 384.444 28 384.444 28 336.722 76.8068 c 128,-1,32
 289 125.614 289 125.614 289 201 c 0,33,34
 289 300.419 289 300.419 355.222 367.71 c 128,-1,35
 421.444 435 421.444 435 512 435 c 0,36,37
 572 435 572 435 606.5 399 c 128,-1,38
 641 363 641 363 641 290 c 2,39,-1
 641 138 l 2,40,41
 641 87 641 87 680 87 c 0,42,43
 700 87 700 87 723.5 100.5 c 128,-1,44
 747 114 747 114 766.5 140 c 0,45,46
 812 200.667 812 200.667 812 296 c 0,47,48
 812 415.103 812 415.103 730.892 492.051 c 128,-1,49
 649.784 569 649.784 569 511 569 c 0,50,51
 429 569 429 569 362 541 c 128,-1,52
 295 513 295 513 247.5 465.5 c 0,53,54
 148 366 148 366 148 216.995 c 128,-1,55
 148 67.9902 148 67.9902 254 -24.5 c 128,-1,56
 360.011 -117 360.011 -117 545 -117 c 1,57,-1
 545 -181 l 1,58,59
 332.167 -181 332.167 -181 198 -66 c 0,60,61
 135 -12 135 -12 101 62.5 c 128,-1,11
 67 137 67 137 67 226 c 128,-1,12
363 202 m 0,0,1
 363 149 363 149 390.5 120 c 128,-1,2
 418 91 418 91 459 91 c 128,-1,3
 500 91 500 91 526 114.5 c 128,-1,4
 552 138 552 138 575 183 c 1,5,-1
 575 289 l 2,6,7
 575 373 575 373 515.5 373 c 0,8,9
 457.455 373 457.455 373 410.227 324.674 c 128,-1,10
 363 276.349 363 276.349 363 202 c 0,0,1
EndSplineSet
EndChar
StartChar: A
Encoding: 65 65 38
Width: 575
Flags: W
LayerCount: 2
Fore
SplineSet
242 629 m 1,0,-1
 338 629 l 1,1,-1
 549 0 l 1,2,-1
 467 0 l 1,3,-1
 413 160 l 1,4,-1
 163 160 l 1,5,-1
 109 0 l 1,6,-1
 26 0 l 1,7,-1
 242 629 l 1,0,-1
184 222 m 1,8,-1
 393 222 l 1,9,-1
 289 532 l 1,10,-1
 184 222 l 1,8,-1
EndSplineSet
Validated: 1
EndChar
StartChar: B
Encoding: 66 66 39
Width: 622
Flags: W
LayerCount: 2
Fore
SplineSet
101 629 m 1,0,-1
 336 629 l 2,1,2
 435.4 629 435.4 629 488.7 581.971 c 128,-1,3
 542 534.941 542 534.941 542 464 c 0,4,5
 542 410 542 410 512.5 370 c 128,-1,6
 483 330 483 330 423 316 c 1,7,8
 481.815 305.86 481.815 305.86 517.407 265.033 c 128,-1,9
 553 224.206 553 224.206 553 172 c 0,10,11
 553 56.0241 553 56.0241 439.5 15 c 0,12,13
 398 0 398 0 337 0 c 2,14,-1
 101 0 l 1,15,-1
 101 629 l 1,0,-1
335 69 m 2,16,17
 407 69 407 69 438 98 c 128,-1,18
 469 127 469 127 469 175 c 128,-1,19
 469 223 469 223 435 251.5 c 128,-1,20
 401 280 401 280 335 280 c 2,21,-1
 180 280 l 1,22,-1
 180 69 l 1,23,-1
 335 69 l 2,16,17
180 348 m 1,24,-1
 334 348 l 2,25,26
 392 348 392 348 426.5 376.5 c 128,-1,27
 461 405 461 405 461 455 c 128,-1,28
 461 505 461 505 427.5 533 c 128,-1,29
 394 561 394 561 334 561 c 2,30,-1
 180 561 l 1,31,-1
 180 348 l 1,24,-1
EndSplineSet
Validated: 1
EndChar
StartChar: C
Encoding: 67 67 40
Width: 613
Flags: W
LayerCount: 2
Fore
SplineSet
51 320 m 128,-1,1
 51 471 51 471 126 555.5 c 128,-1,2
 201 640 201 640 319 640 c 0,3,4
 420 640 420 640 481.5 589.5 c 128,-1,5
 543 539 543 539 566 458 c 1,6,-1
 481 441 l 1,7,8
 461 500 461 500 418.5 534.5 c 128,-1,9
 376 569 376 569 319 569 c 0,10,11
 240 569 240 569 188 503 c 128,-1,12
 136 437 136 437 136 319.5 c 128,-1,13
 136 202 136 202 182.5 131 c 128,-1,14
 229 60 229 60 319 60 c 0,15,16
 394 60 394 60 437.5 99.5 c 128,-1,17
 481 139 481 139 481 204 c 1,18,-1
 566 204 l 1,19,20
 566 105 566 105 498.5 47 c 128,-1,21
 431 -11 431 -11 313.5 -11 c 128,-1,22
 196 -11 196 -11 123.5 79 c 128,-1,0
 51 169 51 169 51 320 c 128,-1,1
EndSplineSet
Validated: 1
EndChar
StartChar: D
Encoding: 68 68 41
Width: 661
Flags: W
LayerCount: 2
Back
Fore
SplineSet
285 629 m 2,0,1
 427 629 427 629 512.5 543.5 c 128,-1,2
 598 458 598 458 598 314.5 c 128,-1,3
 598 171 598 171 512.5 85.5 c 128,-1,4
 427 0 427 0 285 0 c 2,5,-1
 100 0 l 1,6,-1
 100 629 l 1,7,-1
 285 629 l 2,0,1
179 69 m 1,8,-1
 285 69 l 2,9,10
 389.924 69 389.924 69 451.962 138.398 c 128,-1,11
 514 207.797 514 207.797 514 315 c 0,12,13
 514 421.746 514 421.746 451.708 490.373 c 128,-1,14
 389.415 559 389.415 559 285 559 c 2,15,-1
 179 559 l 1,16,-1
 179 69 l 1,8,-1
EndSplineSet
Validated: 1
EndChar
StartChar: F
Encoding: 70 70 43
Width: 524
Flags: W
LayerCount: 2
Fore
SplineSet
101 0 m 1,0,-1
 101 629 l 1,1,-1
 483 629 l 1,2,-1
 483 561 l 1,3,-1
 180 561 l 1,4,-1
 180 352 l 1,5,-1
 462 352 l 1,6,-1
 462 284 l 1,7,-1
 180 284 l 1,8,-1
 180 0 l 1,9,-1
 101 0 l 1,0,-1
EndSplineSet
Validated: 1
EndChar
StartChar: G
Encoding: 71 71 44
Width: 645
Flags: W
LayerCount: 2
Fore
SplineSet
51 314 m 128,-1,1
 51 463 51 463 135.5 551 c 128,-1,2
 220 639 220 639 346 639 c 0,3,4
 420 639 420 639 475.5 609 c 128,-1,5
 531 579 531 579 571 513 c 1,6,-1
 495 487 l 1,7,8
 430 568 430 568 343 568 c 128,-1,9
 256 568 256 568 195.5 497 c 128,-1,10
 135 426 135 426 135 312.5 c 128,-1,11
 135 199 135 199 187 130 c 128,-1,12
 239 61 239 61 327 61 c 0,13,14
 399 61 399 61 443 109 c 128,-1,15
 487 157 487 157 487 251 c 2,16,-1
 487 253 l 1,17,-1
 329 259 l 1,18,-1
 329 311 l 1,19,-1
 564 311 l 1,20,-1
 564 0 l 1,21,-1
 500 0 l 1,22,-1
 490 108 l 1,23,24
 448 -11 448 -11 327 -11 c 128,-1,25
 206 -11 206 -11 128.5 77 c 128,-1,0
 51 165 51 165 51 314 c 128,-1,1
EndSplineSet
Validated: 1
EndChar
StartChar: H
Encoding: 72 72 45
Width: 669
Flags: W
LayerCount: 2
Fore
SplineSet
101 0 m 1,0,-1
 101 629 l 1,1,-1
 180 629 l 1,2,-1
 180 352 l 1,3,-1
 489 352 l 1,4,-1
 489 629 l 1,5,-1
 568 629 l 1,6,-1
 568 0 l 1,7,-1
 489 0 l 1,8,-1
 489 284 l 1,9,-1
 180 284 l 1,10,-1
 180 0 l 1,11,-1
 101 0 l 1,0,-1
EndSplineSet
EndChar
StartChar: I
Encoding: 73 73 46
Width: 280
Flags: W
LayerCount: 2
Fore
SplineSet
101 629 m 1,0,-1
 180 629 l 1,1,-1
 180 0 l 1,2,-1
 101 0 l 1,3,-1
 101 629 l 1,0,-1
EndSplineSet
Validated: 1
EndChar
StartChar: J
Encoding: 74 74 47
Width: 404
Flags: W
LayerCount: 2
Back
Fore
SplineSet
277.5 34 m 128,-1,1
 231 -11 231 -11 159.167 -11 c 128,-1,2
 87.3333 -11 87.3333 -11 8 31 c 1,3,-1
 8 113 l 1,4,5
 78 65 78 65 139.5 65 c 128,-1,6
 201 65 201 65 223 95 c 128,-1,7
 245 125 245 125 245 182 c 2,8,-1
 245 629 l 1,9,-1
 324 629 l 1,10,-1
 324 182 l 2,11,0
 324 79 324 79 277.5 34 c 128,-1,1
EndSplineSet
Validated: 1
EndChar
StartChar: K
Encoding: 75 75 48
Width: 609
Flags: W
LayerCount: 2
Fore
SplineSet
101 0 m 1,0,-1
 101 629 l 1,1,-1
 181 629 l 1,2,-1
 181 338 l 1,3,-1
 462 629 l 1,4,-1
 571 629 l 1,5,-1
 296 346 l 1,6,-1
 588 0 l 1,7,-1
 486 0 l 1,8,-1
 243 291 l 1,9,-1
 181 227 l 1,10,-1
 181 0 l 1,11,-1
 101 0 l 1,0,-1
EndSplineSet
EndChar
StartChar: L
Encoding: 76 76 49
Width: 468
Flags: W
LayerCount: 2
Fore
SplineSet
101 0 m 1,0,-1
 101 629 l 1,1,-1
 180 629 l 1,2,-1
 180 69 l 1,3,-1
 460 69 l 1,4,-1
 460 0 l 1,5,-1
 101 0 l 1,0,-1
EndSplineSet
EndChar
StartChar: M
Encoding: 77 77 50
Width: 848
Flags: W
LayerCount: 2
Fore
SplineSet
214 629 m 1,0,-1
 426 203 l 1,1,-1
 636 629 l 1,2,-1
 747 629 l 1,3,-1
 747 0 l 1,4,-1
 668 0 l 1,5,-1
 668 517 l 1,6,-1
 452 79 l 1,7,-1
 399 79 l 1,8,-1
 180 524 l 1,9,-1
 180 0 l 1,10,-1
 101 0 l 1,11,-1
 101 629 l 1,12,-1
 214 629 l 1,0,-1
EndSplineSet
Validated: 1
EndChar
StartChar: N
Encoding: 78 78 51
Width: 685
Flags: W
LayerCount: 2
Fore
SplineSet
99 0 m 1,0,-1
 99 629 l 1,1,-1
 193 629 l 1,2,-1
 505 124 l 1,3,-1
 505 629 l 1,4,-1
 584 629 l 1,5,-1
 584 0 l 1,6,-1
 496 0 l 1,7,-1
 179 512 l 1,8,-1
 179 0 l 1,9,-1
 99 0 l 1,0,-1
EndSplineSet
EndChar
StartChar: P
Encoding: 80 80 53
Width: 554
Flags: W
LayerCount: 2
Fore
SplineSet
99 0 m 1,0,-1
 99 629 l 1,1,-1
 302 629 l 2,2,3
 406 629 406 629 460.5 576.5 c 128,-1,4
 515 524 515 524 515 435 c 128,-1,5
 515 346 515 346 460.5 294.5 c 128,-1,6
 406 243 406 243 302 243 c 2,7,-1
 178 243 l 1,8,-1
 178 0 l 1,9,-1
 99 0 l 1,0,-1
178 311 m 1,10,-1
 302 311 l 2,11,12
 367 311 367 311 400.5 344 c 128,-1,13
 434 377 434 377 434 434.5 c 128,-1,14
 434 492 434 492 400.5 526.5 c 128,-1,15
 367 561 367 561 302 561 c 2,16,-1
 178 561 l 1,17,-1
 178 311 l 1,10,-1
EndSplineSet
EndChar
StartChar: Q
Encoding: 81 81 54
Width: 652
Flags: W
LayerCount: 2
Fore
SplineSet
51 314.938 m 128,-1,1
 51 472.875 51 472.875 125.278 556.438 c 128,-1,2
 199.556 640 199.556 640 323 640 c 0,3,4
 445.049 640 445.049 640 520.525 556.253 c 128,-1,5
 596 472.507 596 472.507 596 314 c 0,6,7
 596 182.058 596 182.058 542.894 101.377 c 128,-1,8
 489.788 20.697 489.788 20.697 399 -2 c 1,9,-1
 430 -46 l 1,10,11
 458.545 -84.6203 458.545 -84.6203 499 -87 c 1,12,13
 541.833 -87 541.833 -87 596 -62 c 1,14,-1
 596 -148 l 1,15,16
 556.273 -167 556.273 -167 511.636 -167 c 0,17,18
 426.682 -167 426.682 -167 366 -78 c 1,19,-1
 319 -11 l 1,20,21
 198.486 -8.92218 198.486 -8.92218 124.743 74.0389 c 128,-1,0
 51 157 51 157 51 314.938 c 128,-1,1
133 313 m 128,-1,23
 133 189 133 189 184 125 c 128,-1,24
 235 61 235 61 323 61 c 128,-1,25
 411 61 411 61 462.5 125 c 128,-1,26
 514 189 514 189 514 313 c 128,-1,27
 514 437 514 437 462.5 503 c 128,-1,28
 411 569 411 569 323 569 c 128,-1,29
 235 569 235 569 184 503 c 128,-1,22
 133 437 133 437 133 313 c 128,-1,23
EndSplineSet
EndChar
StartChar: R
Encoding: 82 82 55
Width: 613
Flags: W
LayerCount: 2
Fore
SplineSet
101 0 m 1,0,-1
 101 629 l 1,1,-1
 320 629 l 2,2,3
 426.3 629 426.3 629 482.65 577.773 c 128,-1,4
 539 526.545 539 526.545 539 448.773 c 128,-1,5
 539 371 539 371 497.5 323 c 128,-1,6
 456 275 456 275 375 261 c 1,7,-1
 555 0 l 1,8,-1
 453 0 l 1,9,-1
 290 257 l 1,10,-1
 180 257 l 1,11,-1
 180 0 l 1,12,-1
 101 0 l 1,0,-1
180 312 m 1,13,-1
 314 312 l 2,14,15
 385 312 385 312 421.5 346.5 c 128,-1,16
 458 381 458 381 458 437.5 c 128,-1,17
 458 494 458 494 422.5 527.5 c 128,-1,18
 387 561 387 561 320 561 c 2,19,-1
 180 561 l 1,20,-1
 180 312 l 1,13,-1
EndSplineSet
EndChar
StartChar: S
Encoding: 83 83 56
Width: 605
Flags: W
LayerCount: 2
Back
Fore
SplineSet
436 476 m 1,0,1
 419.273 568 419.273 568 301 568 c 0,2,3
 238 568 238 568 204 540.5 c 128,-1,4
 170 513 170 513 170 474.5 c 128,-1,5
 170 436 170 436 191 416 c 128,-1,6
 212 396 212 396 259 381 c 1,7,-1
 390 336 l 2,8,9
 457 313 457 313 496.5 273 c 128,-1,10
 536 233 536 233 536 160.5 c 128,-1,11
 536 88 536 88 474.125 38.5 c 128,-1,12
 412.25 -11 412.25 -11 308.005 -11 c 128,-1,13
 203.76 -11 203.76 -11 137.345 41.7102 c 128,-1,14
 70.9302 94.4205 70.9302 94.4205 69 189 c 1,15,-1
 146 189 l 1,16,17
 146 127.048 146 127.048 189.344 94.0238 c 128,-1,18
 232.688 61 232.688 61 301.344 61 c 128,-1,19
 370 61 370 61 410 91.5 c 128,-1,20
 450 122 450 122 450 163.5 c 128,-1,21
 450 205 450 205 425.5 229 c 128,-1,22
 401 253 401 253 353 269 c 1,23,-1
 242 310 l 1,24,25
 164 336 164 336 124 372 c 128,-1,26
 84 408 84 408 84 477.5 c 128,-1,27
 84 547 84 547 140 593.5 c 128,-1,28
 196 640 196 640 297 640 c 128,-1,29
 398 640 398 640 451.5 595.5 c 128,-1,30
 505 551 505 551 513 476 c 1,31,-1
 436 476 l 1,0,1
EndSplineSet
Validated: 1
EndChar
StartChar: T
Encoding: 84 84 57
Width: 501
Flags: W
LayerCount: 2
Back
Fore
SplineSet
6 629 m 1,0,-1
 495 629 l 1,1,-1
 495 561 l 1,2,-1
 290 561 l 1,3,-1
 290 0 l 1,4,-1
 211 0 l 1,5,-1
 211 561 l 1,6,-1
 6 561 l 1,7,-1
 6 629 l 1,0,-1
EndSplineSet
EndChar
StartChar: V
Encoding: 86 86 59
Width: 563
Flags: W
LayerCount: 2
Fore
SplineSet
18 629 m 1,0,-1
 101 629 l 1,1,-1
 281 100 l 1,2,-1
 462 629 l 1,3,-1
 545 629 l 1,4,-1
 322 0 l 1,5,-1
 240 0 l 1,6,-1
 18 629 l 1,0,-1
EndSplineSet
EndChar
StartChar: W
Encoding: 87 87 60
Width: 895
Flags: W
LayerCount: 2
Back
Fore
SplineSet
102 629 m 1,0,-1
 255 106 l 1,1,-1
 410 564 l 1,2,-1
 463 564 l 1,3,-1
 617 106 l 1,4,-1
 793 629 l 1,5,-1
 880 629 l 1,6,-1
 658 0 l 1,7,-1
 575 0 l 1,8,-1
 438 403 l 1,9,-1
 296 0 l 1,10,-1
 213 0 l 1,11,-1
 14 629 l 1,12,-1
 102 629 l 1,0,-1
EndSplineSet
EndChar
StartChar: X
Encoding: 88 88 61
Width: 642
Flags: W
LayerCount: 2
Fore
SplineSet
47 629 m 1,0,-1
 142 629 l 1,1,-1
 322 372 l 1,2,-1
 488 629 l 1,3,-1
 583 629 l 1,4,-1
 366 313 l 1,5,-1
 593 0 l 1,6,-1
 495 0 l 1,7,-1
 313 251 l 1,8,-1
 144 0 l 1,9,-1
 48 0 l 1,10,-1
 270 312 l 1,11,-1
 47 629 l 1,0,-1
EndSplineSet
EndChar
StartChar: Y
Encoding: 89 89 62
Width: 549
Flags: W
LayerCount: 2
Fore
SplineSet
10 629 m 1,0,-1
 104 629 l 1,1,-1
 273 340 l 1,2,-1
 446 629 l 1,3,-1
 539 629 l 1,4,-1
 313 258 l 1,5,-1
 313 0 l 1,6,-1
 233 0 l 1,7,-1
 233 258 l 1,8,-1
 10 629 l 1,0,-1
EndSplineSet
EndChar
StartChar: Z
Encoding: 90 90 63
Width: 592
Flags: W
LayerCount: 2
Fore
SplineSet
73 71 m 1,0,-1
 436 554 l 1,1,-1
 73 557 l 1,2,-1
 73 629 l 1,3,-1
 535 629 l 1,4,-1
 535 558 l 1,5,-1
 172 75 l 1,6,-1
 535 72 l 1,7,-1
 535 0 l 1,8,-1
 73 0 l 1,9,-1
 73 71 l 1,0,-1
EndSplineSet
EndChar
StartChar: bracketleft
Encoding: 91 91 154
Width: 317
Flags: W
LayerCount: 2
Fore
SplineSet
101 731 m 1,0,-1
 299 731 l 1,1,-1
 299 661 l 1,2,-1
 180 661 l 1,3,-1
 180 -32 l 1,4,-1
 299 -32 l 1,5,-1
 299 -102 l 1,6,-1
 101 -102 l 1,7,-1
 101 731 l 1,0,-1
EndSplineSet
EndChar
StartChar: backslash
Encoding: 92 92 152
Width: 432
Flags: W
LayerCount: 2
Back
Fore
SplineSet
45 731 m 1,0,-1
 124 731 l 1,1,-1
 376 -73 l 1,2,-1
 296 -73 l 1,3,-1
 45 731 l 1,0,-1
EndSplineSet
Validated: 1
EndChar
StartChar: bracketright
Encoding: 93 93 155
Width: 285
Flags: W
LayerCount: 2
Fore
SplineSet
184 -102 m 1,0,-1
 -14 -102 l 1,1,-1
 -14 -32 l 1,2,-1
 105 -32 l 1,3,-1
 105 661 l 1,4,-1
 -14 661 l 1,5,-1
 -14 731 l 1,6,-1
 184 731 l 1,7,-1
 184 -102 l 1,0,-1
EndSplineSet
Validated: 1
EndChar
StartChar: asciicircum
Encoding: 94 94 156
Width: 448
Flags: W
LayerCount: 2
Fore
SplineSet
21 245 m 1,0,-1
 197 586 l 1,1,-1
 258 586 l 1,2,-1
 434 245 l 1,3,-1
 346 245 l 1,4,-1
 227 491 l 1,5,-1
 110 245 l 1,6,-1
 21 245 l 1,0,-1
EndSplineSet
EndChar
StartChar: underscore
Encoding: 95 95 157
Width: 726
Flags: W
LayerCount: 2
Back
Fore
SplineSet
55 -56 m 1,0,-1
 671 -56 l 1,1,-1
 671 -124 l 1,2,-1
 55 -124 l 1,3,-1
 55 -56 l 1,0,-1
EndSplineSet
Validated: 1
EndChar
StartChar: grave
Encoding: 96 96 96
Width: 315
Flags: W
LayerCount: 2
Fore
SplineSet
24 790 m 1,0,-1
 57 860 l 1,1,-1
 292 727 l 1,2,-1
 269 677 l 1,3,-1
 24 790 l 1,0,-1
EndSplineSet
EndChar
StartChar: a
Encoding: 97 97 12
Width: 560
Flags: W
LayerCount: 2
Fore
SplineSet
397 310 m 2,0,1
 397 375 397 375 370 403 c 128,-1,2
 343 431 343 431 291.5 431 c 128,-1,3
 240 431 240 431 208.5 410.5 c 128,-1,4
 177 390 177 390 177 346 c 1,5,-1
 90 346 l 1,6,7
 90 456 90 456 208 482 c 0,8,9
 244 490 244 490 286 490 c 0,10,11
 375 490 375 490 425 445 c 128,-1,12
 475 400 475 400 475 308 c 2,13,-1
 475 0 l 1,14,-1
 407 0 l 1,15,-1
 399 80 l 1,16,17
 355 -11 355 -11 240 -11 c 0,18,19
 162 -11 162 -11 116 32 c 128,-1,20
 70 75 70 75 70 139 c 128,-1,21
 70 203 70 203 122 239 c 0,22,23
 173 275 173 275 250 275 c 128,-1,24
 327 275 327 275 397 249 c 1,25,-1
 397 310 l 2,0,1
397 199 m 1,26,27
 326 219 326 219 273 219 c 128,-1,28
 220 219 220 219 187 200 c 128,-1,29
 154 181 154 181 154 140 c 0,30,31
 154 50 154 50 256 50 c 0,32,33
 314 50 314 50 355.5 91.5 c 128,-1,34
 397 133 397 133 397 199 c 1,26,27
EndSplineSet
EndChar
StartChar: b
Encoding: 98 98 13
Width: 584
Flags: W
LayerCount: 2
Fore
SplineSet
180 407 m 1,0,1
 227.725 490 227.725 490 319.777 490 c 128,-1,2
 411.828 490 411.828 490 472.914 421.412 c 128,-1,3
 534 352.825 534 352.825 534 240.429 c 128,-1,4
 534 128.034 534 128.034 471.856 58.5169 c 128,-1,5
 409.712 -11 409.712 -11 321 -11 c 0,6,7
 273 -11 273 -11 234.5 13 c 128,-1,8
 196 37 196 37 174 84 c 1,9,-1
 156 0 l 1,10,-1
 101 0 l 1,11,-1
 101 681 l 1,12,-1
 180 681 l 1,13,-1
 180 407 l 1,0,1
219.735 383.27 m 128,-1,15
 181.956 346.54 181.956 346.54 180 282 c 1,16,-1
 180 204 l 2,17,18
 180 138 180 138 219.5 98.5 c 128,-1,19
 259 59 259 59 315.128 59 c 128,-1,20
 371.255 59 371.255 59 412.128 108.256 c 128,-1,21
 453 157.513 453 157.513 453 240 c 128,-1,22
 453 322.487 453 322.487 412.543 371.244 c 128,-1,23
 372.085 420 372.085 420 314.8 420 c 128,-1,14
 257.514 420 257.514 420 219.735 383.27 c 128,-1,15
EndSplineSet
Validated: 1
EndChar
StartChar: c
Encoding: 99 99 14
Width: 515
Flags: W
LayerCount: 2
Fore
SplineSet
50 241 m 4,0,1
 50 356 50 356 113 423 c 132,-1,2
 176 490 176 490 261 490 c 4,3,4
 345 490 345 490 395 447 c 4,5,6
 445 403 445 403 460 338 c 5,7,-1
 380 331 l 5,8,9
 367 373 367 373 338 396.5 c 132,-1,10
 309 420 309 420 274 420 c 4,11,12
 209 420 209 420 170 372 c 132,-1,13
 131 324 131 324 131 242 c 4,14,15
 131 159 131 159 169 109 c 4,16,17
 208 59 208 59 265.5 59 c 132,-1,18
 323 59 323 59 351.5 85.5 c 132,-1,19
 380 112 380 112 380 161 c 5,20,-1
 461 161 l 5,21,22
 461 84 461 84 407 36 c 4,23,24
 354 -11 354 -11 268 -11 c 4,25,26
 177 -11 177 -11 113.5 58 c 132,-1,27
 50 127 50 127 50 241 c 4,0,1
EndSplineSet
Validated: 1
EndChar
StartChar: d
Encoding: 100 100 15
Width: 594
Flags: W
LayerCount: 2
Fore
SplineSet
60 241 m 128,-1,1
 60 353 60 353 121 422 c 0,2,3
 181 490 181 490 274 490 c 0,4,5
 366 490 366 490 414 407 c 1,6,-1
 414 681 l 1,7,-1
 492 681 l 1,8,-1
 492 0 l 1,9,-1
 428 0 l 1,10,-1
 418 80 l 1,11,12
 395 35 395 35 357 12 c 128,-1,13
 319 -11 319 -11 274 -11 c 0,14,15
 183 -11 183 -11 121.5 59 c 128,-1,0
 60 129 60 129 60 241 c 128,-1,1
141 240 m 0,16,17
 141 157 141 157 181 108 c 128,-1,18
 221 59 221 59 277 59 c 128,-1,19
 333 59 333 59 373 96 c 0,20,21
 412 134 412 134 414 197 c 1,22,-1
 414 275 l 2,23,24
 414 342 414 342 375 381 c 128,-1,25
 336 420 336 420 278 420 c 128,-1,26
 220 420 220 420 180.5 371 c 128,-1,27
 141 322 141 322 141 240 c 0,16,17
EndSplineSet
Validated: 1
EndChar
StartChar: e
Encoding: 101 101 16
Width: 515
Flags: W
LayerCount: 2
Fore
SplineSet
50 239.885 m 128,-1,1
 50 354.138 50 354.138 110.615 422.069 c 128,-1,2
 171.231 490 171.231 490 271.642 490 c 128,-1,3
 372.054 490 372.054 490 421.453 412.223 c 128,-1,4
 470.851 334.447 470.851 334.447 456 222 c 1,5,-1
 129 222 l 1,6,7
 129 147.824 129 147.824 164.822 100.412 c 128,-1,8
 200.644 53 200.644 53 266 53 c 4,9,10
 365.159 53 365.159 53 379 140 c 1,11,-1
 460 140 l 1,12,13
 449 68 449 68 396.5 28.5 c 128,-1,14
 344 -11 344 -11 266 -11 c 0,15,16
 169.815 -11 169.815 -11 109.908 57.3158 c 128,-1,0
 50 125.632 50 125.632 50 239.885 c 128,-1,1
130 282 m 1,17,-1
 385 282 l 1,18,19
 385 382.2 385 382.2 323.5 415 c 0,20,21
 301 427 301 427 268.5 427 c 0,22,23
 206.55 427 206.55 427 171.388 385.633 c 128,-1,24
 136.227 344.267 136.227 344.267 130 282 c 1,17,-1
EndSplineSet
EndChar
StartChar: f
Encoding: 102 102 17
Width: 343
Flags: W
LayerCount: 2
Fore
SplineSet
49 424 m 5,0,-1
 49 478 l 5,1,-1
 128 478 l 5,2,-1
 128 551 l 6,3,4
 128 622 128 622 167 655.5 c 132,-1,5
 206 689 206 689 257 689 c 132,-1,6
 308 689 308 689 347 676 c 5,7,-1
 333 614 l 5,8,9
 300.5 627 300.5 627 281.25 627 c 4,10,11
 246.235 627 246.235 627 226.118 609.9 c 132,-1,12
 206 592.8 206 592.8 206 550 c 6,13,-1
 206 478 l 5,14,-1
 305 478 l 5,15,-1
 305 424 l 5,16,-1
 206 424 l 5,17,-1
 206 0 l 5,18,-1
 128 0 l 5,19,-1
 128 424 l 5,20,-1
 49 424 l 5,0,-1
EndSplineSet
EndChar
StartChar: g
Encoding: 103 103 18
Width: 565
Flags: W
LayerCount: 2
Back
Fore
SplineSet
121 15 m 1,0,1
 61 43.9655 61 43.9655 61 104.5 c 0,2,3
 61 135 61 135 84.5 158.5 c 128,-1,4
 108 182 108 182 143 190 c 1,5,6
 89 237.769 89 237.769 89 316 c 128,-1,7
 89 394.038 89 394.038 144.444 442.019 c 128,-1,8
 199.889 490 199.889 490 275.974 490 c 128,-1,9
 352.059 490 352.059 490 405 454 c 1,10,11
 412 507 412 507 447.5 539 c 128,-1,12
 483 571 483 571 541 571 c 1,13,-1
 534 493 l 1,14,15
 445.895 493 445.895 493 442 419 c 1,16,17
 477 375.765 477 375.765 477 316 c 0,18,19
 477 238.604 477 238.604 421.404 189.302 c 128,-1,20
 365.809 140 365.809 140 283 140 c 0,21,22
 226 140 226 140 182 163 c 1,23,24
 162 159 162 159 146 144.5 c 128,-1,25
 130 130 130 130 130 105 c 0,26,27
 130 52 130 52 218 52 c 2,28,-1
 404 52 l 2,29,30
 471 52 471 52 510 23.5 c 128,-1,31
 549 -5 549 -5 549 -56 c 0,32,33
 549 -131.5 549 -131.5 472.667 -188.75 c 128,-1,34
 396.333 -246 396.333 -246 279.106 -246 c 128,-1,35
 161.878 -246 161.878 -246 94.939 -202.437 c 128,-1,36
 28 -158.873 28 -158.873 28 -93 c 0,37,38
 28 -50 28 -50 53.5 -23 c 128,-1,39
 79 4 79 4 121 15 c 1,0,1
106 -90 m 128,-1,41
 106 -128 106 -128 147.5 -155.5 c 128,-1,42
 189 -183 189 -183 273.412 -183 c 128,-1,43
 357.824 -183 357.824 -183 414.412 -146.698 c 128,-1,44
 471 -110.396 471 -110.396 471 -61 c 0,45,46
 471 -38 471 -38 454.5 -21.5 c 128,-1,47
 438 -5 438 -5 404 -5 c 2,48,-1
 211 -5 l 1,49,50
 160 -7 160 -7 133 -29.5 c 128,-1,40
 106 -52 106 -52 106 -90 c 128,-1,41
369 400.5 m 128,-1,52
 338 433 338 433 283.5 433 c 128,-1,53
 229 433 229 433 198 400.5 c 128,-1,54
 167 368 167 368 167 316 c 128,-1,55
 167 264 167 264 198.5 230.5 c 128,-1,56
 230 197 230 197 284 197 c 128,-1,57
 338 197 338 197 369 231 c 128,-1,58
 400 265 400 265 400 316.5 c 128,-1,51
 400 368 400 368 369 400.5 c 128,-1,52
EndSplineSet
EndChar
StartChar: h
Encoding: 104 104 19
Width: 604
Flags: W
LayerCount: 2
Fore
SplineSet
101 0 m 1,0,-1
 101 681 l 1,1,-1
 180 681 l 1,2,-1
 180 390 l 1,3,4
 227.917 490 227.917 490 339 490 c 0,5,6
 424 490 424 490 471.5 434 c 128,-1,7
 519 378 519 378 519 281 c 2,8,-1
 519 0 l 1,9,-1
 441 0 l 1,10,-1
 441 281 l 2,11,12
 441 350 441 350 408.5 385 c 128,-1,13
 376 420 376 420 315 420 c 128,-1,14
 254 420 254 420 217 368.5 c 128,-1,15
 180 317 180 317 180 226 c 2,16,-1
 180 0 l 1,17,-1
 101 0 l 1,0,-1
EndSplineSet
EndChar
StartChar: i
Encoding: 105 105 20
Width: 299
Flags: W
LayerCount: 2
Fore
SplineSet
106 479 m 1,0,-1
 185 479 l 1,1,-1
 185 0 l 1,2,-1
 106 0 l 1,3,-1
 106 479 l 1,0,-1
107.5 604.5 m 128,-1,5
 94 618 94 618 94 640.5 c 128,-1,6
 94 663 94 663 107.5 676.5 c 128,-1,7
 121 690 121 690 145 690 c 128,-1,8
 169 690 169 690 183.5 676.5 c 128,-1,9
 198 663 198 663 198 640.5 c 128,-1,10
 198 618 198 618 183.5 604.5 c 128,-1,11
 169 591 169 591 145 591 c 128,-1,4
 121 591 121 591 107.5 604.5 c 128,-1,5
EndSplineSet
Validated: 1
EndChar
StartChar: j
Encoding: 106 106 21
Width: 314
Flags: W
LayerCount: 2
Fore
SplineSet
-86 -209 m 1,8,-1
 -82 -140 l 1,9,10
 -18.8824 -177 -18.8824 -177 33 -177 c 0,11,12
 121 -177 121 -177 121 -67 c 2,13,-1
 121 480 l 1,14,-1
 200 480 l 1,15,-1
 200 -67 l 2,16,17
 200 -203.857 200 -203.857 110 -236 c 0,18,19
 82 -246 82 -246 48 -246 c 0,20,21
 -14.0556 -246 -14.0556 -246 -86 -209 c 1,8,-1
109 640.5 m 132,-1,1
 109 663 109 663 122.5 676.5 c 132,-1,2
 136 690 136 690 160 690 c 132,-1,3
 184 690 184 690 198.5 676.5 c 132,-1,4
 213 663 213 663 213 640.5 c 132,-1,5
 213 618 213 618 198.5 604.5 c 132,-1,6
 184 591 184 591 160 591 c 132,-1,7
 136 591 136 591 122.5 604.5 c 132,-1,0
 109 618 109 618 109 640.5 c 132,-1,1
EndSplineSet
EndChar
StartChar: k
Encoding: 107 107 22
Width: 564
Flags: W
LayerCount: 2
Back
Fore
SplineSet
244 253 m 1,0,-1
 180 201 l 1,1,-1
 180 0 l 1,2,-1
 101 0 l 1,3,-1
 101 681 l 1,4,-1
 180 681 l 1,5,-1
 180 285 l 1,6,-1
 411 478 l 1,7,-1
 521 478 l 1,8,-1
 301 299 l 1,9,-1
 532 0 l 1,10,-1
 435 0 l 1,11,-1
 244 253 l 1,0,-1
EndSplineSet
Validated: 1
EndChar
StartChar: l
Encoding: 108 108 23
Width: 280
Flags: W
LayerCount: 2
Back
Fore
SplineSet
101 681 m 5,0,-1
 180 681 l 5,1,-1
 180 0 l 5,2,-1
 101 0 l 5,3,-1
 101 681 l 5,0,-1
EndSplineSet
Validated: 1
EndChar
StartChar: m
Encoding: 109 109 24
Width: 935
Flags: W
LayerCount: 2
Back
Fore
SplineSet
177 386 m 1,0,1
 223.902 490 223.902 490 338 490 c 0,2,3
 400 490 400 490 442 459.5 c 128,-1,4
 484 429 484 429 503 375 c 1,5,6
 548 490 548 490 670 490 c 0,7,8
 756 490 756 490 803 434 c 128,-1,9
 850 378 850 378 850 281 c 2,10,-1
 850 0 l 1,11,-1
 772 0 l 1,12,-1
 772 281 l 2,13,14
 772 350 772 350 739.5 385 c 128,-1,15
 707 420 707 420 646 420 c 128,-1,16
 585 420 585 420 551.5 370 c 128,-1,17
 518 320 518 320 518 232 c 2,18,-1
 518 0 l 1,19,-1
 440 0 l 1,20,-1
 440 281 l 2,21,22
 440 350 440 350 407.5 385 c 128,-1,23
 375 420 375 420 315 420 c 128,-1,24
 255 420 255 420 218 371 c 128,-1,25
 181 322 181 322 179 235 c 1,26,-1
 179 0 l 1,27,-1
 100 0 l 1,28,-1
 100 478 l 1,29,-1
 168 478 l 1,30,-1
 177 386 l 1,0,1
EndSplineSet
EndChar
StartChar: n
Encoding: 110 110 25
Width: 603
Flags: W
LayerCount: 2
Fore
SplineSet
100 0 m 1,0,-1
 100 478 l 1,1,-1
 168 478 l 1,2,-1
 177 386 l 1,3,4
 224 490 224 490 338 490 c 0,5,6
 423 490 423 490 470.5 434 c 128,-1,7
 518 378 518 378 518 281 c 2,8,-1
 518 0 l 1,9,-1
 440 0 l 1,10,-1
 440 281 l 2,11,12
 440 350 440 350 407.5 385 c 128,-1,13
 375 420 375 420 315 420 c 128,-1,14
 255 420 255 420 218 371 c 128,-1,15
 181 322 181 322 179 235 c 1,16,-1
 179 0 l 1,17,-1
 100 0 l 1,0,-1
EndSplineSet
Validated: 1
EndChar
StartChar: o
Encoding: 111 111 26
Width: 546
Flags: W
LayerCount: 2
Fore
SplineSet
50 239 m 0,0,1
 50 360 50 360 111.5 425 c 128,-1,2
 173 490 173 490 273 490 c 128,-1,3
 373 490 373 490 434.5 425 c 128,-1,4
 496 360 496 360 496 239 c 0,5,6
 496 119 496 119 434.5 54 c 128,-1,7
 373 -11 373 -11 273 -11 c 132,-1,8
 173 -11 173 -11 111.5 54 c 128,-1,9
 50 119 50 119 50 239 c 0,0,1
131 239.5 m 128,-1,11
 131 154 131 154 166 105.5 c 128,-1,12
 201 57 201 57 270.5 57 c 128,-1,13
 340 57 340 57 378 105.5 c 128,-1,14
 416 154 416 154 416 239.5 c 128,-1,15
 416 325 416 325 380 373.5 c 128,-1,16
 344 422 344 422 274.5 422 c 128,-1,17
 205 422 205 422 168 373.5 c 128,-1,10
 131 325 131 325 131 239.5 c 128,-1,11
EndSplineSet
Validated: 1
EndChar
StartChar: p
Encoding: 112 112 27
Width: 594
Flags: W
LayerCount: 2
Fore
SplineSet
175 405 m 1,0,1
 221.548 490 221.548 490 315.343 490 c 128,-1,2
 409.138 490 409.138 490 471.569 421.22 c 128,-1,3
 534 352.441 534 352.441 534 239.179 c 128,-1,4
 534 125.917 534 125.917 470.808 57.4583 c 128,-1,5
 407.615 -11 407.615 -11 315.808 -11 c 128,-1,6
 224 -11 224 -11 180 58 c 1,7,-1
 180 -235 l 1,8,-1
 101 -235 l 1,9,-1
 101 478 l 1,10,-1
 166 478 l 1,11,-1
 175 405 l 1,0,1
410.25 106.963 m 128,-1,13
 453 154.927 453 154.927 453 238.707 c 128,-1,14
 453 322.487 453 322.487 412.543 371.244 c 128,-1,15
 372.085 420 372.085 420 314.285 420 c 128,-1,16
 256.486 420 256.486 420 219.19 383.74 c 128,-1,17
 181.893 347.48 181.893 347.48 180 285 c 1,18,-1
 180 194 l 2,19,20
 180 130.833 180 130.833 218.029 94.9167 c 128,-1,21
 256.059 59 256.059 59 311.779 59 c 128,-1,12
 367.5 59 367.5 59 410.25 106.963 c 128,-1,13
EndSplineSet
EndChar
StartChar: q
Encoding: 113 113 28
Width: 584
Flags: W
LayerCount: 2
Back
SplineSet
264 490 m 0,0,1
 366 490 366 490 412 400 c 1,2,-1
 429 479 l 1,3,-1
 483 479 l 1,4,-1
 483 -81 l 2,5,6
 483 -130 483 -130 494.5 -146.5 c 128,-1,8
 506 -163 506 -163 520.5 -170.5 c 128,-1,10
 535 -178 535 -178 556 -185 c 1,11,-1
 530 -246 l 1,12,13
 462 -228 462 -228 433.5 -189 c 128,-1,15
 405 -150 405 -150 405 -76 c 2,16,-1
 405 76 l 1,17,18
 364 -11 364 -11 270.5 -11 c 0,19,20
 172 -11 172 -11 111.5 60.5 c 128
 51 132 51 132 51 239 c 0,21,22
 51 344 51 344 110.5 417 c 128
 170 490 170 490 264 490 c 0,0,1
132 238.5 m 0,23,24
 132 164 132 164 171.5 110.5 c 128
 211 57 211 57 275 57 c 0,25,26
 329 57 329 57 366 93 c 128
 403 129 403 129 405 187 c 2,27,-1
 405 278 l 2,28,29
 405 341 405 341 368 381.5 c 128
 331 422 331 422 271 422 c 0,30,31
 207 422 207 422 169.5 368 c 128
 132 314 132 314 132 238.5 c 0,23,24
EndSplineSet
Fore
SplineSet
405 76 m 1,0,1
 363.571 -11 363.571 -11 270.478 -11 c 128,-1,2
 177.385 -11 177.385 -11 114.192 57.4583 c 128,-1,3
 51 125.917 51 125.917 51 239.179 c 128,-1,4
 51 352.441 51 352.441 113.431 421.22 c 128,-1,5
 175.862 490 175.862 490 264 490 c 0,6,7
 366 490 366 490 412 400 c 1,8,-1
 429 478 l 1,9,-1
 483 478 l 1,10,-1
 483 -235 l 1,11,-1
 405 -235 l 1,12,-1
 405 76 l 1,0,1
172.457 371.244 m 128,-1,14
 132 322.487 132 322.487 132 238.707 c 128,-1,15
 132 154.927 132 154.927 174.75 106.963 c 128,-1,16
 217.5 59 217.5 59 275 59 c 0,17,18
 357.021 59 357.021 59 392.5 131.5 c 0,19,20
 404 155 404 155 405 187 c 1,21,-1
 405 278 l 2,22,23
 405 344 405 344 367 382 c 128,-1,24
 329 420 329 420 270.957 420 c 128,-1,13
 212.915 420 212.915 420 172.457 371.244 c 128,-1,14
EndSplineSet
Validated: 1
EndChar
StartChar: r
Encoding: 114 114 29
Width: 381
Flags: W
LayerCount: 2
Back
Fore
SplineSet
296 411 m 0,0,1
 183.341 411 183.341 411 179 233 c 1,2,-1
 179 0 l 1,3,-1
 100 0 l 1,4,-1
 100 479 l 1,5,-1
 179 479 l 1,6,-1
 179 387 l 1,7,8
 215 487 215 487 306 487 c 0,9,10
 335 487 335 487 361 478 c 1,11,-1
 357 401 l 1,12,13
 327 411 327 411 296 411 c 0,0,1
EndSplineSet
Validated: 524289
EndChar
StartChar: s
Encoding: 115 115 30
Width: 526
Flags: W
LayerCount: 2
Fore
SplineSet
126.5 455 m 128,-1,1
 177 490 177 490 263 490 c 128,-1,2
 349 490 349 490 397.5 454 c 128,-1,3
 446 418 446 418 448 363 c 1,4,-1
 371 363 l 1,5,6
 362 428 362 428 261 428 c 0,7,8
 212 428 212 428 185.5 406 c 128,-1,9
 159 384 159 384 159 358.5 c 128,-1,10
 159 333 159 333 179 315.5 c 128,-1,11
 199 298 199 298 243 285 c 1,12,-1
 339 253 l 1,13,14
 400 234 400 234 432.5 204.5 c 128,-1,15
 465 175 465 175 465 123.53 c 128,-1,16
 465 72.06 465 72.06 411.756 30.53 c 128,-1,17
 358.513 -11 358.513 -11 263.756 -11 c 128,-1,18
 169 -11 169 -11 116 31.5 c 128,-1,19
 63 74 63 74 60 141 c 1,20,-1
 136 141 l 1,21,22
 138 96 138 96 172.5 73.5 c 128,-1,23
 207 51 207 51 259.2 51 c 128,-1,24
 311.4 51 311.4 51 345.2 72.8064 c 128,-1,25
 379 94.6129 379 94.6129 379 125.306 c 128,-1,26
 379 156 379 156 359 172 c 128,-1,27
 339 188 339 188 294 200 c 1,28,-1
 201 231 l 1,29,30
 76 268 76 268 76 361 c 0,31,0
 76 420 76 420 126.5 455 c 128,-1,1
EndSplineSet
EndChar
StartChar: t
Encoding: 116 116 31
Width: 376
Flags: W
LayerCount: 2
Fore
SplineSet
34 418 m 1,0,-1
 34 478 l 1,1,-1
 111 478 l 1,2,-1
 111 611 l 1,3,-1
 189 611 l 1,4,-1
 189 478 l 1,5,-1
 339 478 l 1,6,-1
 339 418 l 1,7,-1
 189 418 l 1,8,-1
 189 125 l 2,9,10
 189 52 189 52 257 52 c 0,11,12
 294 52 294 52 340 70 c 1,13,-1
 351 14 l 1,14,15
 296 -11 296 -11 248 -11 c 0,16,17
 220 -11 220 -11 194 -3 c 0,18,19
 144 13 144 13 122 64 c 0,20,21
 112 89 112 89 111 124 c 2,22,-1
 111 418 l 1,23,-1
 34 418 l 1,0,-1
EndSplineSet
Validated: 1
EndChar
StartChar: u
Encoding: 117 117 32
Width: 606
Flags: W
LayerCount: 2
Back
SplineSet
426 94 m 1,0,1
 377 -11 377 -11 267 -11 c 0,2,3
 187.1 -11 187.1 -11 136.5 35 c 0,4,5
 87 80 87 80 87 174 c 2,6,-1
 87 479 l 1,7,-1
 166 479 l 1,8,-1
 166 180 l 2,9,10
 166 57 166 57 278 57 c 0,11,12
 341.379588668 57 341.379588668 57 383.5 109 c 0,13,14
 424 158.999511718 424 158.999511718 426 237 c 2,15,-1
 426 479 l 1,16,-1
 505 479 l 1,17,-1
 505 0 l 1,18,-1
 426 0 l 1,19,-1
 426 94 l 1,0,1
EndSplineSet
Fore
SplineSet
426 95 m 1,0,1
 377.059 -9 377.059 -9 267 -9 c 0,2,3
 186 -9 186 -9 136.5 36 c 128,-1,4
 87 81 87 81 87 175 c 2,5,-1
 87 479 l 1,6,-1
 166 479 l 1,7,-1
 166 181 l 2,8,9
 166 60 166 60 278 60 c 0,10,11
 342.875 60 342.875 60 383.5 110 c 128,-1,12
 423.996 159.841 423.996 159.841 426 238 c 1,13,-1
 426 479 l 1,14,-1
 505 479 l 1,15,-1
 505 0 l 1,16,-1
 426 0 l 1,17,-1
 426 95 l 1,0,1
EndSplineSet
Validated: 1
EndChar
StartChar: v
Encoding: 118 118 33
Width: 503
Flags: W
LayerCount: 2
Fore
SplineSet
107 478 m 1,0,-1
 251 83 l 1,1,-1
 396 478 l 1,2,-1
 485 478 l 1,3,-1
 295 0 l 1,4,-1
 208 0 l 1,5,-1
 18 478 l 1,6,-1
 107 478 l 1,0,-1
EndSplineSet
Validated: 1
EndChar
StartChar: w
Encoding: 119 119 34
Width: 725
Flags: W
LayerCount: 2
Back
Fore
SplineSet
100 478 m 1,0,-1
 216 97 l 1,1,-1
 330 455 l 1,2,-1
 396 455 l 1,3,-1
 509 93 l 1,4,-1
 626 478 l 1,5,-1
 704 478 l 1,6,-1
 548 0 l 1,7,-1
 471 0 l 1,8,-1
 361 335 l 1,9,-1
 253 0 l 1,10,-1
 177 0 l 1,11,-1
 18 478 l 1,12,-1
 100 478 l 1,0,-1
EndSplineSet
Validated: 1
EndChar
StartChar: x
Encoding: 120 120 35
Width: 512
Flags: W
LayerCount: 2
Back
Fore
SplineSet
485 0 m 1,0,-1
 389 0 l 1,1,-1
 252 181 l 1,2,-1
 122 0 l 1,3,-1
 26 0 l 1,4,-1
 207 239 l 1,5,-1
 26 479 l 1,6,-1
 122 479 l 1,7,-1
 259 299 l 1,8,-1
 390 479 l 1,9,-1
 486 479 l 1,10,-1
 303 239 l 1,11,-1
 485 0 l 1,0,-1
EndSplineSet
Validated: 1
EndChar
StartChar: y
Encoding: 121 121 36
Width: 484
Flags: W
LayerCount: 2
Fore
SplineSet
5 -139 m 1,0,1
 54.4 -177 54.4 -177 108 -177 c 0,2,3
 148.111 -177 148.111 -177 177 -137 c 0,4,5
 197.688 -108.355 197.688 -108.355 215 -49 c 2,6,-1
 229 0 l 1,7,-1
 33 478 l 1,8,-1
 121 478 l 1,9,-1
 266 97 l 1,10,-1
 379 478 l 1,11,-1
 459 478 l 1,12,-1
 280 -95 l 2,13,14
 257 -168 257 -168 219.5 -207 c 128,-1,15
 182 -246 182 -246 124.382 -246 c 128,-1,16
 66.7647 -246 66.7647 -246 5 -211 c 1,17,-1
 5 -139 l 1,0,1
EndSplineSet
Validated: 1
EndChar
StartChar: z
Encoding: 122 122 37
Width: 475
Flags: W
LayerCount: 2
Fore
SplineSet
53 64 m 1,0,-1
 334 414 l 1,1,-1
 53 414 l 1,2,-1
 53 478 l 1,3,-1
 423 478 l 1,4,-1
 423 414 l 1,5,-1
 146 64 l 1,6,-1
 423 64 l 1,7,-1
 423 0 l 1,8,-1
 53 0 l 1,9,-1
 53 64 l 1,0,-1
EndSplineSet
EndChar
StartChar: braceleft
Encoding: 123 123 158
Width: 349
Flags: W
LayerCount: 2
Back
Fore
SplineSet
154 303 m 1,0,1
 206 278.13 206 278.13 206 190 c 2,2,-1
 206 97 l 2,3,4
 206 16 206 16 236.5 -26.5 c 128,-1,5
 267 -69 267 -69 341 -69 c 1,6,-1
 341 -138 l 1,7,8
 128 -138 128 -138 128 96 c 2,9,-1
 128 188 l 2,10,11
 128 231 128 231 119.5 249 c 128,-1,12
 111 267 111 267 92 267 c 2,13,-1
 75 267 l 1,14,-1
 75 343 l 1,15,-1
 92 343 l 2,16,17
 111 343 111 343 119.5 360.5 c 128,-1,18
 128 378 128 378 128 422 c 2,19,-1
 128 513 l 2,20,21
 128 681.457 128 681.457 241.5 730.5 c 0,22,23
 282 748 282 748 341 748 c 1,24,-1
 341 679 l 1,25,26
 267 679 267 679 236.5 636.5 c 128,-1,27
 206 594 206 594 206 512 c 2,28,-1
 206 420 l 2,29,30
 206 334.13 206 334.13 154 307 c 1,31,-1
 154 303 l 1,0,1
EndSplineSet
Validated: 1
EndChar
StartChar: bar
Encoding: 124 124 153
Width: 280
Flags: W
LayerCount: 2
Fore
SplineSet
101 750 m 5,0,-1
 180 750 l 5,1,-1
 180 -122 l 5,2,-1
 101 -122 l 5,3,-1
 101 750 l 5,0,-1
EndSplineSet
Validated: 1
EndChar
StartChar: braceright
Encoding: 125 125 159
Width: 349
Flags: W
LayerCount: 2
Fore
SplineSet
8 -69 m 1,0,1
 82 -69 82 -69 112.5 -26.5 c 128,-1,2
 143 16 143 16 143 97 c 2,3,-1
 143 190 l 2,4,5
 143 278.13 143 278.13 195 303 c 1,6,-1
 195 307 l 1,7,8
 143 334.13 143 334.13 143 420 c 2,9,-1
 143 512 l 2,10,11
 143 594 143 594 112.5 636.5 c 128,-1,12
 82 679 82 679 8 679 c 1,13,-1
 8 748 l 1,14,15
 221 748 221 748 221 513 c 2,16,-1
 221 422 l 2,17,18
 221 378 221 378 229.5 360.5 c 128,-1,19
 238 343 238 343 257 343 c 2,20,-1
 274 343 l 1,21,-1
 274 267 l 1,22,-1
 257 267 l 2,23,24
 238 267 238 267 229.5 249 c 128,-1,25
 221 231 221 231 221 188 c 2,26,-1
 221 96 l 2,27,28
 221 -71.8415 221 -71.8415 107 -120.5 c 0,29,30
 66 -138 66 -138 8 -138 c 1,31,-1
 8 -69 l 1,0,1
EndSplineSet
EndChar
StartChar: asciitilde
Encoding: 126 126 160
Width: 515
Flags: W
LayerCount: 2
Fore
SplineSet
53 246 m 1,0,1
 85.8889 357 85.8889 357 160 357 c 0,2,3
 194.5 357 194.5 357 261.062 329.5 c 128,-1,4
 327.625 302 327.625 302 354 302 c 0,5,6
 394 302 394 302 419 359 c 1,7,-1
 462 332 l 1,8,9
 426.667 226 426.667 226 349 226 c 0,10,11
 326 226 326 226 278 244 c 128,-1,12
 230 262 230 262 215.5 267.5 c 0,13,14
 177.273 282 177.273 282 158 282 c 0,15,16
 120.969 282 120.969 282 97 223 c 1,17,-1
 53 246 l 1,0,1
EndSplineSet
EndChar
StartChar: sterling
Encoding: 275 163 95
Width: 565
Flags: W
LayerCount: 2
Fore
SplineSet
400 490 m 1,0,1
 384 568 384 568 298 568 c 0,2,3
 256 568 256 568 227.5 536 c 128,-1,4
 199 504 199 504 199 432 c 2,5,-1
 199 323 l 1,6,-1
 381 323 l 1,7,-1
 381 267 l 1,8,-1
 199 267 l 1,9,-1
 199 163 l 2,10,11
 199 94.9 199 94.9 162 69 c 1,12,-1
 345 69 l 2,13,14
 394 69 394 69 416.5 89.5 c 128,-1,15
 439 110 439 110 445 154 c 1,16,-1
 529 154 l 1,17,18
 522.616 77.3866 522.616 77.3866 481.02 38.6933 c 128,-1,19
 439.425 1.06581e-014 439.425 1.06581e-014 345 0 c 2,20,-1
 20 0 l 1,21,-1
 20 69 l 1,22,-1
 48 69 l 2,23,24
 86 69 86 69 103.5 91 c 128,-1,25
 121 113 121 113 121 159 c 2,26,-1
 121 267 l 1,27,-1
 30 267 l 1,28,-1
 30 323 l 1,29,-1
 121 323 l 1,30,-1
 121 432 l 2,31,32
 121 531 121 531 167.5 585.5 c 128,-1,33
 214 640 214 640 305 640 c 0,34,35
 376 640 376 640 421 602 c 128,-1,36
 466 564 466 564 477 490 c 1,37,-1
 400 490 l 1,0,1
EndSplineSet
Validated: 1
EndChar
StartChar: yen
Encoding: 165 165 300
Width: 549
Flags: W
LayerCount: 2
Back
Fore
SplineSet
74 255 m 1,0,-1
 477 255 l 1,1,-1
 477 180 l 1,2,-1
 74 180 l 1,3,-1
 74 255 l 1,0,-1
57 404 m 1,4,-1
 174 404 l 1,5,-1
 274 332 l 1,6,-1
 358 404 l 1,7,-1
 492 404 l 1,8,-1
 492 329 l 1,9,-1
 57 329 l 1,10,-1
 57 404 l 1,4,-1
104 629 m 1,11,-1
 273 340 l 1,12,-1
 446 629 l 1,13,-1
 539 629 l 1,14,-1
 313 258 l 1,15,-1
 313 0 l 1,16,-1
 233 0 l 1,17,-1
 233 258 l 1,18,-1
 10 629 l 1,19,-1
 104 629 l 1,11,-1
EndSplineSet
EndChar
StartChar: dieresis
Encoding: 306 168 129
Width: 323
Flags: W
LayerCount: 2
Fore
SplineSet
38.5 793.5 m 128,-1,1
 24 808 24 808 24 829 c 128,-1,2
 24 850 24 850 38.5 864.5 c 128,-1,3
 53 879 53 879 76 879 c 128,-1,4
 99 879 99 879 114.5 864.5 c 128,-1,5
 130 850 130 850 130 829 c 128,-1,6
 130 808 130 808 114.5 793.5 c 128,-1,7
 99 779 99 779 76 779 c 128,-1,0
 53 779 53 779 38.5 793.5 c 128,-1,1
207 793.5 m 128,-1,9
 192 808 192 808 192 829 c 128,-1,10
 192 850 192 850 207 864.5 c 128,-1,11
 222 879 222 879 244.5 879 c 128,-1,12
 267 879 267 879 282.5 864.5 c 128,-1,13
 298 850 298 850 298 829 c 128,-1,14
 298 808 298 808 282.5 793.5 c 128,-1,15
 267 779 267 779 244.5 779 c 128,-1,8
 222 779 222 779 207 793.5 c 128,-1,9
EndSplineSet
Validated: 1
EndChar
StartChar: copyright
Encoding: 462 169 301
Width: 753
Flags: W
LayerCount: 2
Fore
SplineSet
720.306640625 340.685546875 m 0,0,1
 720.306640625 198.05078125 720.306640625 198.05078125 619.03515625 96.779296875 c 0,2,3
 517.763671875 -4.4921875 517.763671875 -4.4921875 375.12890625 -4.4921875 c 0,4,5
 232.494140625 -4.4921875 232.494140625 -4.4921875 131.223632812 96.779296875 c 0,6,7
 29.9521484375 198.05078125 29.9521484375 198.05078125 29.9521484375 340.685546875 c 0,8,9
 29.9521484375 484.745117188 29.9521484375 484.745117188 131.223632812 584.591796875 c 0,10,11
 232.494140625 684.4375 232.494140625 684.4375 375.12890625 684.4375 c 0,12,13
 516.338867188 684.4375 516.338867188 684.4375 618.322265625 583.87890625 c 0,14,15
 720.306640625 483.321289062 720.306640625 483.321289062 720.306640625 340.685546875 c 0,0,1
676.780273438 342.971679688 m 0,16,17
 677 468 677 468 589.494140625 555.596679688 c 0,18,19
 502 643 502 643 376.869140625 642.885742188 c 0,20,21
 249 643 249 643 162.005859375 555.596679688 c 0,22,23
 75 469 75 469 74.7197265625 342.971679688 c 0,24,25
 74 219 74 219 159.770507812 128.110351562 c 0,26,27
 246 36 246 36 376.869140625 36.3447265625 c 0,28,29
 507 37 507 37 591.732421875 126.991210938 c 0,30,31
 677 218 677 218 676.780273438 342.971679688 c 0,16,17
EndSplineSet
Refer: 14 99 S 0.88 0 0 0.88 140.72 126.04 2
EndChar
StartChar: guillemotleft
Encoding: 345 171 184
Width: 464
Flags: W
LayerCount: 2
Fore
SplineSet
30 233 m 1,0,-1
 176 429 l 1,1,-1
 261 429 l 1,2,-1
 123 233 l 1,3,-1
 261 37 l 1,4,-1
 176 37 l 1,5,-1
 30 233 l 1,0,-1
203 233 m 1,6,-1
 349 429 l 1,7,-1
 434 429 l 1,8,-1
 296 233 l 1,9,-1
 434 37 l 1,10,-1
 349 37 l 1,11,-1
 203 233 l 1,6,-1
EndSplineSet
Validated: 1
EndChar
StartChar: registered
Encoding: 174 174 302
Width: 765
Flags: W
LayerCount: 2
Back
SplineSet
569.5 323 m 132,-1,1
 528 275 528 275 447 261 c 5,2,-1
 627 0 l 5,3,-1
 525 0 l 5,4,-1
 362 257 l 5,5,-1
 252 257 l 5,6,-1
 252 0 l 5,7,-1
 173 0 l 5,8,-1
 173 629 l 5,9,-1
 392 629 l 6,10,11
 498.299804688 629 498.299804688 629 554.650390625 577.7734375 c 132,-1,12
 611 526.544921875 611 526.544921875 611 448.7734375 c 132,-1,0
 611 371 611 371 569.5 323 c 132,-1,1
386 312 m 6,13,14
 457 312 457 312 493.5 346.5 c 132,-1,15
 530 381 530 381 530 437.5 c 132,-1,16
 530 494 530 494 494.5 527.5 c 132,-1,17
 459 561 459 561 392 561 c 6,18,-1
 252 561 l 5,19,-1
 252 312 l 5,20,-1
 386 312 l 6,13,14
EndSplineSet
Fore
SplineSet
724.306640625 340.685546875 m 0
 724.306640625 198.05078125 724.306640625 198.05078125 623.03515625 96.779296875 c 0
 521.763671875 -4.4921875 521.763671875 -4.4921875 379.12890625 -4.4921875 c 0
 236.494140625 -4.4921875 236.494140625 -4.4921875 135.223632812 96.779296875 c 0
 33.9521484375 198.05078125 33.9521484375 198.05078125 33.9521484375 340.685546875 c 0
 33.9521484375 484.745117188 33.9521484375 484.745117188 135.223632812 584.591796875 c 0
 236.494140625 684.4375 236.494140625 684.4375 379.12890625 684.4375 c 0
 520.338867188 684.4375 520.338867188 684.4375 622.322265625 583.87890625 c 0
 724.306640625 483.321289062 724.306640625 483.321289062 724.306640625 340.685546875 c 0
680.780273438 342.971679688 m 0
 681 468 681 468 593.494140625 555.596679688 c 0
 506 643 506 643 380.869140625 642.885742188 c 0
 253 643 253 643 166.005859375 555.596679688 c 0
 79 469 79 469 78.7197265625 342.971679688 c 0
 78 219 78 219 163.770507812 128.110351562 c 0
 250 36 250 36 380.869140625 36.3447265625 c 0
 511 37 511 37 595.732421875 126.991210938 c 0
 681 218 681 218 680.780273438 342.971679688 c 0
EndSplineSet
Refer: 55 82 N 0.688656 0 0 0.685406 169.298 121.992 2
EndChar
StartChar: macron
Encoding: 175 175 204
Width: 373
Flags: W
LayerCount: 2
Back
Fore
SplineSet
21 874 m 5,0,-1
 354 874 l 5,1,-1
 354 800 l 5,2,-1
 21 800 l 5,3,-1
 21 874 l 5,0,-1
EndSplineSet
EndChar
StartChar: plusminus
Encoding: 597 177 516
Width: 527
Flags: W
LayerCount: 2
Fore
SplineSet
18 0 m 1,0,-1
 18 67 l 1,1,-1
 509 67 l 1,2,-1
 509 0 l 1,3,-1
 18 0 l 1,0,-1
18 332 m 1,4,-1
 18 399 l 1,5,-1
 224 399 l 1,6,-1
 224 611 l 1,7,-1
 303 611 l 1,8,-1
 303 399 l 1,9,-1
 509 399 l 1,10,-1
 509 332 l 1,11,-1
 303 332 l 1,12,-1
 303 120 l 1,13,-1
 224 120 l 1,14,-1
 224 332 l 1,15,-1
 18 332 l 1,4,-1
EndSplineSet
Validated: 1
EndChar
StartChar: acute
Encoding: 276 180 97
Width: 315
Flags: W
LayerCount: 2
Fore
SplineSet
23 727 m 1,0,-1
 258 860 l 1,1,-1
 290 790 l 1,2,-1
 46 677 l 1,3,-1
 23 727 l 1,0,-1
EndSplineSet
Validated: 1
EndChar
StartChar: cedilla
Encoding: 332 184 171
Width: 682
VWidth: 2048
Flags: W
LayerCount: 2
Fore
SplineSet
217.144 -135.837 m 1,0,1
 237.192 -138.292 237.192 -138.292 252.331 -138.292 c 0,2,3
 312.477 -138.292 312.477 -138.292 312.477 -105.15 c 0,4,5
 312.477 -73.6455 312.477 -73.6455 258.059 -73.6455 c 0,6,7
 240.466 -73.6455 240.466 -73.6455 234.737 -74.4639 c 1,8,-1
 261.332 0.000976562 l 1,9,-1
 305.111 0.000976562 l 1,10,-1
 289.154 -40.9141 l 1,11,12
 327.614 -42.1406 327.614 -42.1406 346.844 -58.7119 c 128,-1,13
 366.075 -75.2822 366.075 -75.2822 366.075 -103.513 c 0,14,15
 366.075 -177.57 366.075 -177.57 253.967 -177.57 c 0,16,17
 230.646 -177.57 230.646 -177.57 217.144 -175.933 c 1,18,-1
 217.144 -135.837 l 1,0,1
EndSplineSet
EndChar
StartChar: guillemotright
Encoding: 187 187 186
Width: 470
Flags: W
LayerCount: 2
Fore
SplineSet
293.5 429 m 1,0,-1
 208.5 429 l 1,1,-1
 346.5 233 l 1,2,-1
 208.5 37 l 1,3,-1
 293.5 37 l 1,4,-1
 439.5 233 l 1,5,-1
 293.5 429 l 1,0,-1
120.5 429 m 1,6,-1
 35.5 429 l 1,7,-1
 173.5 233 l 1,8,-1
 35.5 37 l 1,9,-1
 120.5 37 l 1,10,-1
 266.5 233 l 1,11,-1
 120.5 429 l 1,6,-1
EndSplineSet
EndChar
StartChar: Agrave
Encoding: 192 192 101
Width: 575
Flags: W
LayerCount: 2
Back
Fore
SplineSet
242 629 m 1,0,-1
 338 629 l 1,1,-1
 549 0 l 1,2,-1
 467 0 l 1,3,-1
 413 160 l 1,4,-1
 163 160 l 1,5,-1
 109 0 l 1,6,-1
 26 0 l 1,7,-1
 242 629 l 1,0,-1
184 222 m 1,8,-1
 393 222 l 1,9,-1
 289 532 l 1,10,-1
 184 222 l 1,8,-1
190 860 m 1,11,-1
 425 727 l 1,12,-1
 402 677 l 1,13,-1
 157 790 l 1,14,-1
 190 860 l 1,11,-1
EndSplineSet
Validated: 1
EndChar
StartChar: Aacute
Encoding: 193 193 108
Width: 575
Flags: W
LayerCount: 2
Back
Fore
SplineSet
242 629 m 1,0,-1
 338 629 l 1,1,-1
 549 0 l 1,2,-1
 467 0 l 1,3,-1
 413 160 l 1,4,-1
 163 160 l 1,5,-1
 109 0 l 1,6,-1
 26 0 l 1,7,-1
 242 629 l 1,0,-1
184 222 m 1,8,-1
 393 222 l 1,9,-1
 289 532 l 1,10,-1
 184 222 l 1,8,-1
423 790 m 1,11,-1
 179 677 l 1,12,-1
 156 727 l 1,13,-1
 391 860 l 1,14,-1
 423 790 l 1,11,-1
EndSplineSet
Validated: 1
EndChar
StartChar: Acircumflex
Encoding: 300 194 121
Width: 575
Flags: W
LayerCount: 2
Fore
SplineSet
242 629 m 1,0,-1
 338 629 l 1,1,-1
 549 0 l 1,2,-1
 467 0 l 1,3,-1
 413 160 l 1,4,-1
 163 160 l 1,5,-1
 109 0 l 1,6,-1
 26 0 l 1,7,-1
 242 629 l 1,0,-1
184 222 m 1,8,-1
 393 222 l 1,9,-1
 289 532 l 1,10,-1
 184 222 l 1,8,-1
469 716 m 1,11,-1
 419 677 l 1,12,-1
 290 785 l 1,13,-1
 160 677 l 1,14,-1
 110 716 l 1,15,-1
 290 872 l 1,16,-1
 469 716 l 1,11,-1
EndSplineSet
Validated: 1
EndChar
StartChar: Atilde
Encoding: 195 195 164
Width: 575
Flags: W
LayerCount: 2
Fore
SplineSet
242 629 m 1,0,-1
 338 629 l 1,1,-1
 549 0 l 1,2,-1
 467 0 l 1,3,-1
 413 160 l 1,4,-1
 163 160 l 1,5,-1
 109 0 l 1,6,-1
 26 0 l 1,7,-1
 242 629 l 1,0,-1
184 222 m 1,8,-1
 393 222 l 1,9,-1
 289 532 l 1,10,-1
 184 222 l 1,8,-1
221 770 m 0,11,12
 188.621 770 188.621 770 164 719 c 1,13,-1
 132 738 l 1,14,15
 144 789 144 789 167 815.5 c 128,-1,16
 190 842 190 842 216 842 c 128,-1,17
 242 842 242 842 275.5 825 c 0,18,19
 321.676 801.568 321.676 801.568 335.171 795.784 c 128,-1,20
 348.667 790 348.667 790 361.833 790 c 128,-1,21
 375 790 375 790 389 802.5 c 128,-1,22
 403 815 403 815 413 842 c 1,23,-1
 448 819 l 1,24,25
 437 771 437 771 412.5 745 c 128,-1,26
 388 719 388 719 367.5 719 c 128,-1,27
 347 719 347 719 330 725 c 128,-1,28
 313 731 313 731 283 746.5 c 128,-1,29
 253 762 253 762 242.5 766 c 128,-1,30
 232 770 232 770 221 770 c 0,11,12
EndSplineSet
EndChar
StartChar: Adieresis
Encoding: 311 196 134
Width: 575
Flags: W
LayerCount: 2
Fore
SplineSet
26 0 m 1,0,-1
 242 629 l 1,1,-1
 338 629 l 1,2,-1
 549 0 l 1,3,-1
 467 0 l 1,4,-1
 413 160 l 1,5,-1
 163 160 l 1,6,-1
 109 0 l 1,7,-1
 26 0 l 1,0,-1
174 785 m 128,-1,9
 174 806 174 806 188.5 820.5 c 128,-1,10
 203 835 203 835 226 835 c 128,-1,11
 249 835 249 835 264.5 820.5 c 128,-1,12
 280 806 280 806 280 785 c 128,-1,13
 280 764 280 764 264.5 749.5 c 128,-1,14
 249 735 249 735 226 735 c 128,-1,15
 203 735 203 735 188.5 749.5 c 128,-1,8
 174 764 174 764 174 785 c 128,-1,9
184 222 m 1,16,-1
 393 222 l 1,17,-1
 289 532 l 1,18,-1
 184 222 l 1,16,-1
342 785 m 128,-1,20
 342 806 342 806 357 820.5 c 128,-1,21
 372 835 372 835 394.5 835 c 128,-1,22
 417 835 417 835 432.5 820.5 c 128,-1,23
 448 806 448 806 448 785 c 128,-1,24
 448 764 448 764 432.5 749.5 c 128,-1,25
 417 735 417 735 394.5 735 c 128,-1,26
 372 735 372 735 357 749.5 c 128,-1,19
 342 764 342 764 342 785 c 128,-1,20
EndSplineSet
Validated: 1
EndChar
StartChar: AE
Encoding: 198 198 274
Width: 821
Flags: W
LayerCount: 2
Back
Fore
SplineSet
346 160 m 1,0,-1
 163 160 l 1,1,-1
 109 0 l 1,2,-1
 26 0 l 1,3,-1
 242 629 l 1,4,-1
 733 629 l 1,5,-1
 733 561 l 1,6,-1
 425 561 l 1,7,-1
 425 350 l 1,8,-1
 715 350 l 1,9,-1
 715 283 l 1,10,-1
 425 283 l 1,11,-1
 425 69 l 1,12,-1
 733 69 l 1,13,-1
 733 0 l 1,14,-1
 346 0 l 1,15,-1
 346 160 l 1,0,-1
346 222 m 1,16,-1
 346 561 l 1,17,-1
 298 561 l 1,18,-1
 184 222 l 1,19,-1
 346 222 l 1,16,-1
EndSplineSet
EndChar
StartChar: Ccedilla
Encoding: 333 199 172
Width: 613
VWidth: 0
LayerCount: 2
Fore
SplineSet
51 319.995 m 128,-1,1
 51 470.875 51 470.875 126.167 555.438 c 128,-1,2
 201.333 640 201.333 640 319 640 c 0,3,4
 420 640 420 640 481.5 589.5 c 128,-1,5
 543 539 543 539 566 458 c 1,6,-1
 481 441 l 1,7,8
 461 500 461 500 418.5 534.5 c 128,-1,9
 376 569 376 569 319 569 c 0,10,11
 240.397 569 240.397 569 188.198 503.23 c 128,-1,12
 136 437.46 136 437.46 136 319.863 c 128,-1,13
 136 202.267 136 202.267 182.391 131.133 c 128,-1,14
 228.783 60 228.783 60 319 60 c 0,15,16
 394 60 394 60 437.5 99.5 c 128,-1,17
 481 139 481 139 481 204 c 1,18,-1
 566 204 l 1,19,20
 566 105.015 566 105.015 498.67 47.0078 c 0,21,22
 437.15 -5.99314 437.15 -5.99314 333.403 -10.5678 c 1,23,-1
 319.579 -46.0137 l 1,24,25
 358.039 -47.2402 358.039 -47.2402 377.269 -63.8115 c 128,-1,26
 396.5 -80.3818 396.5 -80.3818 396.5 -108.613 c 0,27,28
 396.5 -182.67 396.5 -182.67 284.392 -182.67 c 0,29,30
 261.07 -182.67 261.07 -182.67 247.568 -181.033 c 1,31,-1
 247.568 -140.938 l 1,32,33
 267.617 -143.392 267.617 -143.392 282.756 -143.392 c 0,34,35
 342.901 -143.392 342.901 -143.392 342.901 -110.25 c 0,36,37
 342.901 -78.7451 342.901 -78.7451 288.483 -78.7451 c 0,38,39
 270.891 -78.7451 270.891 -78.7451 265.162 -79.5635 c 1,40,-1
 289.98 -10.0739 l 1,41,42
 188.184 -1.86755 188.184 -1.86755 123.256 79.0576 c 0,43,0
 51 169.116 51 169.116 51 319.995 c 128,-1,1
EndSplineSet
EndChar
StartChar: Egrave
Encoding: 200 200 102
Width: 564
Flags: W
LayerCount: 2
Fore
SplineSet
100 629 m 1,0,-1
 487 629 l 1,1,-1
 487 561 l 1,2,-1
 179 561 l 1,3,-1
 179 350 l 1,4,-1
 469 350 l 1,5,-1
 469 283 l 1,6,-1
 179 283 l 1,7,-1
 179 69 l 1,8,-1
 487 69 l 1,9,-1
 487 0 l 1,10,-1
 100 0 l 1,11,-1
 100 629 l 1,0,-1
194 860 m 1,12,-1
 429 727 l 1,13,-1
 406 677 l 1,14,-1
 161 790 l 1,15,-1
 194 860 l 1,12,-1
EndSplineSet
EndChar
StartChar: Ecircumflex
Encoding: 202 202 122
Width: 564
Flags: W
LayerCount: 2
Back
Fore
SplineSet
105 629 m 1,0,-1
 492 629 l 1,1,-1
 492 561 l 1,2,-1
 184 561 l 1,3,-1
 184 350 l 1,4,-1
 474 350 l 1,5,-1
 474 283 l 1,6,-1
 184 283 l 1,7,-1
 184 69 l 1,8,-1
 492 69 l 1,9,-1
 492 0 l 1,10,-1
 105 0 l 1,11,-1
 105 629 l 1,0,-1
479 716 m 1,12,-1
 429 677 l 1,13,-1
 300 785 l 1,14,-1
 170 677 l 1,15,-1
 120 716 l 1,16,-1
 300 872 l 1,17,-1
 479 716 l 1,12,-1
EndSplineSet
EndChar
StartChar: Edieresis
Encoding: 312 203 135
Width: 564
Flags: W
LayerCount: 2
Fore
SplineSet
100 0 m 1,0,-1
 100 629 l 1,1,-1
 487 629 l 1,2,-1
 487 561 l 1,3,-1
 179 561 l 1,4,-1
 179 350 l 1,5,-1
 469 350 l 1,6,-1
 469 283 l 1,7,-1
 179 283 l 1,8,-1
 179 69 l 1,9,-1
 487 69 l 1,10,-1
 487 0 l 1,11,-1
 100 0 l 1,0,-1
158 785 m 128,-1,13
 158 806 158 806 172.5 820.5 c 128,-1,14
 187 835 187 835 210 835 c 128,-1,15
 233 835 233 835 248.5 820.5 c 128,-1,16
 264 806 264 806 264 785 c 128,-1,17
 264 764 264 764 248.5 749.5 c 128,-1,18
 233 735 233 735 210 735 c 128,-1,19
 187 735 187 735 172.5 749.5 c 128,-1,12
 158 764 158 764 158 785 c 128,-1,13
326 785 m 128,-1,21
 326 806 326 806 341 820.5 c 128,-1,22
 356 835 356 835 378.5 835 c 128,-1,23
 401 835 401 835 416.5 820.5 c 128,-1,24
 432 806 432 806 432 785 c 128,-1,25
 432 764 432 764 416.5 749.5 c 128,-1,26
 401 735 401 735 378.5 735 c 128,-1,27
 356 735 356 735 341 749.5 c 128,-1,20
 326 764 326 764 326 785 c 128,-1,21
EndSplineSet
EndChar
StartChar: Igrave
Encoding: 204 204 110
Width: 280
Flags: W
LayerCount: 2
Back
Fore
SplineSet
101 629 m 1,0,-1
 180 629 l 1,1,-1
 180 0 l 1,2,-1
 101 0 l 1,3,-1
 101 629 l 1,0,-1
40 860 m 1,4,-1
 275 727 l 1,5,-1
 252 677 l 1,6,-1
 7 790 l 1,7,-1
 40 860 l 1,4,-1
EndSplineSet
EndChar
StartChar: Icircumflex
Encoding: 206 206 123
Width: 280
Flags: W
LayerCount: 2
Fore
SplineSet
101 629 m 1,0,-1
 180 629 l 1,1,-1
 180 0 l 1,2,-1
 101 0 l 1,3,-1
 101 629 l 1,0,-1
320 716 m 1,4,-1
 270 677 l 1,5,-1
 141 785 l 1,6,-1
 11 677 l 1,7,-1
 -39 716 l 1,8,-1
 141 872 l 1,9,-1
 320 716 l 1,4,-1
EndSplineSet
EndChar
StartChar: Idieresis
Encoding: 313 207 136
Width: 280
Flags: W
LayerCount: 2
Fore
SplineSet
4 785 m 128,-1,5
 4 806 4 806 18.5 820.5 c 128,-1,6
 33 835 33 835 56 835 c 128,-1,7
 79 835 79 835 94.5 820.5 c 128,-1,8
 110 806 110 806 110 785 c 128,-1,9
 110 764 110 764 94.5 749.5 c 128,-1,10
 79 735 79 735 56 735 c 128,-1,11
 33 735 33 735 18.5 749.5 c 128,-1,4
 4 764 4 764 4 785 c 128,-1,5
101 0 m 1,0,-1
 101 629 l 1,1,-1
 180 629 l 1,2,-1
 180 0 l 1,3,-1
 101 0 l 1,0,-1
172 785 m 128,-1,13
 172 806 172 806 187 820.5 c 128,-1,14
 202 835 202 835 224.5 835 c 128,-1,15
 247 835 247 835 262.5 820.5 c 128,-1,16
 278 806 278 806 278 785 c 128,-1,17
 278 764 278 764 262.5 749.5 c 128,-1,18
 247 735 247 735 224.5 735 c 128,-1,19
 202 735 202 735 187 749.5 c 128,-1,12
 172 764 172 764 172 785 c 128,-1,13
EndSplineSet
EndChar
StartChar: Eth
Encoding: 529 208 368
Width: 661
VWidth: 0
Flags: W
LayerCount: 2
Fore
SplineSet
22 285 m 257,0,-1
 330 285 l 257,1,-1
 330 345 l 257,2,-1
 22 345 l 257,3,-1
 22 285 l 257,0,-1
100 0 m 257,4,-1
 285 0 l 258,5,6
 427 0 427 0 512.5 85.5 c 128,-1,7
 598 171 598 171 598 314 c 0,8,9
 598 453 598 453 513.5 541 c 128,-1,10
 429 629 429 629 285 629 c 2,11,-1
 100 629 l 257,12,-1
 100 0 l 257,4,-1
179 69 m 257,13,-1
 179 559 l 257,14,-1
 285 559 l 258,15,16
 389 559 389 559 451.5 489.5 c 128,-1,17
 514 420 514 420 514 315 c 0,18,19
 514 212 514 212 453.5 140.5 c 128,-1,20
 393 69 393 69 285 69 c 2,21,-1
 179 69 l 257,13,-1
EndSplineSet
EndChar
StartChar: Ntilde
Encoding: 326 209 165
Width: 686
Flags: W
LayerCount: 2
Fore
SplineSet
99 629 m 1,0,-1
 99 0 l 1,1,-1
 179 0 l 1,2,-1
 179 512 l 1,3,-1
 496 0 l 1,4,-1
 584 0 l 1,5,-1
 584 629 l 1,6,-1
 505 629 l 1,7,-1
 505 124 l 1,8,-1
 193 629 l 1,9,-1
 99 629 l 1,0,-1
274 770 m 0,10,11
 241.621 770 241.621 770 217 719 c 1,12,-1
 185 738 l 1,13,14
 197 789 197 789 220 815.5 c 128,-1,15
 243 842 243 842 269 842 c 128,-1,16
 295 842 295 842 328.5 825 c 0,17,18
 374.676 801.568 374.676 801.568 388.171 795.784 c 128,-1,19
 401.667 790 401.667 790 414.833 790 c 128,-1,20
 428 790 428 790 442 802.5 c 128,-1,21
 456 815 456 815 466 842 c 1,22,-1
 501 819 l 1,23,24
 490 771 490 771 465.5 745 c 128,-1,25
 441 719 441 719 420.5 719 c 128,-1,26
 400 719 400 719 383 725 c 128,-1,27
 366 731 366 731 336 746.5 c 128,-1,28
 306 762 306 762 295.5 766 c 128,-1,29
 285 770 285 770 274 770 c 0,10,11
EndSplineSet
Validated: 9
EndChar
StartChar: Ograve
Encoding: 291 210 112
Width: 646
Flags: W
LayerCount: 2
Fore
SplineSet
51 314 m 0,0,1
 51 472.875 51 472.875 125.278 556.438 c 128,-1,2
 199.556 640 199.556 640 323 640 c 0,3,4
 445.049 640 445.049 640 520.525 556.253 c 128,-1,5
 596 472.507 596 472.507 596 313.219 c 128,-1,6
 596 153.932 596 153.932 520.75 71.4658 c 128,-1,7
 445.5 -11 445.5 -11 323 -11 c 0,8,9
 199.556 -11 199.556 -11 125.278 72.5625 c 128,-1,10
 51 156.125 51 156.125 51 314 c 0,0,1
133 313 m 128,-1,12
 133 189 133 189 184 125 c 128,-1,13
 235 61 235 61 323 61 c 128,-1,14
 411 61 411 61 462.5 125 c 128,-1,15
 514 189 514 189 514 313 c 128,-1,16
 514 437 514 437 462.5 503 c 128,-1,17
 411 569 411 569 323 569 c 128,-1,18
 235 569 235 569 184 503 c 128,-1,11
 133 437 133 437 133 313 c 128,-1,12
190 790 m 1,19,-1
 223 860 l 1,20,-1
 458 727 l 1,21,-1
 435 677 l 1,22,-1
 190 790 l 1,19,-1
EndSplineSet
EndChar
StartChar: Ocircumflex
Encoding: 303 212 124
Width: 646
Flags: W
LayerCount: 2
Fore
SplineSet
51 314 m 0,0,1
 51 473 51 473 125.5 556.5 c 128,-1,2
 200 640 200 640 323 640 c 0,3,4
 445 640 445 640 520.5 556.5 c 128,-1,5
 596 473 596 473 596 313.5 c 128,-1,6
 596 154 596 154 521 71.5 c 128,-1,7
 446 -11 446 -11 323 -11 c 0,8,9
 200 -11 200 -11 125.5 72.5 c 128,-1,10
 51 156 51 156 51 314 c 0,0,1
133 313 m 128,-1,12
 133 189 133 189 184 125 c 128,-1,13
 235 61 235 61 323 61 c 128,-1,14
 411 61 411 61 462.5 125 c 128,-1,15
 514 189 514 189 514 313 c 128,-1,16
 514 437 514 437 462.5 503 c 128,-1,17
 411 569 411 569 323 569 c 128,-1,18
 235 569 235 569 184 503 c 128,-1,11
 133 437 133 437 133 313 c 128,-1,12
143 716 m 1,19,-1
 323 872 l 1,20,-1
 502 716 l 1,21,-1
 452 677 l 1,22,-1
 323 785 l 1,23,-1
 193 677 l 1,24,-1
 143 716 l 1,19,-1
EndSplineSet
Validated: 1
EndChar
StartChar: Otilde
Encoding: 327 213 166
Width: 646
Flags: W
LayerCount: 2
Fore
SplineSet
323 640 m 0,0,1
 199.556 640 199.556 640 125.278 556.438 c 128,-1,2
 51 472.875 51 472.875 51 314 c 0,3,4
 51 156.125 51 156.125 125.278 72.5625 c 128,-1,5
 199.556 -11 199.556 -11 323 -11 c 0,6,7
 445.5 -11 445.5 -11 520.75 71.4658 c 128,-1,8
 596 153.932 596 153.932 596 313.219 c 128,-1,9
 596 472.507 596 472.507 520.525 556.253 c 128,-1,10
 445.049 640 445.049 640 323 640 c 0,0,1
323 569 m 128,-1,12
 411 569 411 569 462.5 503 c 128,-1,13
 514 437 514 437 514 313 c 128,-1,14
 514 189 514 189 462.5 125 c 128,-1,15
 411 61 411 61 323 61 c 128,-1,16
 235 61 235 61 184 125 c 128,-1,17
 133 189 133 189 133 313 c 128,-1,18
 133 437 133 437 184 503 c 128,-1,11
 235 569 235 569 323 569 c 128,-1,12
254 770 m 0,19,20
 221.621 770 221.621 770 197 719 c 1,21,-1
 165 738 l 1,22,23
 177 789 177 789 200 815.5 c 128,-1,24
 223 842 223 842 249 842 c 128,-1,25
 275 842 275 842 308.5 825 c 0,26,27
 354.676 801.568 354.676 801.568 368.171 795.784 c 128,-1,28
 381.667 790 381.667 790 394.833 790 c 128,-1,29
 408 790 408 790 422 802.5 c 128,-1,30
 436 815 436 815 446 842 c 1,31,-1
 481 819 l 1,32,33
 470 771 470 771 445.5 745 c 128,-1,34
 421 719 421 719 400.5 719 c 128,-1,35
 380 719 380 719 363 725 c 128,-1,36
 346 731 346 731 316 746.5 c 128,-1,37
 286 762 286 762 275.5 766 c 128,-1,38
 265 770 265 770 254 770 c 0,19,20
EndSplineSet
Validated: 9
EndChar
StartChar: Odieresis
Encoding: 314 214 137
Width: 646
Flags: W
LayerCount: 2
Fore
SplineSet
51 314 m 0,0,1
 51 472.875 51 472.875 125.278 556.438 c 128,-1,2
 199.556 640 199.556 640 323 640 c 0,3,4
 445.049 640 445.049 640 520.525 556.253 c 128,-1,5
 596 472.507 596 472.507 596 313.219 c 128,-1,6
 596 153.932 596 153.932 520.75 71.4658 c 128,-1,7
 445.5 -11 445.5 -11 323 -11 c 0,8,9
 199.556 -11 199.556 -11 125.278 72.5625 c 128,-1,10
 51 156.125 51 156.125 51 314 c 0,0,1
133 313 m 128,-1,12
 133 189 133 189 184 125 c 128,-1,13
 235 61 235 61 323 61 c 128,-1,14
 411 61 411 61 462.5 125 c 128,-1,15
 514 189 514 189 514 313 c 128,-1,16
 514 437 514 437 462.5 503 c 128,-1,17
 411 569 411 569 323 569 c 128,-1,18
 235 569 235 569 184 503 c 128,-1,11
 133 437 133 437 133 313 c 128,-1,12
186 785 m 128,-1,20
 186 806 186 806 200.5 820.5 c 128,-1,21
 215 835 215 835 238 835 c 128,-1,22
 261 835 261 835 276.5 820.5 c 128,-1,23
 292 806 292 806 292 785 c 128,-1,24
 292 764 292 764 276.5 749.5 c 128,-1,25
 261 735 261 735 238 735 c 128,-1,26
 215 735 215 735 200.5 749.5 c 128,-1,19
 186 764 186 764 186 785 c 128,-1,20
354 785 m 128,-1,28
 354 806 354 806 369 820.5 c 128,-1,29
 384 835 384 835 406.5 835 c 128,-1,30
 429 835 429 835 444.5 820.5 c 128,-1,31
 460 806 460 806 460 785 c 128,-1,32
 460 764 460 764 444.5 749.5 c 128,-1,33
 429 735 429 735 406.5 735 c 128,-1,34
 384 735 384 735 369 749.5 c 128,-1,27
 354 764 354 764 354 785 c 128,-1,28
EndSplineSet
EndChar
StartChar: multiply
Encoding: 358 215 197
Width: 512
Flags: W
LayerCount: 2
Fore
SplineSet
26 99 m 1,0,-1
 204 277 l 1,1,-1
 26 455 l 1,2,-1
 78 507 l 1,3,-1
 256 329 l 1,4,-1
 434 507 l 1,5,-1
 486 455 l 1,6,-1
 308 277 l 1,7,-1
 486 99 l 1,8,-1
 434 47 l 1,9,-1
 256 225 l 1,10,-1
 78 47 l 1,11,-1
 26 99 l 1,0,-1
EndSplineSet
EndChar
StartChar: Oslash
Encoding: 216 216 203
Width: 646
Flags: W
LayerCount: 2
Back
Fore
SplineSet
598.34765625 639.641601562 m 5,0,-1
 651.6640625 585.240234375 l 5,1,-1
 46.109375 -16.3408203125 l 5,2,-1
 -7.20703125 38.0595703125 l 5,3,-1
 598.34765625 639.641601562 l 5,0,-1
323 640 m 0,4,5
 445.049 640 445.049 640 520.525 556.253 c 128,-1,6
 596 472.507 596 472.507 596 313.219 c 128,-1,7
 596 153.932 596 153.932 520.75 71.4658 c 128,-1,8
 445.5 -11 445.5 -11 323 -11 c 0,9,10
 199.556 -11 199.556 -11 125.278 72.5625 c 128,-1,11
 51 156.125 51 156.125 51 314 c 0,12,13
 51 472.875 51 472.875 125.278 556.438 c 128,-1,14
 199.556 640 199.556 640 323 640 c 0,4,5
323 569 m 128,-1,16
 235 569 235 569 184 503 c 128,-1,17
 133 437 133 437 133 313 c 128,-1,18
 133 189 133 189 184 125 c 128,-1,19
 235 61 235 61 323 61 c 128,-1,20
 411 61 411 61 462.5 125 c 128,-1,21
 514 189 514 189 514 313 c 128,-1,22
 514 437 514 437 462.5 503 c 128,-1,15
 411 569 411 569 323 569 c 128,-1,16
EndSplineSet
EndChar
StartChar: Ugrave
Encoding: 217 217 114
Width: 654
Flags: W
LayerCount: 2
Fore
SplineSet
166 629 m 1,0,-1
 166 227 l 2,1,2
 166 139 166 139 210 100 c 128,-1,3
 254 61 254 61 326 61 c 128,-1,4
 398 61 398 61 442 100 c 128,-1,5
 486 139 486 139 486 227 c 2,6,-1
 486 629 l 1,7,-1
 565 629 l 1,8,-1
 565 227 l 2,9,10
 565 109 565 109 500 49 c 128,-1,11
 435 -11 435 -11 325.5 -11 c 128,-1,12
 216 -11 216 -11 151.5 49 c 128,-1,13
 87 109 87 109 87 227 c 2,14,-1
 87 629 l 1,15,-1
 166 629 l 1,0,-1
226 860 m 1,16,-1
 461 727 l 1,17,-1
 438 677 l 1,18,-1
 193 790 l 1,19,-1
 226 860 l 1,16,-1
EndSplineSet
EndChar
StartChar: Uacute
Encoding: 294 218 115
Width: 654
LayerCount: 2
Back
SplineSet
87 629 m 1,0,-1
 166 629 l 1,1,-1
 166 227 l 2,2,3
 166 139 166 139 210 100 c 0,4,5
 254 61 254 61 326 61 c 0,6,7
 398 61 398 61 442 100 c 0,8,9
 486 139 486 139 486 227 c 2,10,-1
 486 629 l 1,11,-1
 565 629 l 1,12,-1
 565 227 l 2,13,14
 565 109 565 109 500 49 c 0,15,16
 436 -11 436 -11 326 -11 c 0,17,18
 215 -11 215 -11 152 49 c 0,19,20
 87 108 87 108 87 227 c 2,21,-1
 87 629 l 1,0,-1
459 790 m 1,22,-1
 215 677 l 1,23,-1
 192 727 l 1,24,-1
 427 860 l 1,25,-1
 459 790 l 1,22,-1
EndSplineSet
Fore
Refer: 97 180 S 1 0 0 1 180 23 2
Refer: 58 85 N 1 0 0 1 0 0 3
Validated: 1
EndChar
StartChar: Ucircumflex
Encoding: 219 219 125
Width: 654
Flags: W
LayerCount: 2
Back
Fore
SplineSet
166 629 m 1,0,-1
 166 227 l 2,1,2
 166 139 166 139 210 100 c 128,-1,3
 254 61 254 61 326 61 c 128,-1,4
 398 61 398 61 442 100 c 128,-1,5
 486 139 486 139 486 227 c 2,6,-1
 486 629 l 1,7,-1
 565 629 l 1,8,-1
 565 227 l 2,9,10
 565 109 565 109 500 49 c 128,-1,11
 435 -11 435 -11 325.5 -11 c 128,-1,12
 216 -11 216 -11 151.5 49 c 128,-1,13
 87 109 87 109 87 227 c 2,14,-1
 87 629 l 1,15,-1
 166 629 l 1,0,-1
505 716 m 1,16,-1
 455 677 l 1,17,-1
 326 785 l 1,18,-1
 196 677 l 1,19,-1
 146 716 l 1,20,-1
 326 872 l 1,21,-1
 505 716 l 1,16,-1
EndSplineSet
EndChar
StartChar: Udieresis
Encoding: 315 220 138
Width: 654
Flags: W
LayerCount: 2
Fore
SplineSet
87 227 m 2,0,-1
 87 629 l 1,1,-1
 166 629 l 1,2,-1
 166 227 l 2,3,4
 166 139 166 139 210 100 c 128,-1,5
 254 61 254 61 326 61 c 128,-1,6
 398 61 398 61 442 100 c 128,-1,7
 486 139 486 139 486 227 c 2,8,-1
 486 629 l 1,9,-1
 565 629 l 1,10,-1
 565 227 l 2,11,12
 565 109 565 109 500 49 c 128,-1,13
 435 -11 435 -11 325.5 -11 c 128,-1,14
 216 -11 216 -11 151.5 49 c 128,-1,15
 87 109 87 109 87 227 c 2,0,-1
189 785 m 128,-1,17
 189 806 189 806 203.5 820.5 c 128,-1,18
 218 835 218 835 241 835 c 128,-1,19
 264 835 264 835 279.5 820.5 c 128,-1,20
 295 806 295 806 295 785 c 128,-1,21
 295 764 295 764 279.5 749.5 c 128,-1,22
 264 735 264 735 241 735 c 128,-1,23
 218 735 218 735 203.5 749.5 c 128,-1,16
 189 764 189 764 189 785 c 128,-1,17
357 785 m 128,-1,25
 357 806 357 806 372 820.5 c 128,-1,26
 387 835 387 835 409.5 835 c 128,-1,27
 432 835 432 835 447.5 820.5 c 128,-1,28
 463 806 463 806 463 785 c 128,-1,29
 463 764 463 764 447.5 749.5 c 128,-1,30
 432 735 432 735 409.5 735 c 128,-1,31
 387 735 387 735 372 749.5 c 128,-1,24
 357 764 357 764 357 785 c 128,-1,25
EndSplineSet
Validated: 1
EndChar
StartChar: Thorn
Encoding: 530 222 369
Width: 554
VWidth: 0
Flags: W
LayerCount: 2
Fore
SplineSet
178 192 m 257,0,-1
 178 442 l 257,1,-1
 302 442 l 258,2,3
 366 442 366 442 400 408 c 128,-1,4
 434 374 434 374 434 315 c 0,5,6
 434 257 434 257 400 224.5 c 128,-1,7
 366 192 366 192 302 192 c 2,8,-1
 178 192 l 257,0,-1
178 0 m 257,9,-1
 178 124 l 257,10,-1
 302 124 l 258,11,12
 405 124 405 124 460 175 c 128,-1,13
 515 226 515 226 515 316 c 0,14,15
 515 407 515 407 460 458.5 c 128,-1,16
 405 510 405 510 302 510 c 2,17,-1
 178 510 l 257,18,-1
 178 629 l 257,19,-1
 99 629 l 257,20,-1
 99 0 l 257,21,-1
 178 0 l 257,9,-1
EndSplineSet
EndChar
StartChar: germandbls
Encoding: 359 223 198
Width: 613
VWidth: 0
Flags: W
LayerCount: 2
Fore
SplineSet
101 0 m 257,0,-1
 180 0 l 257,1,-1
 180 470 l 258,2,3
 180 545 180 545 211.5 579.5 c 128,-1,4
 243 614 243 614 296 614 c 0,5,6
 343 614 343 614 369.5 589 c 128,-1,7
 396 564 396 564 396 526 c 0,8,9
 396 487 396 487 355.5 438 c 128,-1,10
 315 389 315 389 315 354 c 0,11,12
 315 331 315 331 332 309.5 c 128,-1,13
 349 288 349 288 373 270 c 128,-1,14
 397 252 397 252 421 233.5 c 128,-1,15
 445 215 445 215 462 189.5 c 128,-1,16
 479 164 479 164 479 135 c 0,17,18
 479 96 479 96 455 74 c 128,-1,19
 431 52 431 52 391 52 c 0,20,21
 345 52 345 52 295 75 c 1,22,-1
 295 14 l 257,23,24
 348 -11 348 -11 400 -11 c 0,25,26
 471 -11 471 -11 517 33 c 128,-1,27
 563 77 563 77 563 142 c 0,28,29
 563 185 563 185 536.5 223.5 c 128,-1,30
 510 262 510 262 479 285 c 128,-1,31
 448 308 448 308 421.5 332.5 c 128,-1,32
 395 357 395 357 395 374 c 0,33,34
 395 393 395 393 416.5 417 c 128,-1,35
 438 441 438 441 459 471 c 128,-1,36
 480 501 480 501 480 535 c 0,37,38
 480 590 480 590 430.5 632 c 128,-1,39
 381 674 381 674 301 674 c 256,40,41
 208 674 208 674 154.5 618.5 c 128,-1,42
 101 563 101 563 101 470 c 2,43,-1
 101 0 l 257,0,-1
EndSplineSet
EndChar
StartChar: agrave
Encoding: 277 224 98
Width: 551
Flags: W
LayerCount: 2
Fore
SplineSet
60 139.066 m 128,-1,1
 60 202.7 60 202.7 111.643 238.85 c 128,-1,2
 163.286 275 163.286 275 240.143 275 c 128,-1,3
 317 275 317 275 387 249 c 1,4,-1
 387 310 l 2,5,6
 387 375 387 375 360 403 c 128,-1,7
 333 431 333 431 281.5 431 c 128,-1,8
 230 431 230 431 198.5 410.5 c 128,-1,9
 167 390 167 390 167 346 c 1,10,-1
 80 346 l 1,11,12
 80 455.778 80 455.778 198 482 c 0,13,14
 234 490 234 490 276.5 490 c 0,15,16
 364.614 490 364.614 490 414.807 444.929 c 128,-1,17
 465 399.857 465 399.857 465 308 c 2,18,-1
 465 0 l 1,19,-1
 397 0 l 1,20,-1
 389 80 l 1,21,22
 345 -11 345 -11 230 -11 c 0,23,24
 152.756 -11 152.756 -11 106.378 32.2159 c 128,-1,0
 60 75.4318 60 75.4318 60 139.066 c 128,-1,1
144 140 m 0,25,26
 144 50 144 50 246 50 c 0,27,28
 304 50 304 50 345.5 91.5 c 128,-1,29
 387 133 387 133 387 199 c 1,30,31
 315.889 219 315.889 219 262.944 219 c 128,-1,32
 210 219 210 219 177 200 c 128,-1,33
 144 181 144 181 144 140 c 0,25,26
149 661 m 1,34,-1
 182 731 l 1,35,-1
 417 598 l 1,36,-1
 394 548 l 1,37,-1
 149 661 l 1,34,-1
EndSplineSet
EndChar
StartChar: aacute
Encoding: 283 225 104
Width: 551
Flags: W
LayerCount: 2
Fore
SplineSet
60 139.066 m 128,-1,1
 60 202.7 60 202.7 111.643 238.85 c 128,-1,2
 163.286 275 163.286 275 240.143 275 c 128,-1,3
 317 275 317 275 387 249 c 1,4,-1
 387 310 l 2,5,6
 387 375 387 375 360 403 c 128,-1,7
 333 431 333 431 281.5 431 c 128,-1,8
 230 431 230 431 198.5 410.5 c 128,-1,9
 167 390 167 390 167 346 c 1,10,-1
 80 346 l 1,11,12
 80 455.778 80 455.778 198 482 c 0,13,14
 234 490 234 490 276.5 490 c 0,15,16
 364.614 490 364.614 490 414.807 444.929 c 128,-1,17
 465 399.857 465 399.857 465 308 c 2,18,-1
 465 0 l 1,19,-1
 397 0 l 1,20,-1
 389 80 l 1,21,22
 345 -11 345 -11 230 -11 c 0,23,24
 152.756 -11 152.756 -11 106.378 32.2159 c 128,-1,0
 60 75.4318 60 75.4318 60 139.066 c 128,-1,1
144 140 m 0,25,26
 144 50 144 50 246 50 c 0,27,28
 303.474 50 303.474 50 344.275 89.755 c 128,-1,29
 385.076 129.51 385.076 129.51 387 193 c 1,30,-1
 387 199 l 1,31,32
 315.889 219 315.889 219 262.944 219 c 128,-1,33
 210 219 210 219 177 200 c 128,-1,34
 144 181 144 181 144 140 c 0,25,26
148 598 m 1,35,-1
 383 731 l 1,36,-1
 415 661 l 1,37,-1
 171 548 l 1,38,-1
 148 598 l 1,35,-1
EndSplineSet
EndChar
StartChar: acircumflex
Encoding: 296 226 117
Width: 551
Flags: W
LayerCount: 2
Fore
SplineSet
60 139 m 128,-1,1
 60 203 60 203 111.5 239 c 128,-1,2
 163 275 163 275 240 275 c 128,-1,3
 317 275 317 275 387 249 c 1,4,-1
 387 310 l 2,5,6
 387 375 387 375 360 403 c 128,-1,7
 333 431 333 431 281.5 431 c 128,-1,8
 230 431 230 431 198.5 410.5 c 128,-1,9
 167 390 167 390 167 346 c 1,10,-1
 80 346 l 1,11,12
 80 456 80 456 198 482 c 0,13,14
 234 490 234 490 276 490 c 0,15,16
 364 490 364 490 414.5 445 c 128,-1,17
 465 400 465 400 465 308 c 2,18,-1
 465 0 l 1,19,-1
 397 0 l 1,20,-1
 389 80 l 1,21,22
 345 -11 345 -11 230 -11 c 0,23,24
 153 -11 153 -11 106.5 32 c 128,-1,0
 60 75 60 75 60 139 c 128,-1,1
102 587 m 1,25,-1
 282 743 l 1,26,-1
 461 587 l 1,27,-1
 411 548 l 1,28,-1
 282 656 l 1,29,-1
 152 548 l 1,30,-1
 102 587 l 1,25,-1
144 140 m 0,31,32
 144 50 144 50 246 50 c 0,33,34
 304 50 304 50 345.5 91.5 c 128,-1,35
 387 133 387 133 387 199 c 1,36,37
 316 219 316 219 263 219 c 128,-1,38
 210 219 210 219 177 200 c 128,-1,39
 144 181 144 181 144 140 c 0,31,32
EndSplineSet
Validated: 1
EndChar
StartChar: atilde
Encoding: 322 227 161
Width: 551
Flags: W
LayerCount: 2
Fore
SplineSet
60 139.066 m 128,-1,1
 60 202.7 60 202.7 111.643 238.85 c 128,-1,2
 163.286 275 163.286 275 240.143 275 c 128,-1,3
 317 275 317 275 387 249 c 1,4,-1
 387 310 l 2,5,6
 387 375 387 375 360 403 c 128,-1,7
 333 431 333 431 281.5 431 c 128,-1,8
 230 431 230 431 198.5 410.5 c 128,-1,9
 167 390 167 390 167 346 c 1,10,-1
 80 346 l 1,11,12
 80 455.778 80 455.778 198 482 c 0,13,14
 234 490 234 490 276.5 490 c 0,15,16
 364.614 490 364.614 490 414.807 444.929 c 128,-1,17
 465 399.857 465 399.857 465 308 c 2,18,-1
 465 0 l 1,19,-1
 397 0 l 1,20,-1
 389 80 l 1,21,22
 345 -11 345 -11 230 -11 c 0,23,24
 152.756 -11 152.756 -11 106.378 32.2159 c 128,-1,0
 60 75.4318 60 75.4318 60 139.066 c 128,-1,1
124 609 m 1,35,36
 136 660 136 660 159 686.5 c 128,-1,37
 182 713 182 713 208 713 c 128,-1,38
 234 713 234 713 267.5 696 c 0,39,40
 313.676 672.568 313.676 672.568 327.171 666.784 c 128,-1,41
 340.667 661 340.667 661 353.833 661 c 128,-1,42
 367 661 367 661 381 673.5 c 128,-1,43
 395 686 395 686 405 713 c 1,44,-1
 440 690 l 1,45,46
 429 642 429 642 404.5 616 c 128,-1,47
 380 590 380 590 359.5 590 c 128,-1,48
 339 590 339 590 322 596 c 128,-1,49
 305 602 305 602 275 617.5 c 128,-1,50
 245 633 245 633 234.5 637 c 128,-1,51
 224 641 224 641 213 641 c 0,52,53
 180.621 641 180.621 641 156 590 c 1,54,-1
 124 609 l 1,35,36
144 140 m 0,25,26
 144 50 144 50 246 50 c 0,27,28
 303.474 50 303.474 50 344.275 89.755 c 128,-1,29
 385.076 129.51 385.076 129.51 387 193 c 1,30,-1
 387 199 l 1,31,32
 315.889 219 315.889 219 262.944 219 c 128,-1,33
 210 219 210 219 177 200 c 128,-1,34
 144 181 144 181 144 140 c 0,25,26
EndSplineSet
EndChar
StartChar: adieresis
Encoding: 228 228 130
Width: 551
Flags: W
LayerCount: 2
Back
Fore
SplineSet
387 310 m 2,0,1
 387 375 387 375 360 403 c 128,-1,2
 333 431 333 431 281.5 431 c 128,-1,3
 230 431 230 431 198.5 410.5 c 128,-1,4
 167 390 167 390 167 346 c 1,5,-1
 80 346 l 1,6,7
 80 455.778 80 455.778 198 482 c 0,8,9
 234 490 234 490 276.5 490 c 0,10,11
 364.614 490 364.614 490 414.807 444.929 c 128,-1,12
 465 399.857 465 399.857 465 308 c 2,13,-1
 465 0 l 1,14,-1
 397 0 l 1,15,-1
 389 80 l 1,16,17
 345 -11 345 -11 230 -11 c 0,18,19
 152.756 -11 152.756 -11 106.378 32.2159 c 128,-1,20
 60 75.4318 60 75.4318 60 139.066 c 128,-1,21
 60 202.7 60 202.7 111.643 238.85 c 128,-1,22
 163.286 275 163.286 275 240.143 275 c 128,-1,23
 317 275 317 275 387 249 c 1,24,-1
 387 310 l 2,0,1
387 199 m 1,25,26
 315.889 219 315.889 219 262.944 219 c 128,-1,27
 210 219 210 219 177 200 c 128,-1,28
 144 181 144 181 144 140 c 0,29,30
 144 50 144 50 246 50 c 0,31,32
 304 50 304 50 345.5 91.5 c 128,-1,33
 387 133 387 133 387 199 c 1,25,26
159.5 619.5 m 128,-1,35
 145 634 145 634 145 655 c 128,-1,36
 145 676 145 676 159.5 690.5 c 128,-1,37
 174 705 174 705 197 705 c 128,-1,38
 220 705 220 705 235.5 690.5 c 128,-1,39
 251 676 251 676 251 655 c 128,-1,40
 251 634 251 634 235.5 619.5 c 128,-1,41
 220 605 220 605 197 605 c 128,-1,34
 174 605 174 605 159.5 619.5 c 128,-1,35
328 619.5 m 128,-1,43
 313 634 313 634 313 655 c 128,-1,44
 313 676 313 676 328 690.5 c 128,-1,45
 343 705 343 705 365.5 705 c 128,-1,46
 388 705 388 705 403.5 690.5 c 128,-1,47
 419 676 419 676 419 655 c 128,-1,48
 419 634 419 634 403.5 619.5 c 128,-1,49
 388 605 388 605 365.5 605 c 128,-1,42
 343 605 343 605 328 619.5 c 128,-1,43
EndSplineSet
Validated: 524289
EndChar
StartChar: ae
Encoding: 362 230 201
Width: 850
VWidth: 0
Flags: W
LayerCount: 2
Fore
SplineSet
475 222 m 257,0,-1
 802 222 l 257,1,2
 806 254 806 254 806 271 c 0,3,4
 806 362 806 362 758 426 c 128,-1,5
 710 490 710 490 617 490 c 0,6,7
 503 490 503 490 448 408 c 1,8,9
 393 490 393 490 286 490 c 0,10,11
 248 490 248 490 215.5 483.5 c 128,-1,12
 183 477 183 477 153.5 461.5 c 128,-1,13
 124 446 124 446 107 416.5 c 128,-1,14
 90 387 90 387 90 346 c 1,15,-1
 177 346 l 257,16,17
 177 431 177 431 291 431 c 0,18,19
 344 431 344 431 370.5 402.5 c 128,-1,20
 397 374 397 374 397 310 c 2,21,-1
 397 282 l 257,22,-1
 280 282 l 258,23,24
 188 282 188 282 129 245.5 c 128,-1,25
 70 209 70 209 70 139 c 128,-1,26
 70 69 70 69 119 29 c 128,-1,27
 168 -11 168 -11 256 -11 c 0,28,29
 374 -11 374 -11 436 90 c 1,30,31
 492 -11 492 -11 612 -11 c 0,32,33
 691 -11 691 -11 743 29 c 128,-1,34
 795 69 795 69 806 140 c 1,35,-1
 725 140 l 257,36,37
 712 53 712 53 612 53 c 0,38,39
 548 53 548 53 511.5 98 c 128,-1,40
 475 143 475 143 475 222 c 257,0,-1
397 222 m 257,41,-1
 397 205 l 258,42,43
 397 139 397 139 357.5 94.5 c 128,-1,44
 318 50 318 50 256 50 c 0,45,46
 154 50 154 50 154 140 c 256,47,48
 154 180 154 180 189 201 c 128,-1,49
 224 222 224 222 280 222 c 2,50,-1
 397 222 l 257,41,-1
614 427 m 256,51,52
 673 427 673 427 702 388.5 c 128,-1,53
 731 350 731 350 731 282 c 1,54,-1
 476 282 l 257,55,56
 482 346 482 346 518.5 386.5 c 128,-1,57
 555 427 555 427 614 427 c 256,51,52
EndSplineSet
EndChar
StartChar: ccedilla
Encoding: 328 231 167
Width: 515
Flags: W
LayerCount: 2
Fore
SplineSet
50 241.5 m 128,-1,1
 50 356 50 356 113 423 c 128,-1,2
 176 490 176 490 260.5 490 c 128,-1,3
 345 490 345 490 395 446.5 c 128,-1,4
 445 403 445 403 460 338 c 1,5,-1
 380 331 l 1,6,7
 367 372 367 372 338 396 c 0,8,9
 308 420 308 420 274 420 c 0,10,11
 209 420 209 420 170 372 c 128,-1,12
 131 324 131 324 131 241.5 c 128,-1,13
 131 159 131 159 169.5 109 c 128,-1,14
 208 59 208 59 265.5 59 c 128,-1,15
 323 59 323 59 351.5 85.5 c 128,-1,16
 380 112 380 112 380 161 c 1,17,-1
 461 161 l 1,18,19
 461 84 461 84 407 36 c 0,20,21
 360 -6 360 -6 288 -10 c 1,22,-1
 274 -46 l 1,23,24
 312 -47 312 -47 331.5 -63.5 c 128,-1,25
 351 -80 351 -80 351 -109 c 0,26,27
 351 -183 351 -183 239 -183 c 0,28,29
 216 -183 216 -183 202 -181 c 1,30,-1
 202 -141 l 1,31,32
 222 -143 222 -143 237 -143 c 0,33,34
 297 -143 297 -143 297 -110 c 0,35,36
 297 -79 297 -79 246 -79 c 0,37,38
 244 -79 244 -79 243 -79 c 0,39,40
 225 -79 225 -79 220 -80 c 1,41,-1
 245 -10 l 1,42,43
 169 -2 169 -2 114 58 c 0,44,0
 50 127 50 127 50 241.5 c 128,-1,1
EndSplineSet
Validated: 1
EndChar
StartChar: egrave
Encoding: 278 232 99
Width: 514
Flags: W
LayerCount: 2
Fore
SplineSet
51 239.885 m 128,-1,1
 51 354.138 51 354.138 111.615 422.069 c 128,-1,2
 172.231 490 172.231 490 272.642 490 c 128,-1,3
 373.054 490 373.054 490 422.453 412.223 c 128,-1,4
 471.851 334.447 471.851 334.447 457 222 c 1,5,-1
 130 222 l 1,6,7
 130 147.824 130 147.824 165.822 100.412 c 128,-1,8
 201.644 53 201.644 53 267 53 c 0,9,10
 366.159 53 366.159 53 380 140 c 1,11,-1
 461 140 l 1,12,13
 450 68 450 68 397.5 28.5 c 128,-1,14
 345 -11 345 -11 267 -11 c 0,15,16
 170.815 -11 170.815 -11 110.908 57.3158 c 128,-1,0
 51 125.632 51 125.632 51 239.885 c 128,-1,1
126 666 m 1,25,-1
 159 736 l 1,26,-1
 394 603 l 1,27,-1
 371 553 l 1,28,-1
 126 666 l 1,25,-1
131 282 m 1,17,-1
 386 282 l 1,18,19
 386 382.2 386 382.2 324.5 415 c 0,20,21
 302 427 302 427 269.5 427 c 0,22,23
 207.55 427 207.55 427 172.388 385.633 c 128,-1,24
 137.227 344.267 137.227 344.267 131 282 c 1,17,-1
EndSplineSet
EndChar
StartChar: eacute
Encoding: 284 233 105
Width: 515
LayerCount: 2
Back
SplineSet
380 140 m 1,0,-1
 461 140 l 1,1,2
 450 68 450 68 397.5 28.5 c 0,3,4
 345 -11 345 -11 267 -11 c 0,5,6
 171 -11 171 -11 111 57.5 c 0,7,8
 51 126 51 126 51 240 c 0,9,10
 51 354 51 354 111.5 422 c 0,11,12
 172 490 172 490 272.5 490 c 0,13,14
 373 490 373 490 422.5 412 c 0,15,16
 472 334 472 334 457 222 c 1,17,-1
 130 222 l 1,18,19
 130 148 130 148 166 100 c 0,20,21
 202 53 202 53 267 53 c 0,22,23
 366 53 366 53 380 140 c 1,0,-1
358.5 385.5 m 4,24,25
 331 427 331 427 269.5 427 c 0,26,27
 208 427 208 427 172.5 385.5 c 0,28,29
 137 344 137 344 131 282 c 1,30,-1
 386 282 l 1,31,32
 386 344 386 344 358.5 385.5 c 4,24,25
392 666 m 1,33,-1
 148 553 l 1,34,-1
 125 603 l 1,35,-1
 360 736 l 1,36,-1
 392 666 l 1,33,-1
EndSplineSet
Fore
Refer: 97 180 N 1 0 0 1 115.642 -127 2
Refer: 16 101 N 1 0 0 1 0 0 3
Validated: 1
EndChar
StartChar: ecircumflex
Encoding: 234 234 118
Width: 514
Flags: W
LayerCount: 2
Back
Fore
SplineSet
270 53 m 0,0,1
 369.159 53 369.159 53 383 140 c 1,2,-1
 464 140 l 1,3,4
 453 68 453 68 400.5 28.5 c 128,-1,5
 348 -11 348 -11 270 -11 c 0,6,7
 173.815 -11 173.815 -11 113.908 57.3158 c 128,-1,8
 54 125.632 54 125.632 54 239.885 c 128,-1,9
 54 354.138 54 354.138 114.615 422.069 c 128,-1,10
 175.231 490 175.231 490 275.642 490 c 128,-1,11
 376.054 490 376.054 490 425.453 412.223 c 128,-1,12
 474.851 334.447 474.851 334.447 460 222 c 1,13,-1
 133 222 l 1,14,15
 133 147.824 133 147.824 168.822 100.412 c 128,-1,16
 204.644 53 204.644 53 270 53 c 0,0,1
327.5 415 m 0,17,18
 305 427 305 427 272.5 427 c 0,19,20
 210.55 427 210.55 427 175.388 385.633 c 128,-1,21
 140.227 344.267 140.227 344.267 134 282 c 1,22,-1
 389 282 l 1,23,24
 389 382.2 389 382.2 327.5 415 c 0,17,18
442 592 m 1,25,-1
 392 553 l 1,26,-1
 263 661 l 1,27,-1
 133 553 l 1,28,-1
 83 592 l 1,29,-1
 263 748 l 1,30,-1
 442 592 l 1,25,-1
EndSplineSet
Validated: 524321
EndChar
StartChar: edieresis
Encoding: 308 235 131
Width: 514
Flags: W
LayerCount: 2
Fore
SplineSet
51 239.885 m 128,-1,1
 51 354.138 51 354.138 111.615 422.069 c 128,-1,2
 172.231 490 172.231 490 272.642 490 c 128,-1,3
 373.054 490 373.054 490 422.453 412.223 c 128,-1,4
 471.851 334.447 471.851 334.447 457 222 c 1,5,-1
 130 222 l 1,6,7
 130 147.824 130 147.824 165.822 100.412 c 128,-1,8
 201.644 53 201.644 53 267 53 c 0,9,10
 366.159 53 366.159 53 380 140 c 1,11,-1
 461 140 l 1,12,13
 450 68 450 68 397.5 28.5 c 128,-1,14
 345 -11 345 -11 267 -11 c 0,15,16
 170.815 -11 170.815 -11 110.908 57.3158 c 128,-1,0
 51 125.632 51 125.632 51 239.885 c 128,-1,1
123 655 m 128,-1,26
 123 676 123 676 137.5 690.5 c 128,-1,27
 152 705 152 705 175 705 c 128,-1,28
 198 705 198 705 213.5 690.5 c 128,-1,29
 229 676 229 676 229 655 c 128,-1,30
 229 634 229 634 213.5 619.5 c 128,-1,31
 198 605 198 605 175 605 c 128,-1,32
 152 605 152 605 137.5 619.5 c 128,-1,25
 123 634 123 634 123 655 c 128,-1,26
131 282 m 1,17,-1
 386 282 l 1,18,19
 386 382.2 386 382.2 324.5 415 c 0,20,21
 302 427 302 427 269.5 427 c 0,22,23
 207.55 427 207.55 427 172.388 385.633 c 128,-1,24
 137.227 344.267 137.227 344.267 131 282 c 1,17,-1
291 655 m 128,-1,34
 291 676 291 676 306 690.5 c 128,-1,35
 321 705 321 705 343.5 705 c 128,-1,36
 366 705 366 705 381.5 690.5 c 128,-1,37
 397 676 397 676 397 655 c 128,-1,38
 397 634 397 634 381.5 619.5 c 128,-1,39
 366 605 366 605 343.5 605 c 128,-1,40
 321 605 321 605 306 619.5 c 128,-1,33
 291 634 291 634 291 655 c 128,-1,34
EndSplineSet
EndChar
StartChar: igrave
Encoding: 317 236 140
Width: 299
Flags: W
LayerCount: 2
Fore
SplineSet
12 661 m 1,0,-1
 45 731 l 1,1,-1
 280 598 l 1,2,-1
 257 548 l 1,3,-1
 12 661 l 1,0,-1
106 0 m 1,4,-1
 106 479 l 1,5,-1
 185 479 l 1,6,-1
 185 0 l 1,7,-1
 106 0 l 1,4,-1
EndSplineSet
Validated: 1
EndChar
StartChar: icircumflex
Encoding: 319 238 142
Width: 299
Flags: W
LayerCount: 2
Fore
SplineSet
106 479 m 1,0,-1
 185 479 l 1,1,-1
 185 0 l 1,2,-1
 106 0 l 1,3,-1
 106 479 l 1,0,-1
325 587 m 1,4,-1
 275 548 l 1,5,-1
 146 656 l 1,6,-1
 16 548 l 1,7,-1
 -34 587 l 1,8,-1
 146 743 l 1,9,-1
 325 587 l 1,4,-1
EndSplineSet
Validated: 1
EndChar
StartChar: idieresis
Encoding: 320 239 143
Width: 299
Flags: W
LayerCount: 2
Fore
SplineSet
9 655 m 128,-1,1
 9 676 9 676 23.5 690.5 c 128,-1,2
 38 705 38 705 61 705 c 128,-1,3
 84 705 84 705 99.5 690.5 c 128,-1,4
 115 676 115 676 115 655 c 128,-1,5
 115 634 115 634 99.5 619.5 c 128,-1,6
 84 605 84 605 61 605 c 128,-1,7
 38 605 38 605 23.5 619.5 c 128,-1,0
 9 634 9 634 9 655 c 128,-1,1
106 0 m 1,8,-1
 106 479 l 1,9,-1
 185 479 l 1,10,-1
 185 0 l 1,11,-1
 106 0 l 1,8,-1
177 655 m 128,-1,13
 177 676 177 676 192 690.5 c 128,-1,14
 207 705 207 705 229.5 705 c 128,-1,15
 252 705 252 705 267.5 690.5 c 128,-1,16
 283 676 283 676 283 655 c 128,-1,17
 283 634 283 634 267.5 619.5 c 128,-1,18
 252 605 252 605 229.5 605 c 128,-1,19
 207 605 207 605 192 619.5 c 128,-1,12
 177 634 177 634 177 655 c 128,-1,13
EndSplineSet
Validated: 1
EndChar
StartChar: eth
Encoding: 240 240 370
Width: 555
VWidth: 0
Flags: W
LayerCount: 2
Back
Fore
SplineSet
257 490 m 256,0,1
 179 490 179 490 119.5 426 c 128,-1,2
 60 362 60 362 60 242 c 0,3,4
 60 119 60 119 124.5 54 c 128,-1,5
 189 -11 189 -11 289 -11 c 0,6,7
 382 -11 382 -11 437 73 c 128,-1,8
 492 157 492 157 492 297 c 0,9,10
 492 434 492 434 440 556 c 128,-1,11
 388 678 388 678 254 810 c 1,12,-1
 184 771 l 257,13,14
 298 659 298 659 349.5 571.5 c 128,-1,15
 401 484 401 484 414 384 c 1,16,17
 367 490 367 490 257 490 c 256,0,1
279 59 m 256,18,19
 215 59 215 59 178 107.5 c 128,-1,20
 141 156 141 156 141 241 c 128,-1,21
 141 326 141 326 176.5 373.5 c 128,-1,22
 212 421 212 421 269 421 c 128,-1,23
 326 421 326 421 367 373.5 c 128,-1,24
 408 326 408 326 415 238 c 1,25,26
 396 59 396 59 279 59 c 256,18,19
216 558 m 257,27,-1
 503 723 l 257,28,-1
 465 775 l 257,29,-1
 179 610 l 257,30,-1
 216 558 l 257,27,-1
EndSplineSet
EndChar
StartChar: ntilde
Encoding: 323 241 162
Width: 604
Flags: W
LayerCount: 2
Fore
SplineSet
101 0 m 1,0,-1
 101 478 l 1,1,-1
 169 478 l 1,2,-1
 178 386 l 1,3,4
 225 490 225 490 339 490 c 0,5,6
 424 490 424 490 471.5 434 c 128,-1,7
 519 378 519 378 519 281 c 2,8,-1
 519 0 l 1,9,-1
 441 0 l 1,10,-1
 441 281 l 2,11,12
 441 350 441 350 408.5 385 c 128,-1,13
 376 420 376 420 316 420 c 128,-1,14
 256 420 256 420 219 371 c 128,-1,15
 182 322 182 322 180 235 c 1,16,-1
 180 0 l 1,17,-1
 101 0 l 1,0,-1
148 609 m 1,18,19
 160 660 160 660 183 686.5 c 128,-1,20
 206 713 206 713 232 713 c 128,-1,21
 258 713 258 713 292 696 c 0,22,23
 338 673 338 673 351.5 667 c 128,-1,24
 365 661 365 661 378 661 c 128,-1,25
 391 661 391 661 405 673.5 c 128,-1,26
 419 686 419 686 429 713 c 1,27,-1
 464 690 l 1,28,29
 453 642 453 642 428.5 616 c 128,-1,30
 404 590 404 590 383.5 590 c 128,-1,31
 363 590 363 590 346 596 c 128,-1,32
 329 602 329 602 299 617.5 c 128,-1,33
 269 633 269 633 258.5 637 c 128,-1,34
 248 641 248 641 237 641 c 0,35,36
 205 641 205 641 180 590 c 1,37,-1
 148 609 l 1,18,19
EndSplineSet
Validated: 1
EndChar
StartChar: ograve
Encoding: 279 242 100
Width: 547
Flags: W
LayerCount: 2
Fore
SplineSet
274 490 m 128,-1,1
 373.524 490 373.524 490 435.262 425.175 c 128,-1,2
 497 360.35 497 360.35 497 239 c 0,3,4
 497 118.65 497 118.65 435.262 53.825 c 128,-1,5
 373.524 -11 373.524 -11 274 -11 c 128,-1,6
 174.476 -11 174.476 -11 112.738 53.825 c 128,-1,7
 51 118.65 51 118.65 51 239 c 0,8,9
 51 360.35 51 360.35 112.738 425.175 c 128,-1,0
 174.476 490 174.476 490 274 490 c 128,-1,1
381 373.5 m 128,-1,11
 345 422 345 422 275.5 422 c 128,-1,12
 206 422 206 422 169 373.5 c 128,-1,13
 132 325 132 325 132 239.5 c 128,-1,14
 132 154 132 154 167 105.5 c 128,-1,15
 202 57 202 57 271.5 57 c 128,-1,16
 341 57 341 57 379 105.5 c 128,-1,17
 417 154 417 154 417 239.5 c 128,-1,10
 417 325 417 325 381 373.5 c 128,-1,11
174 731 m 1,18,-1
 409 598 l 1,19,-1
 386 548 l 1,20,-1
 141 661 l 1,21,-1
 174 731 l 1,18,-1
EndSplineSet
Validated: 1
EndChar
StartChar: oacute
Encoding: 285 243 106
Width: 546
LayerCount: 2
Back
SplineSet
274 490 m 256,0,1
 374.149987416 489.197538556 374.149987416 489.197538556 435.5 424.999999999 c 0,2,3
 497 360 497 360 497 239 c 0,4,5
 497 119 497 119 435.5 54 c 0,6,7
 374 -11 374 -11 274 -11 c 256,8,9
 174 -11 174 -11 112.5 54 c 0,10,11
 51 119 51 119 51 239 c 0,12,13
 51 360 51 360 112.5 425 c 0,14,15
 174.864095883 489.60199317 174.864095883 489.60199317 274 490 c 256,0,1
169 373.5 m 4,16,17
 132 325 132 325 132 239.5 c 0,18,19
 132 154 132 154 167 105.5 c 0,20,21
 202 57 202 57 271.5 57 c 0,22,23
 341 57 341 57 379 105.5 c 0,24,25
 417 154 417 154 417 239.5 c 0,26,27
 417 325 417 325 381 373.5 c 0,28,29
 345 422 345 422 275.5 422 c 0,30,31
 206 422 206 422 169 373.5 c 4,16,17
407 661 m 1,32,-1
 163 548 l 1,33,-1
 140 598 l 1,34,-1
 375 731 l 1,35,-1
 407 661 l 1,32,-1
EndSplineSet
Fore
Refer: 97 180 S 1 0 0 1 132 -127 2
Refer: 26 111 N 1 0 0 1 0 0 3
Validated: 1
EndChar
StartChar: ocircumflex
Encoding: 298 244 119
Width: 547
Flags: W
LayerCount: 2
Fore
SplineSet
51 239 m 0,0,1
 51 360 51 360 112.5 425 c 128,-1,2
 174 490 174 490 274 490 c 128,-1,3
 374 490 374 490 435.5 425 c 128,-1,4
 497 360 497 360 497 239 c 0,5,6
 497 119 497 119 435.5 54 c 128,-1,7
 374 -11 374 -11 274 -11 c 128,-1,8
 174 -11 174 -11 112.5 54 c 128,-1,9
 51 119 51 119 51 239 c 0,0,1
94 587 m 1,10,-1
 274 743 l 1,11,-1
 453 587 l 1,12,-1
 403 548 l 1,13,-1
 274 656 l 1,14,-1
 144 548 l 1,15,-1
 94 587 l 1,10,-1
132 239.5 m 128,-1,17
 132 154 132 154 167 105.5 c 128,-1,18
 202 57 202 57 271.5 57 c 128,-1,19
 341 57 341 57 379 105.5 c 128,-1,20
 417 154 417 154 417 239.5 c 128,-1,21
 417 325 417 325 381 373.5 c 128,-1,22
 345 422 345 422 275.5 422 c 128,-1,23
 206 422 206 422 169 373.5 c 128,-1,16
 132 325 132 325 132 239.5 c 128,-1,17
EndSplineSet
Validated: 1
EndChar
StartChar: otilde
Encoding: 324 245 163
Width: 547
Flags: W
LayerCount: 2
Fore
SplineSet
51 239 m 0,0,1
 51 118.65 51 118.65 112.738 53.825 c 128,-1,2
 174.476 -11 174.476 -11 274 -11 c 128,-1,3
 373.524 -11 373.524 -11 435.262 53.825 c 128,-1,4
 497 118.65 497 118.65 497 239 c 0,5,6
 497 360.35 497 360.35 435.262 425.175 c 128,-1,7
 373.524 490 373.524 490 274 490 c 128,-1,8
 174.476 490 174.476 490 112.738 425.175 c 128,-1,9
 51 360.35 51 360.35 51 239 c 0,0,1
117 609 m 1,18,19
 129 660 129 660 152 686.5 c 128,-1,20
 175 713 175 713 201 713 c 128,-1,21
 227 713 227 713 260.5 696 c 0,22,23
 306.676 672.568 306.676 672.568 320.171 666.784 c 128,-1,24
 333.667 661 333.667 661 346.833 661 c 128,-1,25
 360 661 360 661 374 673.5 c 128,-1,26
 388 686 388 686 398 713 c 1,27,-1
 433 690 l 1,28,29
 422 642 422 642 397.5 616 c 128,-1,30
 373 590 373 590 352.5 590 c 128,-1,31
 332 590 332 590 315 596 c 128,-1,32
 298 602 298 602 268 617.5 c 128,-1,33
 238 633 238 633 227.5 637 c 128,-1,34
 217 641 217 641 206 641 c 0,35,36
 173.621 641 173.621 641 149 590 c 1,37,-1
 117 609 l 1,18,19
132 239.5 m 128,-1,11
 132 325 132 325 169 373.5 c 128,-1,12
 206 422 206 422 275.5 422 c 128,-1,13
 345 422 345 422 381 373.5 c 128,-1,14
 417 325 417 325 417 239.5 c 128,-1,15
 417 154 417 154 379 105.5 c 128,-1,16
 341 57 341 57 271.5 57 c 128,-1,17
 202 57 202 57 167 105.5 c 128,-1,10
 132 154 132 154 132 239.5 c 128,-1,11
EndSplineSet
EndChar
StartChar: odieresis
Encoding: 309 246 132
Width: 547
Flags: W
LayerCount: 2
Fore
SplineSet
51 239 m 0,0,1
 51 360 51 360 112.5 425 c 128,-1,2
 174 490 174 490 274 490 c 128,-1,3
 374 490 374 490 435.5 425 c 128,-1,4
 497 360 497 360 497 239 c 0,5,6
 497 119 497 119 435.5 54 c 128,-1,7
 374 -11 374 -11 274 -11 c 128,-1,8
 174 -11 174 -11 112.5 54 c 128,-1,9
 51 119 51 119 51 239 c 0,0,1
132 239.5 m 128,-1,11
 132 154 132 154 167 105.5 c 128,-1,12
 202 57 202 57 271.5 57 c 128,-1,13
 341 57 341 57 379 105.5 c 128,-1,14
 417 154 417 154 417 239.5 c 128,-1,15
 417 325 417 325 381 373.5 c 128,-1,16
 345 422 345 422 275.5 422 c 128,-1,17
 206 422 206 422 169 373.5 c 128,-1,10
 132 325 132 325 132 239.5 c 128,-1,11
138 655 m 128,-1,19
 138 676 138 676 152.5 690.5 c 128,-1,20
 167 705 167 705 190 705 c 128,-1,21
 213 705 213 705 228.5 690.5 c 128,-1,22
 244 676 244 676 244 655 c 128,-1,23
 244 634 244 634 228.5 619.5 c 128,-1,24
 213 605 213 605 190 605 c 128,-1,25
 167 605 167 605 152.5 619.5 c 128,-1,18
 138 634 138 634 138 655 c 128,-1,19
306 655 m 128,-1,27
 306 676 306 676 321 690.5 c 128,-1,28
 336 705 336 705 358.5 705 c 128,-1,29
 381 705 381 705 396.5 690.5 c 128,-1,30
 412 676 412 676 412 655 c 128,-1,31
 412 634 412 634 396.5 619.5 c 128,-1,32
 381 605 381 605 358.5 605 c 128,-1,33
 336 605 336 605 321 619.5 c 128,-1,26
 306 634 306 634 306 655 c 128,-1,27
EndSplineSet
Validated: 1
EndChar
StartChar: oslash
Encoding: 363 248 202
Width: 546
Flags: W
LayerCount: 2
Fore
SplineSet
13 25 m 1,0,-1
 482 499 l 1,1,-1
 530 450 l 1,2,-1
 60 -23 l 1,3,-1
 13 25 l 1,0,-1
50 239 m 0,4,5
 50 360 50 360 111.5 425 c 128,-1,6
 173 490 173 490 273 490 c 128,-1,7
 373 490 373 490 434.5 425 c 128,-1,8
 496 360 496 360 496 239 c 0,9,10
 496 119 496 119 434.5 54 c 128,-1,11
 373 -11 373 -11 273 -11 c 128,-1,12
 173 -11 173 -11 111.5 54 c 128,-1,13
 50 119 50 119 50 239 c 0,4,5
131 239.5 m 128,-1,15
 131 154 131 154 166 105.5 c 128,-1,16
 201 57 201 57 270.5 57 c 128,-1,17
 340 57 340 57 378 105.5 c 128,-1,18
 416 154 416 154 416 239.5 c 128,-1,19
 416 325 416 325 380 373.5 c 128,-1,20
 344 422 344 422 274.5 422 c 128,-1,21
 205 422 205 422 168 373.5 c 128,-1,14
 131 325 131 325 131 239.5 c 128,-1,15
EndSplineSet
Validated: 5
EndChar
StartChar: uacute
Encoding: 286 250 107
Width: 606
LayerCount: 2
Back
SplineSet
267 -9 m 0,0,1
 187 -9 187 -9 136 36 c 0,2,3
 87 82 87 82 87 175 c 2,4,-1
 87 479 l 1,5,-1
 166 479 l 1,6,-1
 166 181 l 2,7,8
 166 60 166 60 278 60 c 0,9,10
 345 60 345 60 385 112 c 0,11,12
 426 164 426 164 426 246 c 2,13,-1
 426 479 l 1,14,-1
 505 479 l 1,15,-1
 505 0 l 1,16,-1
 426 0 l 1,17,-1
 426 95 l 1,18,19
 376 -9 376 -9 267 -9 c 0,0,1
433 699 m 1,20,-1
 189 586 l 1,21,-1
 166 636 l 1,22,-1
 401 769 l 1,23,-1
 433 699 l 1,20,-1
EndSplineSet
Fore
Refer: 97 180 N 1 0 0 1 140 -127 2
Refer: 32 117 N 1 0 0 1 0 0 3
Validated: 1
EndChar
StartChar: ucircumflex
Encoding: 251 251 120
Width: 606
Flags: W
LayerCount: 2
Back
Fore
SplineSet
426 95 m 1,0,1
 377.059 -9 377.059 -9 267 -9 c 0,2,3
 186 -9 186 -9 136.5 36 c 128,-1,4
 87 81 87 81 87 175 c 2,5,-1
 87 479 l 1,6,-1
 166 479 l 1,7,-1
 166 181 l 2,8,9
 166 60 166 60 278 60 c 0,10,11
 342.875 60 342.875 60 383.5 110 c 128,-1,12
 423.996 159.841 423.996 159.841 426 238 c 1,13,-1
 426 479 l 1,14,-1
 505 479 l 1,15,-1
 505 0 l 1,16,-1
 426 0 l 1,17,-1
 426 95 l 1,0,1
480 625 m 1,18,-1
 430 586 l 1,19,-1
 301 694 l 1,20,-1
 171 586 l 1,21,-1
 121 625 l 1,22,-1
 301 781 l 1,23,-1
 480 625 l 1,18,-1
EndSplineSet
Validated: 524289
EndChar
StartChar: udieresis
Encoding: 310 252 133
Width: 606
Flags: W
LayerCount: 2
Fore
SplineSet
87 175 m 2,0,-1
 87 479 l 1,1,-1
 166 479 l 1,2,-1
 166 181 l 2,3,4
 166 60 166 60 278 60 c 0,5,6
 343 60 343 60 383.5 110 c 128,-1,7
 424 160 424 160 426 238 c 1,8,-1
 426 479 l 1,9,-1
 505 479 l 1,10,-1
 505 0 l 1,11,-1
 426 0 l 1,12,-1
 426 95 l 1,13,14
 377 -9 377 -9 267 -9 c 0,15,16
 186 -9 186 -9 136.5 36 c 128,-1,17
 87 81 87 81 87 175 c 2,0,-1
164 655 m 128,-1,19
 164 676 164 676 178.5 690.5 c 128,-1,20
 193 705 193 705 216 705 c 128,-1,21
 239 705 239 705 254.5 690.5 c 128,-1,22
 270 676 270 676 270 655 c 128,-1,23
 270 634 270 634 254.5 619.5 c 128,-1,24
 239 605 239 605 216 605 c 128,-1,25
 193 605 193 605 178.5 619.5 c 128,-1,18
 164 634 164 634 164 655 c 128,-1,19
332 655 m 128,-1,27
 332 676 332 676 347 690.5 c 128,-1,28
 362 705 362 705 384.5 705 c 128,-1,29
 407 705 407 705 422.5 690.5 c 128,-1,30
 438 676 438 676 438 655 c 128,-1,31
 438 634 438 634 422.5 619.5 c 128,-1,32
 407 605 407 605 384.5 605 c 128,-1,33
 362 605 362 605 347 619.5 c 128,-1,26
 332 634 332 634 332 655 c 128,-1,27
EndSplineSet
Validated: 1
EndChar
StartChar: thorn
Encoding: 532 254 371
Width: 594
VWidth: 0
Flags: W
LayerCount: 2
Fore
SplineSet
101 -235 m 257,0,-1
 101 640 l 257,1,-1
 180 640 l 257,2,-1
 180 414 l 1,3,4
 226 490 226 490 315 490 c 0,5,6
 415 490 415 490 474.5 414.5 c 128,-1,7
 534 339 534 339 534 239 c 0,8,9
 534 137 534 137 473.5 63 c 128,-1,10
 413 -11 413 -11 316 -11 c 256,11,12
 224 -11 224 -11 180 58 c 257,13,-1
 180 -235 l 257,14,-1
 101 -235 l 257,0,-1
180 194 m 2,15,16
 180 132 180 132 217 95.5 c 128,-1,17
 254 59 254 59 312 59 c 256,18,19
 378 59 378 59 415.5 114.5 c 128,-1,20
 453 170 453 170 453 238 c 0,21,22
 453 309 453 309 416 364.5 c 128,-1,23
 379 420 379 420 314 420 c 0,24,25
 256 420 256 420 219 383.5 c 128,-1,26
 182 347 182 347 180 285 c 258,27,-1
 180 194 l 2,15,16
EndSplineSet
Validated: 1
EndChar
StartChar: dotlessi
Encoding: 316 305 139
Width: 280
Flags: W
LayerCount: 2
Fore
SplineSet
101 479 m 1,0,-1
 180 479 l 1,1,-1
 180 0 l 1,2,-1
 101 0 l 1,3,-1
 101 479 l 1,0,-1
EndSplineSet
Validated: 1
EndChar
StartChar: Lslash
Encoding: 452 321 291
Width: 498
Flags: W
LayerCount: 2
Fore
SplineSet
312.885742188 475.8515625 m 1,0,-1
 350 419 l 1,1,-1
 65.529296875 211.844726562 l 1,2,-1
 28.4150390625 268.696289062 l 1,3,-1
 312.885742188 475.8515625 l 1,0,-1
210 69 m 1,4,-1
 490 69 l 1,5,-1
 490 0 l 1,6,-1
 131 0 l 1,7,-1
 131 629 l 1,8,-1
 210 629 l 1,9,-1
 210 69 l 1,4,-1
EndSplineSet
EndChar
StartChar: lslash
Encoding: 322 322 292
Width: 354
Flags: W
LayerCount: 2
Back
Fore
SplineSet
284.885742188 460.8515625 m 1,0,-1
 322 404 l 1,1,-1
 70 220 l 1,2,-1
 32.8857421875 276.8515625 l 1,3,-1
 284.885742188 460.8515625 l 1,0,-1
133 681 m 1,4,-1
 212 681 l 1,5,-1
 212 0 l 1,6,-1
 133 0 l 1,7,-1
 133 681 l 1,4,-1
EndSplineSet
EndChar
StartChar: OE
Encoding: 331 338 170
Width: 938
Flags: W
LayerCount: 2
Fore
SplineSet
132 313 m 128,-1,1
 132 189 132 189 183 125 c 128,-1,2
 234 61 234 61 312 61 c 128,-1,3
 390 61 390 61 441.5 125 c 128,-1,4
 493 189 493 189 493 313 c 128,-1,5
 493 437 493 437 441.5 503 c 128,-1,6
 390 569 390 569 312 569 c 128,-1,7
 234 569 234 569 183 503 c 128,-1,0
 132 437 132 437 132 313 c 128,-1,1
50 314 m 0,8,9
 50 473 50 473 124.5 556.5 c 128,-1,10
 199 640 199 640 322 640 c 0,11,12
 420 640 420 640 493 563 c 1,13,-1
 493 629 l 1,14,-1
 880 629 l 1,15,-1
 880 561 l 1,16,-1
 572 561 l 1,17,-1
 572 350 l 1,18,-1
 862 350 l 1,19,-1
 862 283 l 1,20,-1
 572 283 l 25,21,22
 572 69 l 1,23,-1
 880 69 l 1,24,-1
 880 0 l 1,25,-1
 493 0 l 1,26,-1
 493 64 l 1,27,28
 420 -11 420 -11 312 -11 c 0,29,30
 199 -11 199 -11 124.5 72.5 c 128,-1,31
 50 156 50 156 50 314 c 0,8,9
EndSplineSet
Validated: 1
EndChar
StartChar: oe
Encoding: 330 339 169
Width: 876
Flags: W
LayerCount: 2
Fore
SplineSet
50 239 m 0,0,1
 50 360 50 360 111.5 425 c 128,-1,2
 173 490 173 490 273 490 c 128,-1,3
 373 490 373 490 434 425 c 0,4,5
 446 413 446 413 456 398 c 1,6,7
 465 412 465 412 476 426 c 0,8,9
 537 494 537 494 637.5 494 c 128,-1,10
 738 494 738 494 788 416 c 0,11,12
 825 358 825 358 825 280 c 0,13,14
 825 278 825 278 825 276 c 0,15,16
 825 252 825 252 822 226 c 1,17,-1
 496 226 l 1,18,19
 496 219 496 219 495 211 c 0,20,21
 498 147 498 147 531 104 c 0,22,23
 567 56 567 56 632 56 c 0,24,25
 731 56 731 56 745 144 c 1,26,-1
 826 144 l 1,27,28
 815 72 815 72 762.5 32 c 128,-1,29
 710 -8 710 -8 632 -8 c 0,30,31
 536 -8 536 -8 476 61 c 0,32,33
 466 72 466 72 458 84 c 1,34,35
 448 68 448 68 434 54 c 0,36,37
 372 -11 372 -11 272.5 -11 c 128,-1,38
 173 -11 173 -11 111.5 54 c 128,-1,39
 50 119 50 119 50 239 c 0,0,1
131 239.5 m 128,-1,41
 131 154 131 154 166 106 c 0,42,43
 200 58 200 58 270 57 c 0,44,45
 340 58 340 58 378 106 c 0,46,47
 414 152 414 152 416 232 c 0,48,49
 416 238 416 238 416 243 c 0,50,51
 416 247 416 247 416 251 c 0,52,53
 414 328 414 328 380 374 c 0,54,55
 344 422 344 422 274.5 422 c 128,-1,56
 205 422 205 422 168 373.5 c 128,-1,40
 131 325 131 325 131 239.5 c 128,-1,41
496 286 m 1,57,-1
 751 286 l 1,58,59
 751 386 751 386 689 418 c 0,60,61
 667 430 667 430 634 430 c 0,62,63
 572 430 572 430 537 389 c 128,-1,64
 502 348 502 348 496 286 c 1,57,-1
EndSplineSet
Validated: 1
EndChar
StartChar: uni0181
Encoding: 447 385 286
Width: 622
Flags: W
LayerCount: 2
Fore
SplineSet
101 0 m 1,0,-1
 101 629 l 1,1,-1
 336 629 l 2,2,3
 435 629 435 629 488.5 582 c 128,-1,4
 542 535 542 535 542 464 c 0,5,6
 542 410 542 410 512.5 370 c 128,-1,7
 483 330 483 330 423 316 c 1,8,9
 482 306 482 306 517.5 265 c 128,-1,10
 553 224 553 224 553 172 c 0,11,12
 553 171 553 171 553 170 c 0,13,14
 553 56 553 56 440 15 c 0,15,16
 398 0 398 0 337 0 c 2,17,-1
 101 0 l 1,0,-1
180 69 m 1,18,-1
 335 69 l 2,19,20
 407 69 407 69 438 98 c 128,-1,21
 469 127 469 127 469 175 c 128,-1,22
 469 223 469 223 435 251.5 c 128,-1,23
 401 280 401 280 335 280 c 2,24,-1
 180 280 l 1,25,-1
 180 69 l 1,18,-1
180 348 m 1,26,-1
 334 348 l 2,27,28
 392 348 392 348 426.5 376.5 c 128,-1,29
 461 405 461 405 461 455 c 128,-1,30
 461 505 461 505 427.5 533 c 128,-1,31
 394 561 394 561 334 561 c 2,32,-1
 180 561 l 1,33,-1
 180 348 l 1,26,-1
EndSplineSet
Validated: 1
EndChar
StartChar: uni018E
Encoding: 450 398 289
Width: 562
Flags: W
LayerCount: 2
Fore
SplineSet
487 629 m 1,0,-1
 100 629 l 1,1,-1
 100 561 l 1,2,-1
 408 561 l 1,3,-1
 408 350 l 1,4,-1
 118 350 l 1,5,-1
 118 283 l 1,6,-1
 408 283 l 1,7,-1
 408 69 l 1,8,-1
 100 69 l 1,9,-1
 100 0 l 1,10,-1
 487 0 l 1,11,-1
 487 629 l 1,0,-1
EndSplineSet
EndChar
StartChar: uni01DD
Encoding: 477 477 290
Width: 515
Flags: W
LayerCount: 2
Back
Fore
SplineSet
245 424 m 4,0,1
 145.840820312 424 145.840820312 424 132 337 c 5,2,-1
 51 337 l 5,3,4
 62 409 62 409 114.5 448.5 c 132,-1,5
 167 488 167 488 245 488 c 4,6,7
 341.184570312 488 341.184570312 488 401.091796875 419.684570312 c 132,-1,8
 461 351.368164062 461 351.368164062 461 237.115234375 c 132,-1,9
 461 122.862304688 461 122.862304688 400.384765625 54.9306640625 c 132,-1,10
 339.768554688 -13 339.768554688 -13 239.358398438 -13 c 132,-1,11
 138.946289062 -13 138.946289062 -13 89.546875 64.77734375 c 132,-1,12
 40.1494140625 142.552734375 40.1494140625 142.552734375 55 255 c 5,13,-1
 382 255 l 5,14,15
 382 329.17578125 382 329.17578125 346.177734375 376.587890625 c 132,-1,16
 310.356445312 424 310.356445312 424 245 424 c 4,0,1
187.5 62 m 4,17,18
 210 50 210 50 242.5 50 c 4,19,20
 304.450195312 50 304.450195312 50 339.612304688 91.3671875 c 132,-1,21
 374.7734375 132.733398438 374.7734375 132.733398438 381 195 c 5,22,-1
 126 195 l 5,23,24
 126 94.7998046875 126 94.7998046875 187.5 62 c 4,17,18
EndSplineSet
EndChar
StartChar: uni0202
Encoding: 614 514 533
Width: 575
VWidth: 0
LayerCount: 2
Fore
SplineSet
26 0 m 1,0,-1
 242 629 l 1,1,-1
 338 629 l 1,2,-1
 549 0 l 1,3,-1
 467 0 l 1,4,-1
 413 160 l 1,5,-1
 163 160 l 1,6,-1
 109 0 l 1,7,-1
 26 0 l 1,0,-1
184 222 m 1,8,-1
 393 222 l 1,9,-1
 289 532 l 1,10,-1
 184 222 l 1,8,-1
139 700 m 1,11,12
 140 752 140 752 166 784 c 128,-1,13
 192 816 192 816 222 825.5 c 128,-1,14
 252 835 252 835 288 835 c 0,15,16
 429 835 429 835 440 700 c 1,17,-1
 372 700 l 1,18,19
 369 732 369 732 349.5 749 c 128,-1,20
 330 766 330 766 290 766 c 0,21,22
 214 766 214 766 206 700 c 1,23,-1
 139 700 l 1,11,12
EndSplineSet
Validated: 1
EndChar
StartChar: uni0203
Encoding: 615 515 534
Width: 560
VWidth: 0
LayerCount: 2
Fore
SplineSet
70 139 m 128,-1,1
 70 203 70 203 122 239 c 0,2,3
 173 275 173 275 250 275 c 128,-1,4
 327 275 327 275 397 249 c 1,5,-1
 397 310 l 2,6,7
 397 375 397 375 370 403 c 128,-1,8
 343 431 343 431 291.5 431 c 128,-1,9
 240 431 240 431 208.5 410.5 c 128,-1,10
 177 390 177 390 177 346 c 1,11,-1
 90 346 l 1,12,13
 90 456 90 456 208 482 c 0,14,15
 244 490 244 490 286 490 c 0,16,17
 375 490 375 490 425 445 c 128,-1,18
 475 400 475 400 475 308 c 2,19,-1
 475 0 l 1,20,-1
 407 0 l 1,21,-1
 399 80 l 1,22,23
 355 -11 355 -11 240 -11 c 0,24,25
 162 -11 162 -11 116 32 c 128,-1,0
 70 75 70 75 70 139 c 128,-1,1
154 140 m 0,26,27
 154 50 154 50 256 50 c 0,28,29
 314 50 314 50 355.5 91.5 c 128,-1,30
 397 133 397 133 397 199 c 1,31,32
 326 219 326 219 273 219 c 128,-1,33
 220 219 220 219 187 200 c 128,-1,34
 154 181 154 181 154 140 c 0,26,27
135 550 m 1,35,36
 136 602 136 602 162 634 c 128,-1,37
 188 666 188 666 218 675.5 c 128,-1,38
 248 685 248 685 284 685 c 0,39,40
 425 685 425 685 436 550 c 1,41,-1
 368 550 l 1,42,43
 365 582 365 582 345.5 599 c 128,-1,44
 326 616 326 616 286 616 c 0,45,46
 210 616 210 616 202 550 c 1,47,-1
 135 550 l 1,35,36
EndSplineSet
Validated: 1
EndChar
StartChar: uni0206
Encoding: 616 518 535
Width: 562
VWidth: 0
LayerCount: 2
Fore
SplineSet
100 0 m 1,0,-1
 100 629 l 1,1,-1
 487 629 l 1,2,-1
 487 561 l 1,3,-1
 179 561 l 1,4,-1
 179 350 l 1,5,-1
 469 350 l 1,6,-1
 469 283 l 1,7,-1
 179 283 l 1,8,-1
 179 69 l 1,9,-1
 487 69 l 1,10,-1
 487 0 l 1,11,-1
 100 0 l 1,0,-1
143 700 m 1,12,13
 144 752 144 752 170 784 c 128,-1,14
 196 816 196 816 226 825.5 c 128,-1,15
 256 835 256 835 292 835 c 0,16,17
 433 835 433 835 444 700 c 1,18,-1
 376 700 l 1,19,20
 373 732 373 732 353.5 749 c 128,-1,21
 334 766 334 766 294 766 c 0,22,23
 218 766 218 766 210 700 c 1,24,-1
 143 700 l 1,12,13
EndSplineSet
Validated: 1
EndChar
StartChar: uni0207
Encoding: 617 519 536
Width: 515
VWidth: 0
LayerCount: 2
Fore
SplineSet
50 240 m 128,-1,1
 50 354 50 354 110.5 422 c 128,-1,2
 171 490 171 490 271.5 490 c 128,-1,3
 372 490 372 490 422 412 c 0,4,5
 459 354 459 354 459 276 c 0,6,7
 459 248 459 248 456 222 c 1,8,-1
 129 222 l 1,9,10
 129 148 129 148 165 100.5 c 128,-1,11
 201 53 201 53 266 53 c 0,12,13
 365 53 365 53 379 140 c 1,14,-1
 460 140 l 1,15,16
 449 68 449 68 396.5 28.5 c 128,-1,17
 344 -11 344 -11 266 -11 c 0,18,19
 170 -11 170 -11 110 57.5 c 128,-1,0
 50 126 50 126 50 240 c 128,-1,1
130 282 m 1,20,-1
 385 282 l 1,21,22
 385 284 385 284 385 285 c 0,23,24
 385 382 385 382 324 415 c 0,25,26
 302 427 302 427 268 427 c 0,27,28
 206 427 206 427 171 385.5 c 128,-1,29
 136 344 136 344 130 282 c 1,20,-1
121 550 m 1,30,31
 122 602 122 602 148 634 c 128,-1,32
 174 666 174 666 204 675.5 c 128,-1,33
 234 685 234 685 270 685 c 0,34,35
 411 685 411 685 422 550 c 1,36,-1
 354 550 l 1,37,38
 351 582 351 582 331.5 599 c 128,-1,39
 312 616 312 616 272 616 c 0,40,41
 196 616 196 616 188 550 c 1,42,-1
 121 550 l 1,30,31
EndSplineSet
Validated: 1
EndChar
StartChar: uni0237
Encoding: 567 567 295
Width: 314
Flags: W
LayerCount: 2
Back
Fore
SplineSet
33 -177 m 0,0,1
 121 -177 121 -177 121 -67 c 2,2,-1
 121 480 l 1,3,-1
 200 480 l 1,4,-1
 200 -67 l 2,5,6
 200 -203.857 200 -203.857 110 -236 c 0,7,8
 82 -246 82 -246 48 -246 c 0,9,10
 -14.0556 -246 -14.0556 -246 -86 -209 c 1,11,-1
 -82 -140 l 1,12,13
 -18.8824 -177 -18.8824 -177 33 -177 c 0,0,1
EndSplineSet
EndChar
StartChar: uni0243
Encoding: 343 579 182
Width: 622
Flags: W
LayerCount: 2
Fore
SplineSet
16 137 m 1,0,-1
 16 203 l 1,1,-1
 101 203 l 1,2,-1
 101 629 l 1,3,-1
 336 629 l 2,4,5
 435 629 435 629 488.5 582 c 128,-1,6
 542 535 542 535 542 464 c 0,7,8
 542 410 542 410 512.5 370 c 128,-1,9
 483 330 483 330 423 316 c 1,10,11
 482 306 482 306 517.5 265 c 128,-1,12
 553 224 553 224 553 172 c 0,13,14
 553 171 553 171 553 170 c 0,15,16
 553 56 553 56 440 15 c 0,17,18
 398 0 398 0 337 0 c 2,19,-1
 101 0 l 1,20,-1
 101 137 l 1,21,-1
 16 137 l 1,0,-1
180 69 m 1,22,-1
 335 69 l 2,23,24
 407 69 407 69 438 98 c 128,-1,25
 469 127 469 127 469 175 c 128,-1,26
 469 223 469 223 435 251.5 c 128,-1,27
 401 280 401 280 335 280 c 2,28,-1
 180 280 l 1,29,-1
 180 203 l 1,30,-1
 309 203 l 1,31,-1
 309 137 l 1,32,-1
 180 137 l 1,33,-1
 180 69 l 1,22,-1
180 348 m 1,34,-1
 334 348 l 2,35,36
 392 348 392 348 426.5 376.5 c 128,-1,37
 461 405 461 405 461 455 c 128,-1,38
 461 505 461 505 427.5 533 c 128,-1,39
 394 561 394 561 334 561 c 2,40,-1
 180 561 l 1,41,-1
 180 348 l 1,34,-1
EndSplineSet
Validated: 1
EndChar
StartChar: uni0253
Encoding: 449 595 288
Width: 584
Flags: W
LayerCount: 2
Fore
SplineSet
101 0 m 1,0,-1
 101 681 l 1,1,-1
 180 681 l 1,2,-1
 180 407 l 1,3,4
 228 490 228 490 320 490 c 128,-1,5
 412 490 412 490 473 421.5 c 128,-1,6
 534 353 534 353 534 240.5 c 128,-1,7
 534 128 534 128 472 58.5 c 128,-1,8
 410 -11 410 -11 321 -11 c 0,9,10
 273 -11 273 -11 234.5 13 c 128,-1,11
 196 37 196 37 174 84 c 1,12,-1
 156 0 l 1,13,-1
 101 0 l 1,0,-1
180 204 m 2,14,15
 180 138 180 138 219.5 98.5 c 128,-1,16
 259 59 259 59 315 59 c 128,-1,17
 371 59 371 59 412 108.5 c 128,-1,18
 453 158 453 158 453 240 c 128,-1,19
 453 322 453 322 412.5 371 c 128,-1,20
 372 420 372 420 315 420 c 128,-1,21
 258 420 258 420 220 383.5 c 128,-1,22
 182 347 182 347 180 282 c 1,23,-1
 180 204 l 2,14,15
EndSplineSet
Validated: 1
EndChar
StartChar: uni0257
Encoding: 448 599 287
Width: 594
Flags: W
LayerCount: 2
Fore
SplineSet
60 241.5 m 128,-1,1
 60 354 60 354 120.5 422 c 128,-1,2
 181 490 181 490 273.5 490 c 128,-1,3
 366 490 366 490 414 407 c 1,4,-1
 414 681 l 1,5,-1
 492 681 l 1,6,-1
 492 0 l 1,7,-1
 428 0 l 1,8,-1
 418 80 l 1,9,10
 395 35 395 35 357 12 c 128,-1,11
 319 -11 319 -11 274 -11 c 0,12,13
 183 -11 183 -11 121.5 59 c 128,-1,0
 60 129 60 129 60 241.5 c 128,-1,1
141 240 m 128,-1,15
 141 158 141 158 181 108.5 c 128,-1,16
 221 59 221 59 277 59 c 128,-1,17
 333 59 333 59 372.5 96.5 c 128,-1,18
 412 134 412 134 414 197 c 1,19,-1
 414 275 l 2,20,21
 414 342 414 342 375 381 c 128,-1,22
 336 420 336 420 278 420 c 128,-1,23
 220 420 220 420 180.5 371 c 128,-1,14
 141 322 141 322 141 240 c 128,-1,15
EndSplineSet
Validated: 1
EndChar
StartChar: apostrophe
Encoding: 261 700 65
Width: 184
Flags: W
LayerCount: 2
Fore
SplineSet
36 504 m 1,0,1
 98 534 98 534 111 579 c 1,2,3
 88 581 88 581 73 594 c 128,-1,4
 58 607 58 607 58 629 c 128,-1,5
 58 651 58 651 73.5 666 c 128,-1,6
 89 681 89 681 117.5 681 c 128,-1,7
 146 681 146 681 165 658.5 c 128,-1,8
 184 636 184 636 184 602 c 128,-1,9
 184 568 184 568 162 532.5 c 128,-1,10
 140 497 140 497 95 475 c 1,11,-1
 36 504 l 1,0,1
EndSplineSet
Validated: 1
EndChar
StartChar: circumflex
Encoding: 295 710 116
Width: 407
Flags: W
LayerCount: 2
Fore
SplineSet
24 716 m 1,0,-1
 204 872 l 1,1,-1
 383 716 l 1,2,-1
 333 677 l 1,3,-1
 204 785 l 1,4,-1
 74 677 l 1,5,-1
 24 716 l 1,0,-1
EndSplineSet
EndChar
StartChar: caron
Encoding: 337 711 176
Width: 407
Flags: W
LayerCount: 2
Fore
SplineSet
24 837 m 1,0,-1
 74 876 l 1,1,-1
 204 768 l 1,2,-1
 333 876 l 1,3,-1
 383 837 l 1,4,-1
 204 681 l 1,5,-1
 24 837 l 1,0,-1
EndSplineSet
Validated: 1
EndChar
StartChar: breve
Encoding: 503 728 342
Width: 333
Flags: W
LayerCount: 2
Back
SplineSet
449 675 m 1,0,1
 449 612 449 612 395 580 c 0
 341 548 341 548 262 548 c 0,2,3
 184 548 184 548 131.5 581 c 0
 79 614 79 614 77 675 c 1,4,-1
 154 675 l 1,5,6
 163 610.000488282 163 610.000488282 264 610 c 0,7,8
 303 610 303 610 334.5 628 c 0
 366 646 366 646 366 675 c 1,9,-1
 449 675 l 1,0,1
EndSplineSet
Fore
SplineSet
15 732 m 1,0,-1
 82 732 l 1,1,2
 90 666 90 666 166 666 c 0,3,4
 206 666 206 666 225.5 683 c 128,-1,5
 245 700 245 700 248 732 c 1,6,-1
 316 732 l 1,7,8
 305 597 305 597 164 597 c 0,9,10
 128 597 128 597 98 606.5 c 128,-1,11
 68 616 68 616 42 648 c 128,-1,12
 16 680 16 680 15 732 c 1,0,-1
EndSplineSet
EndChar
StartChar: ring
Encoding: 334 730 173
Width: 434
VWidth: 0
Flags: W
LayerCount: 2
Fore
SplineSet
51 689 m 0,0,1
 51 738 51 738 85.5 772 c 128,-1,2
 120 806 120 806 169 806 c 0,3,4
 217 806 217 806 252 772 c 128,-1,5
 287 738 287 738 287 689 c 128,-1,6
 287 640 287 640 252.5 605.5 c 128,-1,7
 218 571 218 571 169 571 c 128,-1,8
 120 571 120 571 85.5 605.5 c 128,-1,9
 51 640 51 640 51 689 c 0,0,1
103 689 m 0,10,11
 103 662 103 662 121.5 642 c 128,-1,12
 140 622 140 622 169 622 c 0,13,14
 197 622 197 622 216 641.5 c 128,-1,15
 235 661 235 661 235 688.5 c 128,-1,16
 235 716 235 716 215.5 735 c 128,-1,17
 196 754 196 754 169 754 c 0,18,19
 141 754 141 754 122 735 c 128,-1,20
 103 716 103 716 103 689 c 0,10,11
EndSplineSet
Validated: 1
EndChar
StartChar: ogonek
Encoding: 731 731 299
Width: 614
VWidth: 2000
Flags: W
LayerCount: 2
Back
Fore
SplineSet
309.5 -179 m 0,0,1
 216 -179 216 -179 216 -96.5 c 0,2,3
 216 -56 216 -56 261.578125 -12.8271484375 c 0,4,5
 275 -0 275 -0 291.256835938 9.8203125 c 1,6,-1
 334.255859375 2.892578125 l 1,7,8
 279 -32 279 -32 279.104492188 -79.169921875 c 0,9,10
 279 -99 279 -99 290.5 -110.5 c 0,11,12
 318.6 -138.6 318.6 -138.6 369 -105 c 1,13,-1
 385.666992188 -151.641601562 l 1,14,15
 356 -179 356 -179 309.5 -179 c 0,0,1
EndSplineSet
EndChar
StartChar: tilde
Encoding: 305 732 126
Width: 366
Flags: W
LayerCount: 2
Fore
SplineSet
23 738 m 1,0,1
 35 789 35 789 58 815.5 c 128,-1,2
 81 842 81 842 107 842 c 0,3,4
 132 842 132 842 166 825 c 0,5,6
 212 802 212 802 226 796 c 128,-1,7
 240 790 240 790 253 790 c 128,-1,8
 266 790 266 790 280 802.5 c 128,-1,9
 294 815 294 815 304 842 c 1,10,-1
 339 819 l 1,11,12
 328 771 328 771 303.5 745 c 128,-1,13
 279 719 279 719 258.5 719 c 128,-1,14
 238 719 238 719 221 725 c 128,-1,15
 204 731 204 731 174 746.5 c 128,-1,16
 144 762 144 762 133.5 766 c 128,-1,17
 123 770 123 770 112 770 c 0,18,19
 80 770 80 770 55 719 c 1,20,-1
 23 738 l 1,0,1
EndSplineSet
Validated: 1
EndChar
StartChar: hungarumlaut
Encoding: 533 733 372
Width: 422
Flags: W
LayerCount: 2
Fore
SplineSet
36 655 m 1,4,-1
 153 899 l 1,5,-1
 219 860 l 1,6,-1
 84 627 l 1,7,-1
 36 655 l 1,4,-1
203 655 m 1,0,-1
 320 899 l 1,1,-1
 386 860 l 1,2,-1
 251 627 l 1,3,-1
 203 655 l 1,0,-1
EndSplineSet
EndChar
StartChar: gravecomb
Encoding: 575 768 494
Width: 0
Flags: W
LayerCount: 2
Fore
SplineSet
-406 661 m 1,0,-1
 -373 731 l 1,1,-1
 -138 598 l 1,2,-1
 -161 548 l 1,3,-1
 -406 661 l 1,0,-1
EndSplineSet
Validated: 1
EndChar
StartChar: uni0307
Encoding: 574 775 493
Width: 0
Flags: W
LayerCount: 2
Fore
SplineSet
-327 606.5 m 128,-1,1
 -327 630 -327 630 -310.5 646.5 c 128,-1,2
 -294 663 -294 663 -268.5 663 c 128,-1,3
 -243 663 -243 663 -226 646.5 c 128,-1,4
 -209 630 -209 630 -209 606.5 c 128,-1,5
 -209 583 -209 583 -226 566.5 c 128,-1,6
 -243 550 -243 550 -268.5 550 c 128,-1,7
 -294 550 -294 550 -310.5 566.5 c 128,-1,0
 -327 583 -327 583 -327 606.5 c 128,-1,1
EndSplineSet
Validated: 1
EndChar
StartChar: uni0308
Encoding: 582 776 501
Width: 0
Flags: W
LayerCount: 2
Fore
SplineSet
-409 654 m 128,-1,1
 -409 675 -409 675 -394.5 690 c 128,-1,2
 -380 705 -380 705 -357 705 c 128,-1,3
 -334 705 -334 705 -318.5 690 c 128,-1,4
 -303 675 -303 675 -303 654 c 128,-1,5
 -303 633 -303 633 -318.5 619 c 128,-1,6
 -334 605 -334 605 -357 605 c 128,-1,7
 -380 605 -380 605 -394.5 619 c 128,-1,0
 -409 633 -409 633 -409 654 c 128,-1,1
-241 654 m 128,-1,9
 -241 675 -241 675 -226 690 c 128,-1,10
 -211 705 -211 705 -188.5 705 c 128,-1,11
 -166 705 -166 705 -150.5 690 c 128,-1,12
 -135 675 -135 675 -135 654 c 128,-1,13
 -135 633 -135 633 -150.5 619 c 128,-1,14
 -166 605 -166 605 -188.5 605 c 128,-1,15
 -211 605 -211 605 -226 619 c 128,-1,8
 -241 633 -241 633 -241 654 c 128,-1,9
EndSplineSet
Validated: 1
EndChar
StartChar: uni0313
Encoding: 586 787 505
Width: 0
Flags: W
LayerCount: 2
Fore
SplineSet
-306 589 m 1,0,1
 -243 619 -243 619 -231 664 c 1,2,3
 -253 666 -253 666 -268 679 c 128,-1,4
 -283 692 -283 692 -283 714 c 128,-1,5
 -283 736 -283 736 -268 751 c 128,-1,6
 -253 766 -253 766 -224 766 c 128,-1,7
 -195 766 -195 766 -176 743.5 c 128,-1,8
 -157 721 -157 721 -157 687 c 128,-1,9
 -157 653 -157 653 -179 617.5 c 128,-1,10
 -201 582 -201 582 -247 560 c 1,11,-1
 -306 589 l 1,0,1
EndSplineSet
Validated: 1
EndChar
StartChar: uni0315
Encoding: 588 789 507
Width: 0
Flags: W
LayerCount: 2
Fore
SplineSet
-176 589 m 1,0,1
 -113 619 -113 619 -101 664 c 1,2,3
 -123 666 -123 666 -138 679 c 128,-1,4
 -153 692 -153 692 -153 714 c 128,-1,5
 -153 736 -153 736 -138 751 c 128,-1,6
 -123 766 -123 766 -94 766 c 128,-1,7
 -65 766 -65 766 -46 743.5 c 128,-1,8
 -27 721 -27 721 -27 687 c 128,-1,9
 -27 653 -27 653 -49 617.5 c 128,-1,10
 -71 582 -71 582 -117 560 c 1,11,-1
 -176 589 l 1,0,1
EndSplineSet
Validated: 1
EndChar
StartChar: dotbelowcomb
Encoding: 589 803 508
Width: 0
Flags: W
LayerCount: 2
Fore
SplineSet
-377 -103.5 m 128,-1,1
 -377 -80 -377 -80 -360.5 -63.5 c 128,-1,2
 -344 -47 -344 -47 -318.5 -47 c 128,-1,3
 -293 -47 -293 -47 -276 -63.5 c 128,-1,4
 -259 -80 -259 -80 -259 -103.5 c 128,-1,5
 -259 -127 -259 -127 -276 -143.5 c 128,-1,6
 -293 -160 -293 -160 -318.5 -160 c 128,-1,7
 -344 -160 -344 -160 -360.5 -143.5 c 128,-1,0
 -377 -127 -377 -127 -377 -103.5 c 128,-1,1
EndSplineSet
Validated: 1
EndChar
StartChar: uni040D
Encoding: 539 1037 442
Width: 669
Flags: W
HStem: 0 21G<101 229.59 489 568> 609 20G<101 180 439.41 568> 682 21G<287.832 327.793>
VStem: 101 79<68 629> 489 79<0 561>
LayerCount: 2
Fore
SplineSet
116 872 m 1
 171 926 l 1
 347 721 l 1
 308 682 l 1
 116 872 l 1
EndSplineSet
Refer: 385 1048 N 1 0 0 1 0 0 2
Validated: 1
EndChar
StartChar: afii10018
Encoding: 177 1041 378
Width: 622
Flags: W
HStem: 0 69<180 428.47> 280 68<180 423.934> 561 68<180 465>
VStem: 101 79<69 280 348 561> 469 84<109.097 239.155>
LayerCount: 2
Fore
SplineSet
334 348 m 2,0,1
 367 348 367 348 402 339.5 c 128,-1,2
 437 331 437 331 472.5 312 c 128,-1,3
 508 293 508 293 530.5 256.5 c 128,-1,4
 553 220 553 220 553 172 c 0,5,6
 553 55 553 55 440 15 c 0,7,8
 398 0 398 0 337 0 c 2,9,-1
 101 0 l 1,10,-1
 101 629 l 1,11,-1
 465 629 l 1,12,-1
 465 561 l 1,13,-1
 180 561 l 1,14,-1
 180 348 l 1,15,-1
 334 348 l 2,0,1
335 69 m 6,16,17
 407 69 407 69 438 98 c 128,-1,18
 469 127 469 127 469 175 c 256,19,20
 469 223 469 223 435 251.5 c 128,-1,21
 401 280 401 280 335 280 c 2,22,-1
 180 280 l 1,23,-1
 180 69 l 1,24,-1
 335 69 l 6,16,17
EndSplineSet
EndChar
StartChar: afii10020
Encoding: 179 1043 380
Width: 524
Flags: W
HStem: 0 21G<101 180> 561 68<180 483>
VStem: 101 79<0 561>
LayerCount: 2
Fore
SplineSet
101 629 m 1,0,-1
 483 629 l 1,1,-1
 483 561 l 1,2,-1
 180 561 l 1,3,-1
 180 0 l 1,4,-1
 101 0 l 1,5,-1
 101 629 l 1,0,-1
EndSplineSet
EndChar
StartChar: afii10021
Encoding: 180 1044 381
Width: 618
Flags: W
HStem: -81 149<11 67.6857 531 568> 0 68<134.267 448> 561 68<230 448>
VStem: 11 79<-81 0> 160 70<271.72 561> 448 83<68 561> 489 79<-81 0>
LayerCount: 2
Fore
SplineSet
11 68 m 1,0,-1
 62 68 l 1,1,2
 106 120 106 120 138 229 c 128,-1,3
 170 338 170 338 170 460 c 2,4,-1
 170 629 l 1,5,-1
 541 629 l 1,6,-1
 541 68 l 1,7,-1
 598 68 l 1,8,-1
 598 -150 l 5,9,-1
 519 -150 l 5,10,-1
 519 0 l 1,11,-1
 90 0 l 1,12,-1
 90 -150 l 5,13,-1
 11 -150 l 5,14,-1
 11 68 l 1,0,-1
144 68 m 1,15,-1
 458 68 l 1,16,-1
 458 561 l 1,17,-1
 240 561 l 1,18,-1
 240 436 l 2,19,20
 240 320 240 320 212 222 c 0,21,22
 188 138 188 138 144 68 c 1,15,-1
EndSplineSet
Validated: 8388609
Substitution2: "'locl' Localized Forms in Cyrillic lookup 1-1" afii10021.loclBGR
EndChar
StartChar: afii10024
Encoding: 182 1046 383
Width: 914
Flags: W
HStem: 0 21G<10 128.701 417 497 785.299 904> 609 20G<27 155.313 417 497 758.687 887>
VStem: 417 80<0 227 338 629>
LayerCount: 2
Fore
SplineSet
10 0 m 1,0,-1
 302 346 l 1,1,-1
 27 629 l 1,2,-1
 136 629 l 1,3,-1
 417 338 l 1,4,-1
 417 629 l 1,5,-1
 497 629 l 1,6,-1
 497 338 l 1,7,-1
 778 629 l 1,8,-1
 887 629 l 1,9,-1
 612 346 l 1,10,-1
 904 0 l 1,11,-1
 802 0 l 1,12,-1
 559 291 l 1,13,-1
 497 227 l 1,14,-1
 497 0 l 1,15,-1
 417 0 l 1,16,-1
 417 227 l 1,17,-1
 355 291 l 1,18,-1
 112 0 l 1,19,-1
 10 0 l 1,0,-1
EndSplineSet
Substitution2: "'locl' Localized Forms in Cyrillic lookup 1-1" afii10024.loclBGR
EndChar
StartChar: afii10025
Encoding: 183 1047 384
Width: 591
Flags: W
HStem: -11 72<201.443 388.167> 290 63<215 365.82> 568 72<198.74 373.206>
VStem: 52 82<121.92 193> 70 82<476 523.725> 420 85<399.128 523.128> 444 85<112.683 242.437>
LayerCount: 2
Fore
SplineSet
505 468 m 0,0,1
 505 368 505 368 395 329 c 1,2,3
 455 312 455 312 492 273 c 0,4,5
 529 234 529 234 529 173 c 0,6,7
 529 90.0000000005 529 90.0000000005 466 39.5 c 0,8,9
 403 -11 403 -11 300 -11 c 0,10,11
 197 -11 197 -11 124.5 42.5 c 0,12,13
 52 96 52 96 52 193 c 1,14,-1
 134 193 l 1,15,16
 136 129 136 129 181.5 95 c 0,17,18
 227 61 227 61 297 61 c 0,19,20
 367 61 367 61 405.5 94.5 c 0,21,22
 444 128 444 128 444 177.5 c 0,23,24
 444 227 444 227 407 258.5 c 0,25,26
 370 290 370 290 287 290 c 2,27,-1
 215 290 l 1,28,-1
 215 353 l 1,29,-1
 264 353 l 2,30,31
 336 353 336 353 378 381.5 c 0,32,33
 420 410 420 410 420 458 c 0,34,35
 420 506 420 506 386 537 c 0,36,37
 352 568 352 568 296 568 c 0,38,39
 240.000000001 568 240.000000001 568 202.5 548.5 c 0,40,41
 165 529 165 529 152 476 c 1,42,-1
 70 476 l 1,43,44
 81 559 81 559 139 599.5 c 0,45,46
 197 640 197 640 288.5 640 c 0,47,48
 380 640 380 640 442.5 591.5 c 0,49,50
 505 543 505 543 505 468 c 0,0,1
EndSplineSet
EndChar
StartChar: afii10026
Encoding: 184 1048 385
Width: 669
Flags: W
HStem: 0 21G<101 229.59 489 568> 609 20G<101 180 439.41 568>
VStem: 101 79<68 629> 489 79<0 561>
LayerCount: 2
Fore
SplineSet
101 0 m 1,0,-1
 101 629 l 1,1,-1
 180 629 l 1,2,-1
 180 68 l 1,3,-1
 449 629 l 1,4,-1
 489 629 l 1,5,-1
 568 629 l 1,6,-1
 568 0 l 1,7,-1
 489 0 l 1,8,-1
 489 561 l 1,9,-1
 220 0 l 1,10,-1
 180 0 l 1,11,-1
 101 0 l 1,0,-1
EndSplineSet
Substitution2: "'locl' Localized Forms in Cyrillic lookup 1-1" afii10026.loclBGR
EndChar
StartChar: afii10029
Encoding: 187 1051 388
Width: 589
Flags: W
HStem: -11 69<23.026 113.347> 0 21G<471 554> 561 68<253 471>
VStem: 173 80<199.65 561> 471 83<0 561>
LayerCount: 2
Fore
SplineSet
22 0 m 1,0,-1
 22 68 l 1,1,2
 58 58 58 58 71 58 c 0,3,4
 122 58 122 58 147.5 149.5 c 128,-1,5
 173 241 173 241 173 442 c 2,6,-1
 173 629 l 1,7,-1
 554 629 l 1,8,-1
 554 0 l 1,9,-1
 471 0 l 1,10,-1
 471 561 l 1,11,-1
 253 561 l 1,12,-1
 253 374 l 2,13,14
 253 -11 253 -11 66 -11 c 0,15,16
 50 -11 50 -11 22 0 c 1,0,-1
EndSplineSet
Validated: 8388609
Substitution2: "'locl' Localized Forms in Cyrillic lookup 1-1" afii10029.loclBGR
EndChar
StartChar: afii10033
Encoding: 191 1055 392
Width: 669
Flags: W
HStem: 0 21G<101 180 489 568> 561 68<180 489>
VStem: 101 79<0 561> 489 79<0 561>
LayerCount: 2
Fore
SplineSet
101 0 m 1,0,-1
 101 629 l 1,1,-1
 568 629 l 1,2,-1
 568 0 l 1,3,-1
 489 0 l 1,4,-1
 489 561 l 1,5,-1
 180 561 l 1,6,-1
 180 0 l 1,7,-1
 101 0 l 1,0,-1
EndSplineSet
Validated: 1
EndChar
StartChar: afii10037
Encoding: 195 1059 396
Width: 612
Flags: W
HStem: 0 21G<158 263.507> 609 20G<47 151.025 449.421 553>
LayerCount: 2
Fore
SplineSet
47 629 m 1,0,-1
 142 629 l 1,1,-1
 304 270 l 1,2,-1
 458 629 l 1,3,-1
 553 629 l 1,4,-1
 254 0 l 1,5,-1
 158 0 l 1,6,-1
 252 210 l 1,7,-1
 47 629 l 1,0,-1
EndSplineSet
Validated: 1
EndChar
StartChar: afii10041
Encoding: 199 1063 400
Width: 654
Flags: W
HStem: 0 21G<486 565> 179 72<234.627 441.02> 609 20G<87 166 486 565>
VStem: 87 79<319.119 629> 486 79<0 227.17 288.109 629>
LayerCount: 2
Fore
SplineSet
166 629 m 1,0,-1
 166 417 l 2,1,2
 166 328.999511718 166 328.999511718 210 290 c 128,-1,3
 253.999511718 251 253.999511718 251 326 251 c 0,4,5
 383 251 383 251 418.5 263 c 128,-1,6
 454 275 454 275 486 305 c 1,7,-1
 486 629 l 1,8,-1
 565 629 l 1,9,-1
 565 0 l 1,10,-1
 486 0 l 1,11,-1
 486 227.169910057 l 1,12,13
 423.613318789 179 423.613318789 179 325.5 179 c 0,14,15
 216 179 216 179 151.5 239 c 128,-1,16
 87 299 87 299 87 417 c 2,17,-1
 87 629 l 1,18,-1
 166 629 l 1,0,-1
EndSplineSet
EndChar
StartChar: afii10044
Encoding: 202 1066 403
Width: 659
Flags: W
HStem: 0 68<250 455.525> 318 68<250 458.087> 561 68<26 171>
VStem: 171 79<68 318 386 561> 506 81<118.024 271.002>
LayerCount: 2
Fore
SplineSet
532.5 52.5 m 0,0,1
 478.000488282 0 478.000488282 0 374 0 c 2,2,-1
 250 0 l 1,3,-1
 171 0 l 1,4,-1
 171 561 l 1,5,-1
 26 561 l 1,6,-1
 26 629 l 1,7,-1
 250 629 l 1,8,-1
 250 386 l 1,9,-1
 374 386 l 2,10,11
 477.999511718 386 477.999511718 386 532.5 334.5 c 0,12,13
 586.999511718 283.000488282 586.999511718 283.000488282 587 194 c 0,14,15
 587 105.000488282 587 105.000488282 532.5 52.5 c 0,0,1
250 68 m 1,16,-1
 374 68 l 2,17,18
 438.999511718 68 438.999511718 68 472.5 102.5 c 0,19,20
 505.999511718 137 505.999511718 137 506 194.5 c 0,21,22
 506 251.999511718 506 251.999511718 472.5 285 c 0,23,24
 439.000488282 318 439.000488282 318 374 318 c 2,25,-1
 250 318 l 1,26,-1
 250 68 l 1,16,-1
EndSplineSet
EndChar
StartChar: afii10045
Encoding: 203 1067 404
Width: 800
Flags: W
HStem: 0 68<178 383.525> 318 68<178 386.087> 609 20G<99 178 621 700>
VStem: 99 79<68 318 386 629> 434 81<118.024 271.002> 621 79<0 629>
LayerCount: 2
Fore
SplineSet
99 0 m 1,0,-1
 99 629 l 1,1,-1
 178 629 l 1,2,-1
 178 386 l 1,3,-1
 302 386 l 2,4,5
 406 386 406 386 460.5 334.5 c 128,-1,6
 515 283 515 283 515 194 c 128,-1,7
 515 105 515 105 460.5 52.5 c 128,-1,8
 406 0 406 0 302 0 c 2,9,-1
 99 0 l 1,0,-1
178 68 m 1,10,-1
 302 68 l 2,11,12
 367 68 367 68 400.5 102.5 c 128,-1,13
 434 137 434 137 434 194.5 c 128,-1,14
 434 252 434 252 400.5 285 c 128,-1,15
 367 318 367 318 302 318 c 2,16,-1
 178 318 l 1,17,-1
 178 68 l 1,10,-1
621 0 m 1,18,-1
 621 629 l 1,19,-1
 700 629 l 1,20,-1
 700 0 l 1,21,-1
 621 0 l 1,18,-1
EndSplineSet
Validated: 1
EndChar
StartChar: afii10047
Encoding: 205 1069 406
Width: 613
Flags: W
HStem: -11 71<204.581 382.785> 273 68<240 479.021> 569 71<216.775 377.796>
VStem: 51 85<125.223 204> 479.021 86.9789<176.778 273 341 454.375>
LayerCount: 2
Fore
SplineSet
51 204 m 1,0,-1
 136 204 l 1,1,2
 136 139.000488282 136 139.000488282 179.5 99.5 c 128,-1,3
 223 60.0004882812 223 60.0004882812 298 60 c 0,4,5
 388 60 388 60 434.5 131 c 0,6,7
 471.407347444 187.35276661 471.407347444 187.35276661 479.021097139 273 c 1,8,-1
 240 273 l 1,9,-1
 240 341 l 1,10,-1
 480.546368023 341 l 1,11,12
 476.143200776 443.164135226 476.143200776 443.164135226 429 503 c 0,13,14
 376.999511718 569 376.999511718 569 298 569 c 0,15,16
 241 569 241 569 198.5 534.5 c 128,-1,17
 156.000488282 500 156.000488282 500 136 441 c 1,18,-1
 51 458 l 1,19,20
 73.9995117188 539 73.9995117188 539 135.5 589.5 c 128,-1,21
 197 640.000488282 197 640.000488282 298 640 c 0,22,23
 416.000488282 640 416.000488282 640 491 555.5 c 128,-1,24
 566 471.000488282 566 471.000488282 566 320 c 128,-1,25
 566 168.999511718 566 168.999511718 493.5 79 c 128,-1,26
 421.000488282 -11 421.000488282 -11 303.5 -11 c 128,-1,27
 186.000488282 -11 186.000488282 -11 118.5 47 c 128,-1,28
 51 105.000488281 51 105.000488281 51 204 c 1,0,-1
EndSplineSet
EndChar
StartChar: afii10048
Encoding: 206 1070 407
Width: 879
Flags: W
HStem: -11 72<423.962 602.16> 0 21G<101 180> 284 68<180 241.703> 569 71<425.007 600.834> 609 20G<101 180>
VStem: 101 79<0 284 352 629> 241.703 81.2967<176.525 284 352 449.082> 704 82<177.9 449.128>
LayerCount: 2
Fore
SplineSet
101 0 m 1,0,-1
 101 629 l 1,1,-1
 180 629 l 1,2,-1
 180 352 l 1,3,-1
 242.128827475 352 l 1,4,5
 250.1704307 483.278279917 250.1704307 483.278279917 315.5 556.5 c 0,6,7
 390.000488282 640.000488282 390.000488282 640.000488282 513 640 c 0,8,9
 634.999511718 640 634.999511718 640 710.5 556.5 c 128,-1,10
 785.999511718 472.999511718 785.999511718 472.999511718 786 313.5 c 128,-1,11
 786 154.000488282 786 154.000488282 711 71.5 c 128,-1,12
 636 -11 636 -11 513 -11 c 128,-1,13
 390 -11 390 -11 315.5 72.5 c 0,14,15
 248.238179432 147.887356375 248.238179432 147.887356375 241.703315481 284 c 1,16,-1
 180 284 l 1,17,-1
 180 0 l 1,18,-1
 101 0 l 1,0,-1
323 313 m 128,-1,20
 323 188.999511718 323 188.999511718 374 125 c 128,-1,21
 425 60.9995117188 425 60.9995117188 513 61 c 128,-1,22
 601.000488282 61 601.000488282 61 652.5 125 c 128,-1,23
 703.999511718 189.000488282 703.999511718 189.000488282 704 313 c 128,-1,24
 704 437.000488282 704 437.000488282 652.5 503 c 128,-1,25
 601.000488282 569 601.000488282 569 513 569 c 128,-1,26
 424.999511718 569 424.999511718 569 374 503 c 128,-1,19
 323 437 323 437 323 313 c 128,-1,20
EndSplineSet
EndChar
StartChar: afii10049
Encoding: 207 1071 408
Width: 577
Flags: W
HStem: 0 21G<31 145.685 406 485> 257 55<296 406> 561 68<180.101 406>
VStem: 47 81<363.55 511.913> 406 79<0 257 312 561>
LayerCount: 2
Fore
SplineSet
31 0 m 1,0,-1
 211 261 l 1,1,2
 130 275 130 275 88.5 323 c 128,-1,3
 47 371 47 371 47 449 c 128,-1,4
 47 527 47 527 103.5 578 c 128,-1,5
 160 629 160 629 266 629 c 2,6,-1
 485 629 l 1,7,-1
 485 0 l 1,8,-1
 406 0 l 1,9,-1
 406 257 l 1,10,-1
 296 257 l 1,11,-1
 133 0 l 1,12,-1
 31 0 l 1,0,-1
128 437.5 m 128,-1,14
 128 381 128 381 164.5 346.5 c 128,-1,15
 201 312 201 312 272 312 c 2,16,-1
 406 312 l 1,17,-1
 406 561 l 1,18,-1
 266 561 l 2,19,20
 199 561 199 561 163.5 527.5 c 128,-1,13
 128 494 128 494 128 437.5 c 128,-1,14
EndSplineSet
Validated: 1
EndChar
StartChar: afii10066
Encoding: 209 1073 410
Width: 523
Flags: W
HStem: -11 70<191.238 331.922> 420 70<188.634 332.076> 661 20G<356.779 380.8>
VStem: 50 79<121.963 361.356 407 503.086> 402 81<142.703 338.019>
LayerCount: 2
Fore
SplineSet
50 200 m 2,0,-1
 50 386 l 2,1,2
 50 452 50 452 74.5 510 c 0,3,4
 97 563 97 563 148 595 c 0,5,6
 156 600 156 600 250 635 c 0,7,8
 357 676 357 676 368 681 c 1,9,-1
 400 631 l 1,10,11
 380 620 380 620 278 577 c 0,12,13
 202 545 202 545 181 533.5 c 128,-1,14
 160 522 160 522 134.5 490.5 c 128,-1,15
 109 459 109 459 109 422 c 2,16,-1
 109 362 l 1,17,18
 172 469 172 469 274 469 c 128,-1,19
 376 469 376 469 429.5 407.5 c 128,-1,20
 483 346 483 346 483 240.5 c 0,21,22
 483 125 483 125 434 57 c 128,-1,23
 385 -11 385 -11 270 -11 c 4,24,25
 161 -11 161 -11 105.5 51 c 132,-1,26
 50 113 50 113 50 200 c 2,0,-1
129 204 m 2,27,28
 129 142 129 142 167 97.5 c 128,-1,29
 205 53 205 53 264 53 c 0,30,31
 336 53 336 53 369 94.5 c 128,-1,32
 402 136 402 136 402 219.5 c 128,-1,33
 402 303 402 303 369.5 351 c 128,-1,34
 337 399 337 399 264 399 c 0,35,36
 205 399 205 399 167 360.5 c 128,-1,37
 129 322 129 322 129 261 c 2,38,-1
 129 204 l 2,27,28
EndSplineSet
EndChar
StartChar: afii10067
Encoding: 210 1074 411
Width: 523
Flags: W
HStem: 0 59<129 372.25> 229 56<129 317.831> 422 68<129 349.149>
VStem: 50 79<59 229 285 422> 357 88<322.019 409.518> 402 81<87.3598 198.512>
LayerCount: 2
Fore
SplineSet
327 346 m 0,0,1
 327 380 327 380 306 394.413085938 c 0,2,3
 282.5 411 282.5 411 240 411 c 2,4,-1
 129 411 l 1,5,-1
 129 274 l 1,6,-1
 240 274 l 2,7,8
 295 274 295 274 311 289.5 c 128,-1,9
 327 305 327 305 327 346 c 0,0,1
266 479 m 2,10,11
 328 479 328 479 372 447.5 c 0,12,13
 415 416 415 416 415 360 c 0,14,15
 415 320 415 320 399.5 292.5 c 128,-1,16
 384 265 384 265 354 258 c 1,17,18
 411 243 411 243 432 215 c 128,-1,19
 453 187 453 187 453 130.5 c 0,20,21
 453 60 453 60 406.5 30 c 0,22,23
 358 0 358 0 266 0 c 2,24,-1
 50 0 l 1,25,-1
 50 479 l 5,26,-1
 266 479 l 2,10,11
129 218 m 1,27,-1
 129 59 l 1,28,-1
 258 59 l 2,29,30
 315 59 315 59 342.5 72 c 0,31,32
 372 85 372 85 372 130 c 0,33,34
 372 180 372 180 342 199 c 0,35,36
 313 218 313 218 258 218 c 2,37,-1
 129 218 l 1,27,-1
EndSplineSet
EndChar
StartChar: afii10068
Encoding: 211 1075 412
Width: 400
Flags: W
HStem: 0 21G<50 129> 411 68<129 390>
VStem: 50 79<0 411>
LayerCount: 2
Fore
SplineSet
50 479 m 1,0,-1
 360 479 l 5,1,-1
 360 411 l 5,2,-1
 129 411 l 1,3,-1
 129 0 l 1,4,-1
 50 0 l 1,5,-1
 50 479 l 1,0,-1
EndSplineSet
EndChar
StartChar: afii10069
Encoding: 212 1076 413
Width: 546
Flags: W
HStem: -82 150<50 119.298 496 552> 0 68<194.885 407> 411 68<227 407>
VStem: 50 79<-82 0> 141 86<96.5265 411> 407 89<68 411> 473 79<-82 0>
LayerCount: 2
Fore
SplineSet
129 0 m 1,0,-1
 129 -82 l 1,1,-1
 50 -82 l 1,2,-1
 50 68 l 1,3,-1
 106.36851496 68 l 1,4,5
 128.157098997 90.4418432536 128.157098997 90.4418432536 134.578549499 153.993870667 c 128,-1,6
 141 217.545898081 141 217.545898081 141 334 c 2,7,-1
 141 479 l 5,8,-1
 496 479 l 1,9,-1
 496 68 l 1,10,-1
 552 68 l 1,11,-1
 552 -82 l 1,12,-1
 473 -82 l 1,13,-1
 473 0 l 1,14,-1
 129 0 l 1,0,-1
407 68 m 1,15,-1
 407 411 l 1,16,-1
 227 411 l 1,17,-1
 227 298 l 2,18,19
 227 138.319768454 227 138.319768454 194.885260201 68 c 1,20,-1
 407 68 l 1,15,-1
EndSplineSet
EndChar
StartChar: afii10072
Encoding: 214 1078 415
Width: 803
Flags: W
HStem: 0 21G<10 122.099 362 441 680.901 793> 459 20G<21 154.814 362 441 648.186 782>
VStem: 362 79<0 201 285 479>
LayerCount: 2
Fore
SplineSet
30 0 m 5,0,-1
 251 297 l 5,1,-1
 62 479 l 5,2,-1
 172 479 l 5,3,-1
 362 290 l 5,4,-1
 362 479 l 5,5,-1
 441 479 l 5,6,-1
 441 290 l 5,7,-1
 631 479 l 5,8,-1
 741 479 l 5,9,-1
 552 297 l 5,10,-1
 773 0 l 5,11,-1
 676 0 l 5,12,-1
 495 251 l 5,13,-1
 441 201 l 5,14,-1
 441 0 l 5,15,-1
 362 0 l 5,16,-1
 362 201 l 5,17,-1
 308 251 l 5,18,-1
 127 0 l 5,19,-1
 30 0 l 5,0,-1
EndSplineSet
Validated: 1
Substitution2: "'locl' Localized Forms in Cyrillic lookup 1-1" afii10072.loclBGR
EndChar
StartChar: afii10073
Encoding: 215 1079 416
Width: 463
Flags: W
HStem: -11 70<140.943 298.539> 234 54<152 272.567> 430 68<127.568 277.802>
VStem: 298 87<312.352 409.419> 343 80<97.4289 195.725>
LayerCount: 2
Fore
SplineSet
211 490 m 3,0,1
 287 490 287 490 326 468 c 0,2,3
 385 434 385 434 385 362 c 3,4,5
 385 302 385 302 325 272 c 1,6,7
 423 243 423 243 423 150 c 3,8,9
 423 66 423 66 364 27 c 0,10,11
 308 -11 308 -11 231 -11 c 3,12,13
 129 -11 129 -11 74 31.5 c 128,-1,14
 19 74 19 74 18 141 c 1,15,-1
 94 141 l 1,16,17
 94 108 94 108 117 84 c 0,18,19
 147 51 147 51 225 51 c 3,20,21
 276 51 276 51 310 78 c 0,22,23
 343 104 343 104 343 145 c 0,24,25
 342 194 342 194 296 216 c 0,26,27
 258 234 258 234 205 234 c 2,28,-1
 152 234 l 1,29,-1
 152 288 l 1,30,-1
 205 288 l 2,31,32
 256 288 256 288 279 311 c 0,33,34
 298 331 298 331 298 361 c 0,35,36
 298 427 298 427 212 427 c 3,37,38
 164 427 164 427 137 403 c 0,39,40
 117 385 117 385 117 362 c 1,41,-1
 34 362 l 0,42,43
 35 423 35 423 95 462 c 0,44,45
 138 490 138 490 211 490 c 3,0,1
EndSplineSet
Validated: 8388609
Substitution2: "'locl' Localized Forms in Cyrillic lookup 1-1" afii10073.loclBGR
EndChar
StartChar: afii10074
Encoding: 216 1080 417
Width: 519
Flags: W
HStem: 0 21G<50 143.46 390 469> 459 20G<50 129 375.54 469>
VStem: 50 79<118 479> 390 79<0 361>
LayerCount: 2
Fore
SplineSet
50 479 m 1,0,-1
 129 479 l 5,1,-1
 129 118 l 1,2,-1
 390 479 l 1,3,-1
 469 479 l 1,4,-1
 469 0 l 1,5,-1
 390 0 l 1,6,-1
 390 361 l 1,7,-1
 129 0 l 1,8,-1
 50 0 l 1,9,-1
 50 479 l 1,0,-1
EndSplineSet
EndChar
StartChar: afii10076
Encoding: 218 1082 419
Width: 491
Flags: W
HStem: 0 21G<50 129 368.901 481> 458 20G<50 129 336.062 470>
VStem: 50 79<0 201 285 478>
LayerCount: 2
Fore
SplineSet
50 0 m 1,0,-1
 50 478 l 1,1,-1
 129 478 l 1,2,-1
 129 285 l 1,3,-1
 360 478 l 1,4,-1
 470 478 l 1,5,-1
 250 299 l 1,6,-1
 481 0 l 1,7,-1
 384 0 l 1,8,-1
 193 253 l 1,9,-1
 129 201 l 1,10,-1
 129 0 l 1,11,-1
 50 0 l 1,0,-1
EndSplineSet
EndChar
StartChar: afii10077
Encoding: 219 1083 420
Width: 546
Flags: W
HStem: -11 81<21.0269 114.835> 0 21G<407 496> 411 68<227 407>
VStem: 141 86<102.55 411> 407 89<0 411>
LayerCount: 2
Fore
SplineSet
407 0 m 1,0,-1
 407 411 l 1,1,-1
 227 411 l 1,2,-1
 227 298 l 2,3,4
 227 228 227 228 221.5 178 c 128,-1,5
 216 128 216 128 200.5 82 c 128,-1,6
 185 36 185 36 153.5 12.5 c 128,-1,7
 122 -11 122 -11 75 -11 c 0,8,9
 52 -11 52 -11 20 2 c 1,10,-1
 20 82 l 1,11,12
 56 70 56 70 81 70 c 0,13,14
 119 70 119 70 130 132.5 c 128,-1,15
 141 195 141 195 141 334 c 2,16,-1
 141 479 l 1,17,-1
 496 479 l 1,18,-1
 496 0 l 1,19,-1
 407 0 l 1,0,-1
EndSplineSet
EndChar
StartChar: afii10079
Encoding: 221 1085 422
Width: 519
Flags: W
HStem: 0 21G<50 129 390 469> 227 68<129 390> 459 20G<50 129 390 469>
VStem: 50 79<0 227 295 479> 390 79<0 227 295 479>
LayerCount: 2
Fore
SplineSet
50 479 m 5,0,-1
 129 479 l 5,1,-1
 129 295 l 5,2,-1
 390 295 l 5,3,-1
 390 479 l 5,4,-1
 469 479 l 5,5,-1
 469 0 l 5,6,-1
 390 0 l 5,7,-1
 390 227 l 5,8,-1
 129 227 l 5,9,-1
 129 0 l 5,10,-1
 50 0 l 5,11,-1
 50 479 l 5,0,-1
EndSplineSet
EndChar
StartChar: afii10081
Encoding: 223 1087 424
Width: 519
Flags: W
HStem: 0 21G<50 129 390 469> 411 68<129 390>
VStem: 50 79<0 411> 390 79<0 411>
LayerCount: 2
Fore
SplineSet
50 0 m 1,0,-1
 50 479 l 1,1,-1
 469 479 l 1,2,-1
 469 0 l 1,3,-1
 390 0 l 1,4,-1
 390 411 l 1,5,-1
 129 411 l 1,6,-1
 129 0 l 1,7,-1
 50 0 l 1,0,-1
EndSplineSet
Substitution2: "'locl' Localized Forms in Cyrillic lookup 1-1" afii10081.loclBGR
EndChar
StartChar: afii10084
Encoding: 226 1090 427
Width: 491
Flags: W
HStem: 0 21G<211 290> 411 68<20 211 290 471>
VStem: 211 79<0 411>
LayerCount: 2
Fore
SplineSet
20 411 m 1,0,-1
 20 479 l 1,1,-1
 471 479 l 1,2,-1
 471 411 l 1,3,-1
 290 411 l 1,4,-1
 290 0 l 1,5,-1
 211 0 l 1,6,-1
 211 411 l 1,7,-1
 20 411 l 1,0,-1
EndSplineSet
EndChar
StartChar: afii10086
Encoding: 228 1092 429
Width: 791
Flags: W
HStem: -11 68<187.216 342.679 448.321 603.784> 422 68<184.354 339.724 451.276 606.646> 661 20G<356 435>
VStem: 40 80<132.406 349.702> 356 79<-200 6.32812 73.707 403.984 472.672 681> 671 80<132.406 349.702>
LayerCount: 2
Fore
SplineSet
40 239 m 0,10,11
 40 360.000488282 40 360.000488282 101.5 425 c 128,-1,12
 163 489.999511718 163 489.999511718 263 490 c 0,13,14
 314.631347657 490 314.631347657 490 356 472.671875 c 1,15,-1
 356 681 l 1,16,-1
 435 681 l 1,17,-1
 435 472.671875 l 1,18,19
 476.368652343 489.999511718 476.368652343 489.999511718 528 490 c 0,20,21
 628.000488282 490 628.000488282 490 689.5 425 c 128,-1,22
 751 360.000488282 751 360.000488282 751 239 c 0,23,24
 751 119 751 119 689.5 54 c 128,-1,25
 628 -10.9995117188 628 -10.9995117188 528 -11 c 0,26,27
 476.368652343 -11 476.368652343 -11 435 6.328125 c 1,28,-1
 435 -200 l 1,29,-1
 356 -200 l 1,30,-1
 356 6.328125 l 1,31,32
 314.631347657 -10.9995117188 314.631347657 -10.9995117188 263 -11 c 0,33,34
 162.999511718 -11 162.999511718 -11 101.5 54 c 128,-1,35
 40 118.999511719 40 118.999511719 40 239 c 0,10,11
120 239.5 m 128,-1,37
 120 154 120 154 158 105.5 c 128,-1,38
 195.999511718 57.0004882812 195.999511718 57.0004882812 265.5 57 c 0,39,40
 322.252441407 57 322.252441407 57 356 89.33984375 c 1,41,-1
 356 387.125 l 1,42,43
 320.435058593 422 320.435058593 422 261.5 422 c 0,44,45
 192.000488282 422 192.000488282 422 156 373.5 c 128,-1,36
 120 325.000488282 120 325.000488282 120 239.5 c 128,-1,37
435 89.33984375 m 1,0,1
 468.747070312 57.0004882812 468.747070312 57.0004882812 525.5 57 c 0,2,3
 594.999511718 57 594.999511718 57 633 105.5 c 128,-1,4
 670.999511718 153.999511718 670.999511718 153.999511718 671 239.5 c 128,-1,5
 671 325 671 325 635 373.5 c 128,-1,6
 599 421.999511718 599 421.999511718 529.5 422 c 0,7,8
 470.564941407 422 470.564941407 422 435 387.125 c 1,9,-1
 435 89.33984375 l 1,0,1
EndSplineSet
EndChar
StartChar: afii10088
Encoding: 230 1094 431
Width: 525
Flags: W
HStem: 0 68<129 389> 459 20G<50 129 389 468>
VStem: 50 79<68 479> 389 79<68 479> 433 72<-82 0>
LayerCount: 2
Fore
SplineSet
50 0 m 1,0,-1
 50 479 l 1,1,-1
 129 479 l 1,2,-1
 129 68 l 1,3,-1
 389 68 l 1,4,-1
 389 479 l 1,5,-1
 468 479 l 1,6,-1
 468 68 l 1,7,-1
 505 68 l 1,8,-1
 505 -82 l 1,9,-1
 433 -82 l 1,10,-1
 433 0 l 1,11,-1
 50 0 l 1,0,-1
EndSplineSet
EndChar
StartChar: afii10089
Encoding: 231 1095 432
Width: 508
Flags: W
HStem: 0 21G<379 458> 111 69<156.848 305.168> 459 20G<40 119 379 458>
VStem: 40 79<218.285 479> 379 79<0 215 262.155 479>
LayerCount: 2
Fore
SplineSet
379 215 m 1,0,1
 329.999511718 111.000488282 329.999511718 111.000488282 220 111 c 0,2,3
 139 111 139 111 89.5 156 c 0,4,5
 40 201 40 201 40 295 c 2,6,-1
 40 479 l 1,7,-1
 119 479 l 1,8,-1
 119 301 l 2,9,10
 119 179.999511718 119 179.999511718 231 180 c 0,11,12
 295.999511718 180 295.999511718 180 336.5 230 c 0,13,14
 377 279.999511718 377 279.999511718 379 358 c 2,15,-1
 379 479 l 1,16,-1
 458 479 l 1,17,-1
 458 0 l 1,18,-1
 379 0 l 1,19,-1
 379 215 l 1,0,1
EndSplineSet
EndChar
StartChar: afii10090
Encoding: 232 1096 433
Width: 814
Flags: W
HStem: 0 68<128 382 460 721> 459 20G<50 128 382 460 721 800>
VStem: 50 78<68 479> 382 78<68 479> 721 79<68 479>
LayerCount: 2
Fore
SplineSet
50 0 m 1,0,-1
 50 479 l 1,1,-1
 128 479 l 1,2,-1
 128 68 l 1,3,-1
 368 68 l 1,4,-1
 368 479 l 1,5,-1
 446 479 l 1,6,-1
 446 68 l 1,7,-1
 686 68 l 1,8,-1
 686 479 l 1,9,-1
 764 479 l 1,10,-1
 764 0 l 1,11,-1
 50 0 l 1,0,-1
EndSplineSet
Validated: 1
Substitution2: "'locl' Localized Forms in Cyrillic lookup 1-1" afii10090.loclBGR
EndChar
StartChar: afii10091
Encoding: 233 1097 434
Width: 871
Flags: W
HStem: 0 68<128 368 446 686 764 779> 459 20G<50 128 368 446 686 764>
VStem: 50 78<68 479> 368 78<68 479> 686 78<68 479> 779 72<-140 0>
LayerCount: 2
Fore
SplineSet
50 0 m 1,0,-1
 50 479 l 1,1,-1
 128 479 l 1,2,-1
 128 68 l 1,3,-1
 368 68 l 1,4,-1
 368 479 l 1,5,-1
 446 479 l 1,6,-1
 446 68 l 1,7,-1
 686 68 l 1,8,-1
 686 479 l 1,9,-1
 764 479 l 1,10,-1
 764 68 l 1,11,-1
 851 68 l 1,12,-1
 851 -140 l 1,13,-1
 779 -140 l 1,14,-1
 779 0 l 1,15,-1
 50 0 l 1,0,-1
EndSplineSet
Validated: 1
Substitution2: "'locl' Localized Forms in Cyrillic lookup 1-1" afii10091.loclBGR
EndChar
StartChar: afii10092
Encoding: 234 1098 435
Width: 579
Flags: W
HStem: 0 57<244 419.478> 262 68<244.005 419.665> 412 67<20 165>
VStem: 165 79<57 262 330 412> 459 80<92.6646 227.847>
LayerCount: 2
Fore
SplineSet
20 412 m 1,0,-1
 20 479 l 1,1,-1
 244 479 l 1,2,-1
 244 330 l 1,3,-1
 326 330 l 2,4,5
 430 330 430 330 484.5 283.5 c 128,-1,6
 539 237 539 237 539 159 c 0,7,8
 539 83 539 83 485 41.5 c 128,-1,9
 431 0 431 0 326 0 c 2,10,-1
 165 0 l 1,11,-1
 165 412 l 1,12,-1
 20 412 l 1,0,-1
244 57 m 1,13,-1
 323 57 l 2,14,15
 395 57 395 57 427 83 c 0,16,17
 459 110 459 110 459 160 c 0,18,19
 459 212 459 212 429 237 c 0,20,21
 400 262 400 262 328 262 c 2,22,-1
 244 262 l 1,23,-1
 244 57 l 1,13,-1
EndSplineSet
Validated: 1
Substitution2: "'locl' Localized Forms in Cyrillic lookup 1-1" afii10092.loclBGR
EndChar
StartChar: afii10093
Encoding: 235 1099 436
Width: 605
Flags: W
HStem: 0 21G<476 555> 0 57<129 304.478> 262 68<129.005 304.665> 459 20G<50 129.001 476 555>
VStem: 50 79<57 262 330 479> 344 80<92.6646 227.847> 476 79<0 479>
LayerCount: 2
Fore
SplineSet
476 0 m 1
 476 479 l 1
 555 479 l 1
 555 0 l 1
 476 0 l 1
EndSplineSet
Refer: 437 1100 N 1 0 0 1 0 0 2
EndChar
StartChar: afii10094
Encoding: 236 1100 437
Width: 464
Flags: W
HStem: 0 57<129 304.478> 262 68<129.005 304.665> 459 20G<50 129.001>
VStem: 50 79<57 262 330 479> 344 80<92.6646 227.847>
LayerCount: 2
Fore
SplineSet
50 0 m 1,0,-1
 50 479 l 1,1,-1
 129 479 l 1,2,-1
 129 330 l 1,3,-1
 211 330 l 2,4,5
 315 330 315 330 369.5 283.5 c 128,-1,6
 424 237 424 237 424 159 c 0,7,8
 424 83 424 83 370 41.5 c 128,-1,9
 316 0 316 0 211 0 c 2,10,-1
 50 0 l 1,0,-1
129 57 m 1,11,-1
 208 57 l 2,12,13
 280 57 280 57 312 83 c 0,14,15
 344 110 344 110 344 160 c 0,16,17
 344 212 344 212 314 237 c 128,-1,18
 284 262 284 262 212 262 c 2,19,-1
 129 262 l 1,20,-1
 129 57 l 1,11,-1
EndSplineSet
Validated: 1
Substitution2: "'locl' Localized Forms in Cyrillic lookup 1-1" afii10094.loclBGR
EndChar
StartChar: afii10095
Encoding: 237 1101 438
Width: 491
Flags: W
HStem: -11 70<155.9 302.706> 206 68<166 367.759> 420 70<165.591 301.076>
VStem: 40 81<93.1264 161 337.395 373.646> 367.759 83.2412<133.342 206 274 347.876>
LayerCount: 2
Fore
SplineSet
40 161 m 1,0,-1
 121 161 l 1,1,2
 121 59 121 59 235.5 59 c 0,3,4
 290.398743732 59 290.398743732 59 324.993073355 100.668570976 c 128,-1,5
 359.587402977 142.337141951 359.587402977 142.337141951 367.758789062 206 c 1,6,-1
 166 206 l 1,7,-1
 166 274 l 1,8,-1
 368.147460938 274 l 1,9,10
 360.50994616 339.259153353 360.50994616 339.259153353 323.886443787 379.629576677 c 128,-1,11
 287.262941414 420 287.262941414 420 227 420 c 0,12,13
 188 420 188 420 160.5 394.5 c 128,-1,14
 133 369 133 369 121 331 c 1,15,-1
 41 338 l 1,16,17
 57 407 57 407 108.5 448.5 c 128,-1,18
 160 490 160 490 240.5 490 c 0,19,20
 334 490 334 490 392.5 418 c 128,-1,21
 451 346 451 346 451 241.5 c 0,22,23
 451 135 451 135 390.5 62 c 128,-1,24
 330 -11 330 -11 233 -11 c 0,25,26
 149 -11 149 -11 94.5 36 c 128,-1,27
 40 83 40 83 40 161 c 1,0,-1
EndSplineSet
EndChar
StartChar: afii10097
Encoding: 239 1103 440
Width: 491
Flags: W
HStem: 0 21G<10 121.66 362 441> 206 68<258 362> 422 56<188.154 362>
VStem: 81 84<296.263 398.109> 362 79<0 206 274 422>
LayerCount: 2
Fore
SplineSet
441 0 m 1,0,-1
 362 0 l 1,1,-1
 362 206 l 1,2,-1
 258 206 l 1,3,-1
 107 0 l 1,4,-1
 10 0 l 1,5,-1
 185 230 l 1,6,-1
 160 242 l 2,7,8
 157 243 157 243 151.5 245.5 c 128,-1,9
 146 248 146 248 132.5 256.5 c 128,-1,10
 119 265 119 265 108.5 275.5 c 128,-1,11
 98 286 98 286 89.5 304.5 c 128,-1,12
 81 323 81 323 81 344 c 0,13,14
 81 413 81 413 129 445.5 c 128,-1,15
 177 478 177 478 252 478 c 2,16,-1
 441 478 l 1,17,-1
 441 0 l 1,0,-1
247 422 m 2,18,19
 214 422 214 422 189.5 402 c 128,-1,20
 165 382 165 382 165 347 c 0,21,22
 165 313 165 313 189.5 293.5 c 128,-1,23
 214 274 214 274 247 274 c 2,24,-1
 362 274 l 1,25,-1
 362 422 l 1,26,-1
 247 422 l 2,18,19
EndSplineSet
EndChar
StartChar: endash
Encoding: 8211 8211 9
Width: 474
Flags: W
LayerCount: 2
Fore
SplineSet
55 325 m 1,0,-1
 419 325 l 1,1,-1
 419 257 l 1,2,-1
 55 257 l 1,3,-1
 55 325 l 1,0,-1
EndSplineSet
EndChar
StartChar: emdash
Encoding: 260 8212 10
Width: 726
Flags: W
LayerCount: 2
Fore
SplineSet
55 325 m 1,0,-1
 671 325 l 1,1,-1
 671 257 l 1,2,-1
 55 257 l 1,3,-1
 55 325 l 1,0,-1
EndSplineSet
Validated: 1
EndChar
StartChar: quoteleft
Encoding: 262 8216 66
Width: 214
Flags: W
LayerCount: 2
Back
SplineSet
146.5 433.5 m 0,0,1
 131 418 131 418 103 418 c 0,2,3
 75 418 75 418 55.5 441 c 0,4,5
 36 464 36 464 36 498.5 c 0,6,7
 36 533 36 533 59.5 568.5 c 0,8,9
 83 604 83 604 128 626 c 1,10,-1
 184 597 l 1,11,12
 122 565 122 565 109 521 c 1,13,14
 132 519 132 519 147 506 c 0,15,16
 162 493 162 493 162 471 c 256,17,18
 162 449 162 449 146.5 433.5 c 0,0,1
EndSplineSet
Fore
SplineSet
146.5 488.5 m 128,-1,1
 131 473 131 473 103 473 c 128,-1,2
 75 473 75 473 55.5 496 c 128,-1,3
 36 519 36 519 36 553.5 c 128,-1,4
 36 588 36 588 59.5 623.5 c 128,-1,5
 83 659 83 659 128 681 c 1,6,-1
 184 652 l 1,7,8
 121.78 619.817 121.78 619.817 109 576 c 1,9,10
 132 574 132 574 147 561 c 128,-1,11
 162 548 162 548 162 526 c 128,-1,0
 162 504 162 504 146.5 488.5 c 128,-1,1
EndSplineSet
Validated: 1
EndChar
StartChar: quoteright
Encoding: 263 8217 67
Width: 214
Flags: W
LayerCount: 2
Fore
SplineSet
14.998 503 m 1,0,1
 77.2168 535.183 77.2168 535.183 89.998 579 c 1,2,3
 66.998 581 66.998 581 51.498 594 c 128,-1,4
 35.998 607 35.998 607 35.998 629 c 128,-1,5
 35.998 651 35.998 651 51.998 666 c 128,-1,6
 67.998 681 67.998 681 96.498 681 c 128,-1,7
 124.998 681 124.998 681 143.498 659 c 128,-1,8
 161.998 637 161.998 637 161.998 602 c 128,-1,9
 161.998 567 161.998 567 138.498 531.5 c 128,-1,10
 114.998 496 114.998 496 70.998 473 c 1,11,-1
 14.998 503 l 1,0,1
EndSplineSet
EndChar
StartChar: guilsinglleft
Encoding: 360 8249 199
Width: 291
Flags: W
LayerCount: 2
Fore
SplineSet
30 233 m 1,0,-1
 176 429 l 1,1,-1
 261 429 l 1,2,-1
 123 233 l 1,3,-1
 261 37 l 1,4,-1
 176 37 l 1,5,-1
 30 233 l 1,0,-1
EndSplineSet
EndChar
StartChar: guilsinglright
Encoding: 361 8250 200
Width: 291
Flags: W
LayerCount: 2
Fore
SplineSet
115 429 m 1,0,-1
 30 429 l 1,1,-1
 168 233 l 1,2,-1
 30 37 l 1,3,-1
 115 37 l 1,4,-1
 261 233 l 1,5,-1
 115 429 l 1,0,-1
EndSplineSet
Validated: 9
EndChar
StartChar: uni203D
Encoding: 357 8253 196
Width: 499
Flags: W
LayerCount: 2
Fore
SplineSet
30 476 m 1,0,1
 37 550 37 550 91 595 c 128,-1,2
 145 640 145 640 242.689 640 c 128,-1,3
 340.378 640 340.378 640 396.689 592.189 c 128,-1,4
 453 544.377 453 544.377 453 475 c 0,5,6
 453 423 453 423 427 388.5 c 128,-1,7
 401 354 401 354 343 322 c 0,8,9
 318 308 318 308 301 297 c 128,-1,10
 284 286 284 286 274 272.5 c 0,11,12
 255 246.85 255 246.85 255 200 c 2,13,-1
 255 161 l 1,14,-1
 253 161 l 1,15,-1
 177 161 l 1,16,-1
 167 499.067 l 1,17,-1
 262 499.067 l 1,18,19
 260.101 427.742 260.101 427.742 258.202 356.417 c 1,20,21
 265.804 361.083 265.804 361.083 274.194 365.676 c 0,22,23
 329.021 395.692 329.021 395.692 348.011 418.298 c 128,-1,24
 367 440.905 367 440.905 367 478.952 c 128,-1,25
 367 517 367 517 335.5 542.5 c 128,-1,26
 304 568 304 568 248 568 c 0,27,28
 130.727 568 130.727 568 114 476 c 1,29,-1
 30 476 l 1,0,1
159 44.5 m 128,-1,31
 159 68 159 68 175 85 c 128,-1,32
 191 102 191 102 217 102 c 128,-1,33
 243 102 243 102 260 85 c 128,-1,34
 277 68 277 68 277 44.5 c 128,-1,35
 277 21 277 21 260 5 c 128,-1,36
 243 -11 243 -11 217 -11 c 128,-1,37
 191 -11 191 -11 175 5 c 128,-1,30
 159 21 159 21 159 44.5 c 128,-1,31
EndSplineSet
EndChar
StartChar: Euro
Encoding: 344 8364 183
Width: 612
Flags: W
LayerCount: 2
Fore
SplineSet
12 208 m 1,0,-1
 34 274 l 1,1,-1
 82.4252 274 l 1,2,3
 81 294.351 81 294.351 81 315.995 c 0,4,5
 81 323.579 81 323.579 81.1899 331 c 1,6,-1
 12 331 l 1,7,-1
 34 397 l 1,8,-1
 87.1422 397 l 1,9,10
 102.487 491.62 102.487 491.62 156.166 553.438 c 0,11,12
 231.333 640 231.333 640 337 640 c 0,13,14
 438 640 438 640 495 589.5 c 128,-1,15
 552 539 552 539 575 458 c 1,16,-1
 490 441 l 1,17,18
 470 500 470 500 432 534.5 c 128,-1,19
 394 569 394 569 337 569 c 0,20,21
 270.397 569 270.397 569 218.198 501.23 c 0,22,23
 185.56 458.855 185.56 458.855 173.33 397 c 1,24,-1
 444 397 l 1,25,-1
 422 331 l 1,26,-1
 166.222 331 l 1,27,28
 166 323.538 166 323.538 166 315.863 c 0,29,30
 166 294.102 166 294.102 167.486 274 c 1,31,-1
 403 274 l 1,32,-1
 381 208 l 1,33,-1
 177.41 208 l 1,34,35
 188.251 162.815 188.251 162.815 209.392 129.133 c 0,36,37
 252.783 60 252.783 60 331 60 c 0,38,39
 403 60 403 60 446.5 99.5 c 128,-1,40
 490 139 490 139 490 204 c 1,41,-1
 575 204 l 1,42,43
 575 105.015 575 105.015 507.67 47.0078 c 128,-1,44
 440.339 -11 440.339 -11 329.925 -11 c 128,-1,45
 219.512 -11 219.512 -11 150.256 77.0586 c 0,46,47
 107.973 130.821 107.973 130.821 91.5049 208 c 1,48,-1
 12 208 l 1,0,-1
EndSplineSet
EndChar
StartChar: rupeesymbol
Encoding: 321 8377 144
Width: 581
Flags: W
LayerCount: 2
Fore
SplineSet
92 248 m 1,0,-1
 92 296 l 1,1,-1
 153 296 l 2,2,3
 240 296 240 296 282 334 c 128,-1,4
 324 372 324 372 327 429 c 1,5,-1
 92 429 l 1,6,-1
 92 477 l 1,7,-1
 323 477 l 1,8,9
 312 523 312 523 270.5 551.5 c 128,-1,10
 229 580 229 580 153 580 c 2,11,-1
 92 580 l 1,12,-1
 92 629 l 1,13,-1
 508 629 l 1,14,-1
 508 580 l 1,15,-1
 325 580 l 1,16,17
 394 544 394 544 409 477 c 1,18,-1
 508 477 l 1,19,-1
 508 429 l 1,20,-1
 414 429 l 1,21,22
 407 314 407 314 295 270 c 0,23,24
 255 254 255 254 200 250 c 1,25,-1
 474 0 l 1,26,-1
 362 0 l 1,27,-1
 92 248 l 1,0,-1
EndSplineSet
Validated: 1
EndChar
StartChar: minus
Encoding: 8722 8722 71
Width: 488
Flags: W
LayerCount: 2
Fore
SplineSet
409 325 m 1,0,-1
 409 258 l 1,1,-1
 79 258 l 1,2,-1
 79 325 l 1,3,-1
 409 325 l 1,0,-1
EndSplineSet
EndChar
StartChar: afii10021.loclBGR
Encoding: 540 -1 443
Width: 589
Flags: W
HStem: -81 149<11 52.1081 531 568> 0 68<134.267 448.862> 609 20G<243.909 340.059>
VStem: 11 79<-81 0> 489 79<-81 0>
LayerCount: 2
Fore
SplineSet
11 68 m 1,0,-1
 52.1081081081 68 l 1,1,-1
 251 629 l 1,2,-1
 333 629 l 1,3,-1
 531 68 l 1,4,-1
 568 68 l 5,5,-1
 568 -81 l 1,6,-1
 489 -81 l 1,7,-1
 489 0 l 1,8,-1
 472 0 l 1,9,-1
 111 0 l 1,10,-1
 90 0 l 1,11,-1
 90 -81 l 1,12,-1
 11 -81 l 1,13,-1
 11 68 l 1,0,-1
134.266540643 68 m 1,14,-1
 448.862003781 68 l 1,15,-1
 292 529 l 1,16,-1
 134.266540643 68 l 1,14,-1
EndSplineSet
EndChar
StartChar: afii10029.loclBGR
Encoding: 546 -1 449
Width: 589
Flags: W
HStem: 0 21G<28 117.843 465.195 555> 609 20G<243.909 340.059>
LayerCount: 2
Fore
SplineSet
28 0 m 1,0,-1
 251 629 l 1,1,-1
 333 629 l 1,2,-1
 555 0 l 1,3,-1
 472 0 l 1,4,-1
 292 529 l 1,5,-1
 111 0 l 1,6,-1
 28 0 l 1,0,-1
EndSplineSet
Validated: 1
EndChar
StartChar: afii10067.loclBGR
Encoding: 548 -1 451
Width: 524
Flags: W
HStem: -11 70<160.888 334.959> 369 56<166.094 313.009> 620 68<177.788 332.708>
VStem: 52 79<85.2506 340.668 384 573.518> 359 88<471.947 593.19> 404 81<135.066 303.745>
LayerCount: 2
Fore
SplineSet
52 225 m 2,0,-1
 52 444 l 2,1,2
 52 581 52 581 117 640 c 0,3,4
 171 689 171 689 259 689 c 0,5,6
 325 688 325 688 367 662 c 0,7,8
 437 618 437 618 437 527 c 0,9,10
 437 445 437 445 365 395 c 1,11,12
 422 379 422 379 456 330 c 128,-1,13
 490 281 490 281 490 219 c 0,14,15
 490 106 490 106 425 44 c 0,16,17
 367 -11 367 -11 261 -11 c 0,18,19
 224 -11 224 -11 191.5 -1.5 c 128,-1,20
 159 8 159 8 125.5 31.5 c 128,-1,21
 92 55 92 55 72 106 c 128,-1,22
 52 157 52 157 52 225 c 2,0,-1
131 221 m 2,23,24
 131 57 131 57 272 57 c 0,25,26
 341 57 341 57 372 96 c 0,27,28
 409 139 409 139 409 219 c 0,29,30
 409 274 409 274 362 320 c 0,31,32
 328 352 328 352 268 353 c 0,33,34
 220 353 220 353 180 335 c 0,35,36
 140 318 140 318 131 311 c 1,37,-1
 131 221 l 2,23,24
131 377 m 1,38,39
 152 385 152 385 192.5 396.5 c 128,-1,40
 233 408 233 408 261 412 c 0,41,42
 318 420 318 420 338.5 454.5 c 128,-1,43
 359 489 359 489 359 523 c 0,44,45
 359 572 359 572 329.5 597 c 128,-1,46
 300 622 300 622 261 622 c 0,47,48
 131 622 131 622 131 445 c 2,49,-1
 131 377 l 1,38,39
EndSplineSet
Validated: 8388609
EndChar
StartChar: afii10068.loclBGR
Encoding: 549 -1 452
Width: 485
Flags: W
HStem: -11 62<160.594 330.008> 428 62<158.743 319.076>
VStem: 40 86<82.8311 172.409> 57 77<363 403.215> 346 83<314.961 401.798> 369 76<87.0217 141>
LayerCount: 2
Fore
SplineSet
378 455 m 0,0,1
 429 420 429 420 429 361 c 0,2,3
 429 269 429 269 304 231 c 2,4,-1
 211 200 l 2,5,6
 164 188 164 188 146 172 c 0,7,8
 126 155 126 155 126 126 c 0,9,10
 126 95 126 95 160 73 c 0,11,12
 194 51 194 51 246 51 c 0,13,14
 300 51 300 51 332 74 c 0,15,16
 367 95 367 95 369 141 c 1,17,-1
 445 141 l 1,18,19
 442 74 442 74 389 32 c 0,20,21
 337 -11 337 -11 241 -11 c 0,22,23
 146 -11 146 -11 93 30 c 0,24,25
 40 72 40 72 40 124 c 0,26,27
 40 175 40 175 72 204 c 0,28,29
 104 233 104 233 166 253 c 2,30,-1
 262 285 l 2,31,32
 308 299 308 299 326 316 c 0,33,34
 346 333 346 333 346 358 c 0,35,36
 346 383 346 383 320 406 c 0,37,38
 294 428 294 428 244 428 c 0,39,40
 143 428 143 428 134 363 c 1,41,-1
 57 363 l 1,42,43
 58 418 58 418 108 454 c 0,44,45
 156 490 156 490 242 490 c 0,46,47
 328 490 328 490 378 455 c 0,0,1
EndSplineSet
EndChar
StartChar: afii10069.loclBGR
Encoding: 550 -1 453
Width: 522
Flags: W
HStem: -200 59<203.476 359.01> -11 70<194.934 337.471> 420 70<191.035 335.817> 458 20G<413.641 472>
VStem: 40 81<140.39 339.642> 87 87<-109.966 -56> 394 78<-105.873 76 114.317 359.614> 418 54<445.882 478>
LayerCount: 2
Fore
SplineSet
40 239 m 0,0,1
 40 344 40 344 99.5 417 c 128,-1,2
 159 490 159 490 253 490 c 0,3,4
 355 490 355 490 401 400 c 1,5,-1
 418 478 l 1,6,-1
 472 478 l 1,7,-1
 472 -18 l 2,8,9
 472 -108 472 -108 423 -154 c 128,-1,10
 374 -200 374 -200 283 -200 c 128,-1,11
 192 -200 192 -200 139.5 -164 c 128,-1,12
 87 -128 87 -128 87 -56 c 1,13,-1
 174 -56 l 1,14,15
 174 -141 174 -141 288 -141 c 0,16,17
 344 -141 344 -141 369 -110.5 c 128,-1,18
 394 -80 394 -80 394 -18 c 2,19,-1
 394 76 l 1,20,21
 354 -11 354 -11 260 -11 c 0,22,23
 162 -11 162 -11 101 60.5 c 128,-1,24
 40 132 40 132 40 239 c 0,0,1
121 238 m 0,25,26
 121 164 121 164 160.5 111.5 c 128,-1,27
 200 59 200 59 264 59 c 0,28,29
 317 59 317 59 355.5 94.5 c 128,-1,30
 394 130 394 130 394 187 c 2,31,-1
 394 278 l 2,32,33
 394 341 394 341 357 380.5 c 128,-1,34
 320 420 320 420 260 420 c 0,35,36
 196 420 196 420 158.5 367 c 128,-1,37
 121 314 121 314 121 238 c 0,25,26
EndSplineSet
Validated: 8388609
EndChar
StartChar: afii10072.loclBGR
Encoding: 551 -1 454
Width: 803
Flags: W
HStem: 0 21G<10 122.099 362 441 680.901 793> 458 20G<21 154.938 648.062 782> 661 20G<362 441>
VStem: 362 79<0 201 285 681>
LayerCount: 2
Fore
SplineSet
10 0 m 1,0,-1
 241 299 l 1,1,-1
 21 478 l 1,2,-1
 131 478 l 1,3,-1
 362 285 l 1,4,-1
 362 681 l 1,5,-1
 441 681 l 1,6,-1
 441 285 l 1,7,-1
 672 478 l 1,8,-1
 782 478 l 1,9,-1
 562 299 l 1,10,-1
 793 0 l 1,11,-1
 696 0 l 1,12,-1
 505 253 l 1,13,-1
 441 201 l 1,14,-1
 441 0 l 1,15,-1
 362 0 l 1,16,-1
 362 201 l 1,17,-1
 298 253 l 1,18,-1
 107 0 l 1,19,-1
 10 0 l 1,0,-1
EndSplineSet
EndChar
StartChar: afii10073.loclBGR
Encoding: 552 -1 455
Width: 463
Flags: W
HStem: -201 70<112.904 271.485> 174 54<123.725 265.298> 429.75 67.5996<123.115 259.673>
VStem: 297.725 87.2754<263.758 392.137> 342.725 80.2754<-51.1678 116.958>
LayerCount: 2
Fore
SplineSet
208 490 m 131,-1,1
 120 490 120 490 76 451.598632812 c 0,2,3
 29 411 29 411 30 362 c 1,4,-1
 113 362 l 1,5,6
 113 385 113 385 137 406.588867188 c 0,7,8
 160 427 160 427 208.25 427.030273438 c 0,9,10
 258 427 258 427 283.494140625 402 c 0,11,12
 307 378 307 378 307.5 332 c 0,13,14
 308 290 308 290 281.25 256 c 0,15,16
 255 222 255 222 205 222 c 0,17,-1
 124 222 l 1,18,-1
 124 168 l 1,19,-1
 207 168 l 0,20,21
 272 168 272 168 308 139 c 0,22,23
 356 100 356 100 356 24 c 128,-1,25
 356 -52 356 -52 329 -86 c 0,26,27
 294 -130 294 -130 224.5 -130 c 0,28,29
 174 -130 174 -130 150 -110.33203125 c 0,30,31
 107 -75 107 -75 107 -56 c 1,32,-1
 14 -56 l 1,33,34
 13 -111 13 -111 75.5 -159.5 c 0,35,36
 128 -200 128 -200 227 -200 c 128,-1,37
 326 -200 326 -200 388 -131 c 0,38,39
 435 -78 435 -78 436 25 c 0,40,41
 436 110 436 110 388.5 160.5 c 0,42,43
 361 190 361 190 323 206 c 1,44,45
 393 254 393 254 393 340 c 0,46,47
 393 407 393 407 344 449.056640625 c 0,48,0
 296 490 296 490 208 490 c 131,-1,1
EndSplineSet
EndChar
StartChar: afii10077.loclBGR
Encoding: 556 -1 459
Width: 487
Flags: W
HStem: 0 21G<10 106.342 380.709 477> 458 20G<192.05 294.95>
LayerCount: 2
Fore
SplineSet
10 0 m 1,0,-1
 200 479 l 1,1,-1
 287 479 l 1,2,-1
 477 0 l 1,3,-1
 388 0 l 1,4,-1
 244 396 l 1,5,-1
 99 0 l 5,6,-1
 10 0 l 1,0,-1
EndSplineSet
Validated: 1
EndChar
StartChar: afii10088.loclBGR
Encoding: 561 -1 464
Width: 525
Flags: W
HStem: -10 69<166.848 315.168> 458 20G<50 129 389 468>
VStem: 50 79<97.285 478> 389 79<70.6399 94 141.155 478> 433 72<-82 -1>
LayerCount: 2
Fore
SplineSet
389 94 m 1,0,1
 339.999511718 -9.99951171875 339.999511718 -9.99951171875 230 -10 c 0,2,3
 149 -10 149 -10 99.5 35 c 128,-1,4
 50 80 50 80 50 174 c 2,5,-1
 50 478 l 1,6,-1
 129 478 l 1,7,-1
 129 180 l 2,8,9
 129 58.9995117188 129 58.9995117188 241 59 c 0,10,11
 305.999511718 59 305.999511718 59 346.5 109 c 128,-1,12
 387 158.999511718 387 158.999511718 389 237 c 2,13,-1
 389 478 l 1,14,-1
 468 478 l 1,15,-1
 468 107 l 2,16,17
 468 89 468 89 478.5 78 c 128,-1,18
 489 67 489 67 505 67 c 1,19,-1
 505 -82 l 1,20,-1
 433 -82 l 1,21,-1
 433 -1 l 1,22,23
 420 -1 420 -1 404.5 26.5 c 128,-1,24
 389 54 389 54 389 94 c 1,0,1
EndSplineSet
EndChar
StartChar: afii10089.loclBGR
Encoding: 561 -1 464
Width: 498
Flags: W
HStem: 0 21G<379 458> 111 69<156.848 305.168> 459 20G<40 119 379 458>
VStem: 40 79<218.285 479> 379 79<0 215 262.155 479>
LayerCount: 2
Fore
SplineSet
50 325 m 2,0,-1
 50 479 l 1,1,-1
 129 479 l 1,2,-1
 129 331 l 2,3,4
 129 271 129 271 156 241 c 0,5,6
 184 210 184 210 241 210 c 4,7,8
 295 210 295 210 369 238 c 5,9,-1
 369 479 l 1,10,-1
 448 479 l 1,11,-1
 448 0 l 1,12,-1
 369 0 l 1,13,-1
 369 171 l 5,14,15
 298 141 298 141 230 141 c 0,16,17
 149 141 149 141 99.5 186 c 128,-1,18
 50 231 50 231 50 325 c 2,0,-1
EndSplineSet
Validated: 1
EndChar
StartChar: afii10090.loclBGR
Encoding: 563 -1 466
Width: 850
Flags: W
HStem: -12 70<175.783 320.052 508.152 651.996> 0 21G<730.043 800> 458 20G<50 128 382 460 721 800>
VStem: 50 78<107.869 478> 382 78<129.88 478> 721 79<135.713 478> 732 68<0 71.5556>
LayerCount: 2
Fore
SplineSet
723 92 m 1,0,1
 676.000488282 -11.9995117188 676.000488282 -11.9995117188 562 -12 c 0,2,3
 500.000488282 -12 500.000488282 -12 458 18.5 c 0,4,5
 416 48.9995117188 416 48.9995117188 397 103 c 1,6,7
 352 -12.0004882812 352 -12.0004882812 230 -12 c 0,8,9
 144.000488282 -12 144.000488282 -12 97 44 c 0,10,11
 50.0004882812 99.9995117188 50.0004882812 99.9995117188 50 197 c 2,12,-1
 50 478 l 1,13,-1
 128 478 l 1,14,-1
 128 197 l 2,15,16
 128 128 128 128 160.5 93 c 0,17,18
 193.000488282 58.0004882812 193.000488282 58.0004882812 254 58 c 0,19,20
 315.000488282 58 315.000488282 58 348.5 108 c 0,21,22
 381.999511718 157.999511718 381.999511718 157.999511718 382 246 c 2,23,-1
 382 478 l 1,24,-1
 460 478 l 1,25,-1
 460 197 l 2,26,27
 460 128 460 128 492.5 93 c 0,28,29
 525.000488282 58.0004882812 525.000488282 58.0004882812 585 58 c 0,30,31
 645 58 645 58 682 107 c 0,32,33
 719.000488282 156.000488282 719.000488282 156.000488282 721 243 c 2,34,-1
 721 478 l 1,35,-1
 800 478 l 1,36,-1
 800 0 l 1,37,-1
 732 0 l 1,38,-1
 723 92 l 1,0,1
EndSplineSet
EndChar
StartChar: afii10091.loclBGR
Encoding: 564 -1 467
Width: 857
Flags: W
HStem: -12 70<175.783 320.052 508.152 651.996> 458 20G<50 128 382 460 721 800>
VStem: 50 78<107.869 478> 382 78<129.88 478> 721 79<71.1842 92 135.713 478> 765 72<-82 -1>
LayerCount: 2
Fore
SplineSet
723 92 m 1,0,1
 676.000488282 -11.9995117188 676.000488282 -11.9995117188 562 -12 c 0,2,3
 500.000488282 -12 500.000488282 -12 458 18.5 c 128,-1,4
 416 48.9995117188 416 48.9995117188 397 103 c 1,5,6
 352 -12.0004882812 352 -12.0004882812 230 -12 c 0,7,8
 144.000488282 -12 144.000488282 -12 97 44 c 128,-1,9
 50.0004882812 99.9995117188 50.0004882812 99.9995117188 50 197 c 2,10,-1
 50 478 l 1,11,-1
 128 478 l 1,12,-1
 128 197 l 2,13,14
 128 128 128 128 160.5 93 c 128,-1,15
 193.000488282 58.0004882812 193.000488282 58.0004882812 254 58 c 128,-1,16
 315.000488282 58 315.000488282 58 348.5 108 c 128,-1,17
 381.999511718 157.999511718 381.999511718 157.999511718 382 246 c 2,18,-1
 382 478 l 1,19,-1
 460 478 l 1,20,-1
 460 197 l 2,21,22
 460 128 460 128 492.5 93 c 128,-1,23
 525.000488282 58.0004882812 525.000488282 58.0004882812 585 58 c 128,-1,24
 645 58 645 58 682 107 c 128,-1,25
 719.000488282 156.000488282 719.000488282 156.000488282 721 243 c 2,26,-1
 721 478 l 1,27,-1
 800 478 l 1,28,-1
 800 107 l 2,29,30
 800 89 800 89 810.5 78 c 128,-1,31
 821 67 821 67 837 67 c 1,32,-1
 837 -82 l 1,33,-1
 765 -82 l 1,34,-1
 765 -1 l 1,35,36
 752 -1 752 -1 737.5 25.5 c 128,-1,37
 723 52 723 52 723 92 c 1,0,1
EndSplineSet
EndChar
StartChar: afii10092.loclBGR
Encoding: 564 -1 467
Width: 650
Flags: W
HStem: -11 68<302.283 467.348> 322 68<304.843 471.592> 412 67<20 165.538>
VStem: 164 81<116.053 262.391 319.687 412> 530 80<116.308 263.726>
LayerCount: 2
Fore
SplineSet
20 412 m 1,0,-1
 20 479 l 1,1,-1
 245 479 l 1,2,-1
 244 320 l 1,3,4
 267 351 267 351 305.5 370.5 c 128,-1,5
 344 390 344 390 387 390 c 0,6,7
 489 390 489 390 549.5 329.5 c 128,-1,8
 610 269 610 269 610 189 c 128,-1,9
 610 109 610 109 549.5 49 c 128,-1,10
 489 -11 489 -11 387 -11 c 128,-1,11
 285 -11 285 -11 224.5 49.5 c 128,-1,12
 164 110 164 110 164 189 c 2,13,-1
 166 412 l 1,14,-1
 20 412 l 1,0,-1
245 190 m 0,15,16
 245 137 245 137 280 96 c 0,17,18
 314 56 314 56 382 56 c 0,19,20
 383 56 383 56 384 56 c 0,21,22
 454 57 454 57 492 96.5 c 128,-1,23
 530 136 530 136 530 189.5 c 128,-1,24
 530 243 530 243 494 282.5 c 128,-1,25
 458 322 458 322 388.5 322 c 128,-1,26
 319 322 319 322 282 283 c 128,-1,27
 245 244 245 244 245 190 c 0,15,16
EndSplineSet
Validated: 1
EndChar
StartChar: afii10094.loclBGR
Encoding: 567 -1 470
Width: 536
Flags: W
HStem: -11 68<188.344 353.348> 322 68<191.091 357.592> 459 20G<51 131>
VStem: 51 80<116.053 262.391 319.687 479> 416 80<116.308 263.726>
LayerCount: 2
Fore
SplineSet
416 189.5 m 128,-1,1
 416 243 416 243 380 282.5 c 128,-1,2
 344 322 344 322 274.5 322 c 128,-1,3
 205 322 205 322 168 282.5 c 128,-1,4
 131 243 131 243 131 189.5 c 0,5,6
 131 135 131 135 166 96 c 128,-1,7
 201 57 201 57 270.5 57 c 0,8,9
 341 57 341 57 378.5 96.5 c 128,-1,0
 416 136 416 136 416 189.5 c 128,-1,1
51 479 m 1,10,-1
 131 479 l 1,11,-1
 131 319.686523438 l 1,12,13
 154.283860752 350.98006261 154.283860752 350.98006261 192.271519641 370.490031305 c 128,-1,14
 230.259178531 390 230.259178531 390 273 390 c 0,15,16
 375 390 375 390 435.5 329.5 c 128,-1,17
 496 269 496 269 496 189 c 128,-1,18
 496 109 496 109 435.5 49 c 128,-1,19
 375 -11 375 -11 273 -11 c 128,-1,20
 171 -11 171 -11 111 49 c 128,-1,21
 51 109 51 109 51 189 c 2,22,-1
 51 479 l 1,10,-1
EndSplineSet
EndChar
StartChar: afii10096.loclBGR
Encoding: 567 -1 470
Width: 666
Flags: W
HStem: -11 68<322.776 478.784> 0 21G<50 129> 227 68<129 180.157> 422 68<326.942 481.646> 661 20G<50 129>
VStem: 50 79<0 227 295 681> 180 81<128.489 227 295 348.733> 546 80<132.406 349.702>
LayerCount: 2
Fore
SplineSet
50 0 m 1,0,-1
 50 681 l 1,1,-1
 129 681 l 1,2,-1
 129 295 l 1,3,-1
 184 295 l 1,4,5
 196 376 196 376 242 425 c 0,6,7
 304 490 304 490 403.5 490 c 128,-1,8
 503 490 503 490 564.5 425 c 128,-1,9
 626 360 626 360 626 239 c 0,10,11
 626 119 626 119 564.5 54 c 128,-1,12
 503 -11 503 -11 403 -11 c 0,13,14
 304 -11 304 -11 242 54 c 0,15,16
 184 116 184 116 180 227 c 1,17,-1
 129 227 l 1,18,-1
 129 0 l 1,19,-1
 50 0 l 1,0,-1
261 239.5 m 128,-1,21
 261 154 261 154 296 105.5 c 128,-1,22
 331 57 331 57 400.5 57 c 128,-1,23
 470 57 470 57 508 105.5 c 128,-1,24
 546 154 546 154 546 239.5 c 128,-1,25
 546 325 546 325 510 373.5 c 128,-1,26
 474 422 474 422 404.5 422 c 128,-1,27
 335 422 335 422 298 373.5 c 128,-1,20
 261 325 261 325 261 239.5 c 128,-1,21
EndSplineSet
Validated: 8388609
EndChar
StartChar: eight.propold
Encoding: 273 -1 91
Width: 615
Flags: W
LayerCount: 2
Fore
SplineSet
55 168 m 0,0,1
 55 230 55 230 95.5 269 c 128,-1,2
 136 308 136 308 201 318 c 1,3,4
 76 375 76 375 76 473 c 0,5,6
 76 548 76 548 138 594 c 128,-1,7
 200 640 200 640 302.5 640 c 128,-1,8
 405 640 405 640 471 591 c 128,-1,9
 537 542 537 542 537 465 c 0,10,11
 537 413 537 413 502.5 372 c 128,-1,12
 468 331 468 331 401 321 c 1,13,-1
 418 315 l 1,14,15
 487 289 487 289 524 253.5 c 128,-1,16
 561 218 561 218 561 157 c 0,17,18
 561 81 561 81 493.5 35 c 128,-1,19
 426 -11 426 -11 311.5 -11 c 128,-1,20
 197 -11 197 -11 126 40 c 128,-1,21
 55 91 55 91 55 168 c 0,0,1
137 169 m 128,-1,23
 137 121 137 121 185 91 c 128,-1,24
 233 61 233 61 310.5 61 c 128,-1,25
 388 61 388 61 433.5 87 c 128,-1,26
 479 113 479 113 479 150 c 128,-1,27
 479 187 479 187 455 209.5 c 128,-1,28
 431 232 431 232 389 247 c 2,29,-1
 276 289 l 1,30,31
 213 282 213 282 175 249.5 c 128,-1,22
 137 217 137 217 137 169 c 128,-1,23
159 463 m 0,32,33
 159 436 159 436 181 416.5 c 128,-1,34
 203 397 203 397 244 381 c 2,35,-1
 317 353 l 1,36,37
 377 355 377 355 416 384.5 c 128,-1,38
 455 414 455 414 455 461.5 c 128,-1,39
 455 509 455 509 414 538.5 c 128,-1,40
 373 568 373 568 308 568 c 128,-1,41
 243 568 243 568 201 539.5 c 128,-1,42
 159 511 159 511 159 463 c 0,32,33
EndSplineSet
Validated: 1
EndChar
StartChar: five.propold
Encoding: 270 -1 88
Width: 569
Flags: W
LayerCount: 2
Fore
SplineSet
65 75 m 1,0,-1
 142 75 l 1,1,2
 142 18 142 18 177 -12 c 128,-1,3
 212 -42 212 -42 274.95 -42 c 128,-1,4
 337.9 -42 337.9 -42 382 0 c 128,-1,5
 426 41.9048 426 41.9048 426 105.452 c 128,-1,6
 426 169 426 169 385.5 205 c 128,-1,7
 345 241 345 241 266 241 c 2,8,-1
 104 241 l 1,9,-1
 132 545 l 1,10,-1
 477 545 l 1,11,-1
 477 474 l 1,12,-1
 205 474 l 1,13,-1
 187 296 l 1,14,15
 233 306 233 306 281 306 c 0,16,17
 386 306 386 306 446 253 c 128,-1,18
 506 200 506 200 506 105.857 c 128,-1,19
 506 11.7143 506 11.7143 438.881 -51.1429 c 128,-1,20
 371.763 -114 371.763 -114 276.881 -114 c 128,-1,21
 182 -114 182 -114 123.5 -63.8571 c 128,-1,22
 65 -13.7143 65 -13.7143 65 75 c 1,0,-1
EndSplineSet
EndChar
StartChar: four.propold
Encoding: 269 -1 87
Width: 560
Flags: W
LayerCount: 2
Fore
SplineSet
24 54 m 1,0,-1
 24 115 l 1,1,-1
 353 546 l 1,2,-1
 427 546 l 1,3,-1
 427 121 l 1,4,-1
 536 121 l 1,5,-1
 536 54 l 1,6,-1
 427 54 l 1,7,-1
 427 -105 l 1,8,-1
 349 -105 l 1,9,-1
 349 54 l 1,10,-1
 24 54 l 1,0,-1
112 115 m 1,11,-1
 351 115 l 1,12,-1
 351 422 l 1,13,-1
 112 115 l 1,11,-1
EndSplineSet
EndChar
StartChar: nine.propold
Encoding: 274 -1 92
Width: 580
Flags: W
LayerCount: 2
Fore
SplineSet
66 354 m 0,0,1
 66 441.214 66 441.214 125.115 496.107 c 128,-1,2
 184.231 551 184.231 551 285.5 551 c 0,3,4
 339 551 339 551 385.5 525.5 c 128,-1,5
 432 500 432 500 464 456.5 c 0,6,7
 530 366.781 530 366.781 530 216.938 c 128,-1,8
 530 67.0952 530 67.0952 465.176 -23.4524 c 128,-1,9
 400.352 -114 400.352 -114 281 -114 c 0,10,11
 187.642 -114 187.642 -114 128.821 -58.3304 c 128,-1,12
 70 -2.66071 70 -2.66071 70 83 c 1,13,-1
 153 83 l 1,14,15
 155 26 155 26 187.5 -8 c 128,-1,16
 220 -42 220 -42 272.5 -42 c 128,-1,17
 325 -42 325 -42 356.5 -22.5 c 0,18,19
 449 34.7619 449 34.7619 449 238 c 0,20,21
 449 283 449 283 444 318 c 1,22,23
 436 241 436 241 389 198.5 c 128,-1,24
 342 156 342 156 263.365 156 c 128,-1,25
 184.731 156 184.731 156 125.365 212.127 c 128,-1,26
 66 268.255 66 268.255 66 354 c 0,0,1
148 353.5 m 128,-1,28
 148 295 148 295 184 260.5 c 128,-1,29
 220 226 220 226 278.5 226 c 128,-1,30
 337 226 337 226 374 263 c 128,-1,31
 411 300 411 300 411 356 c 128,-1,32
 411 412 411 412 375 446.5 c 128,-1,33
 339 481 339 481 279 481 c 128,-1,34
 219 481 219 481 183.5 446.5 c 128,-1,27
 148 412 148 412 148 353.5 c 128,-1,28
EndSplineSet
EndChar
StartChar: one.propold
Encoding: 266 -1 84
Width: 331
Flags: W
LayerCount: 2
Fore
SplineSet
49 412 m 1,0,-1
 49 489 l 1,1,2
 118.026 500.133 118.026 500.133 166 541 c 1,3,-1
 230 541 l 1,4,-1
 230 0 l 1,5,-1
 152 0 l 1,6,-1
 152 446 l 1,7,8
 101 414 101 414 49 412 c 1,0,-1
EndSplineSet
EndChar
StartChar: seven.propold
Encoding: 65546 -1 90
Width: 470
Flags: W
LayerCount: 2
Fore
SplineSet
452 551 m 1,0,-1
 452 484 l 1,1,-1
 152 -98 l 1,2,-1
 55 -98 l 1,3,-1
 369 481 l 1,4,-1
 24 481 l 1,5,-1
 24 551 l 1,6,-1
 452 551 l 1,0,-1
EndSplineSet
EndChar
StartChar: six.propold
Encoding: 271 -1 89
Width: 573
Flags: W
LayerCount: 2
Fore
SplineSet
51 314.509 m 128,-1,1
 51 460.941 51 460.941 121 550.5 c 128,-1,2
 190.954 640 190.954 640 312 640 c 0,3,4
 395.667 640 395.667 640 448.823 593.097 c 128,-1,5
 501.98 546.195 501.98 546.195 510 470 c 1,6,-1
 425 470 l 1,7,8
 407.578 568 407.578 568 317.692 568 c 128,-1,9
 227.806 568 227.806 568 179.403 493.851 c 128,-1,10
 131 419.702 131 419.702 131 292 c 0,11,12
 131 239 131 239 136 204 c 1,13,14
 141.646 296.221 141.646 296.221 192.348 337.611 c 128,-1,15
 243.05 379 243.05 379 322.251 379 c 128,-1,16
 401.453 379 401.453 379 458.226 323.278 c 128,-1,17
 515 267.556 515 267.556 515 181.394 c 128,-1,18
 515 95.2321 515 95.2321 456.127 41.6161 c 128,-1,19
 397.255 -12 397.255 -12 301 -12 c 0,20,21
 188.706 -12 188.706 -12 119.853 78.0385 c 128,-1,0
 51 168.077 51 168.077 51 314.509 c 128,-1,1
170 183.214 m 128,-1,23
 170 128.286 170 128.286 206.797 94.6429 c 128,-1,24
 243.594 61 243.594 61 300.797 61 c 128,-1,25
 358 61 358 61 395.5 94 c 128,-1,26
 433 127 433 127 433 185 c 128,-1,27
 433 243 433 243 395.5 276 c 128,-1,28
 358 309 358 309 301.576 309 c 128,-1,29
 245.152 309 245.152 309 207.5 273.5 c 128,-1,22
 170 238.143 170 238.143 170 183.214 c 128,-1,23
EndSplineSet
EndChar
StartChar: three.propold
Encoding: 268 -1 86
Width: 562
Flags: W
LayerCount: 2
Fore
SplineSet
28 88 m 1,0,-1
 108 88 l 1,1,2
 110 19 110 19 151.5 -13.5 c 128,-1,3
 193 -46 193 -46 258.697 -46 c 128,-1,4
 324.394 -46 324.394 -46 368.197 -10.7439 c 128,-1,5
 412 24.5122 412 24.5122 412 79 c 0,6,7
 412 167.367 412 167.367 323 200 c 0,8,9
 293 211 293 211 251 211 c 2,10,-1
 190 211 l 1,11,-1
 190 274 l 1,12,-1
 233 274 l 2,13,14
 305 274 305 274 346.5 300 c 128,-1,15
 388 326 388 326 388 375 c 128,-1,16
 388 424 388 424 354 453.5 c 128,-1,17
 320 483 320 483 260 483 c 0,18,19
 149.878 483 149.878 483 129 390 c 1,20,-1
 46 390 l 1,21,22
 67.9545 551 67.9545 551 259 551 c 0,23,24
 351.75 551 351.75 551 409.875 504.5 c 128,-1,25
 468 458 468 458 468 384 c 0,26,27
 468 333 468 333 439.5 302 c 128,-1,28
 411 271 411 271 360 252 c 1,29,30
 421 232 421 232 457 184.5 c 128,-1,31
 493 137 493 137 493 74 c 0,32,33
 493 -8.13115 493 -8.13115 428.5 -61 c 128,-1,34
 363.84 -114 363.84 -114 261.67 -114 c 128,-1,35
 159.5 -114 159.5 -114 93.75 -61.8175 c 128,-1,36
 28 -9.63492 28 -9.63492 28 88 c 1,0,-1
EndSplineSet
EndChar
StartChar: two.propold
Encoding: 65541 -1 85
Width: 575
Flags: W
LayerCount: 2
Back
Fore
SplineSet
143 73 m 1,0,-1
 500 73 l 1,1,-1
 500 0 l 1,2,-1
 64 0 l 1,3,-1
 64 84 l 2,4,5
 64 164 64 164 101 205.5 c 128,-1,6
 138 247 138 247 214 264 c 1,7,-1
 317 289 l 2,8,9
 370 301 370 301 395.5 325 c 128,-1,10
 421 349 421 349 421 388 c 128,-1,11
 421 427 421 427 389 454 c 128,-1,12
 357 481 357 481 299 481 c 128,-1,13
 241 481 241 481 204.5 458 c 128,-1,14
 168 435 168 435 162 388 c 1,15,-1
 75 388 l 1,16,17
 80 466 80 466 138 508.5 c 128,-1,18
 196 551 196 551 290.3 551 c 128,-1,19
 384.6 551 384.6 551 442.8 502.5 c 128,-1,20
 501 454 501 454 501 388 c 128,-1,21
 501 322 501 322 464 285.5 c 128,-1,22
 427 249 427 249 351 231 c 2,23,-1
 240 204 l 1,24,25
 143 182.038 143 182.038 143 105 c 2,26,-1
 143 73 l 1,0,-1
EndSplineSet
Validated: 524289
EndChar
StartChar: zero.propold
Encoding: 65539 -1 83
Width: 531
Flags: W
LayerCount: 2
Back
Fore
SplineSet
265.5 551 m 128,-1,1
 363.901 551 363.901 551 422.451 478.07 c 128,-1,2
 481 405.14 481 405.14 481 270 c 128,-1,3
 481 134.86 481 134.86 422.451 61.9298 c 128,-1,4
 363.901 -11 363.901 -11 265.5 -11 c 128,-1,5
 167.099 -11 167.099 -11 109.049 61.307 c 128,-1,6
 51 133.614 51 133.614 51 270 c 128,-1,7
 51 406.386 51 406.386 109.049 478.693 c 128,-1,0
 167.099 551 167.099 551 265.5 551 c 128,-1,1
400 270 m 0,8,9
 400 482 400 482 266 482 c 128,-1,10
 132 482 132 482 132 270 c 0,11,12
 132 59 132 59 266 59 c 128,-1,13
 400 59 400 59 400 270 c 0,8,9
EndSplineSet
Validated: 1
EndChar
